/* XPM */
static const char * const a169_xpm[] = {
"18 16 3 1",
" 	c None",
".	c #000000",
"+	c #FFFFFF",
"                  ",
"                  ",
"                  ",
" ................ ",
"..++++++++++++++..",
".+..............+.",
".+..+.+++.+.+++.+.",
".+.++.+.....+.+.+.",
".+..+.+++...+++.+.",
".+..+.+.+.....+.+.",
".+..+.+++.+.+++.+.",
".+..............+.",
"..++++++++++++++..",
" ................ ",
"                  ",
"                  "};
