/* XPM */
static const char * const ab_xpm[] = {
"16 16 15 1",
" 	c None",
".	c #000000",
"+	c #EEF63E",
"@	c #EAF13D",
"#	c #F0F83F",
"$	c #CBD235",
"%	c #E9F03D",
"&	c #E5EC3C",
"*	c #E8F03D",
"=	c #ABB02D",
"-	c #ECF33E",
";	c #EFF73F",
">	c #CED636",
",	c #B4BA2F",
"'	c #CDD435",
"                ",
"                ",
"                ",
"                ",
"        .       ",
"       .+.      ",
"     ..@#$..    ",
"    .######%.   ",
"     .####&.    ",
"     .*###=.    ",
"     .#-.;>.    ",
"     .,. .'.    ",
"      .   .     ",
"                ",
"                ",
"                "};
