/* XPM */
static const char * const cancel_xpm[] = {
"55 16 120 2",
"  	c None",
". 	c #786663",
"+ 	c #71615F",
"@ 	c #808080",
"# 	c #8F8381",
"$ 	c #A76C5F",
"% 	c #A6503F",
"& 	c #5D433E",
"* 	c #736967",
"= 	c #8E564B",
"- 	c #874032",
"; 	c #6D6B6A",
"> 	c #897976",
", 	c #B65846",
"' 	c #C7523D",
") 	c #9E3D2B",
"! 	c #5B3B35",
"~ 	c #80716E",
"{ 	c #9E5042",
"] 	c #BF4933",
"^ 	c #862C1D",
"/ 	c #57514F",
"( 	c #894335",
"_ 	c #BE4028",
": 	c #BF3E26",
"< 	c #A43C29",
"[ 	c #724841",
"} 	c #877976",
"| 	c #91483A",
"1 	c #B4432F",
"2 	c #7C2516",
"3 	c #5C3832",
"4 	c #909090",
"5 	c #000000",
"6 	c #786D6B",
"7 	c #823526",
"8 	c #BF4028",
"9 	c #BE3F26",
"0 	c #9A3623",
"a 	c #60413B",
"b 	c #746F6E",
"c 	c #83463A",
"d 	c #B24733",
"e 	c #6F2418",
"f 	c #523834",
"g 	c #858484",
"h 	c #6F615E",
"i 	c #823324",
"j 	c #B83A21",
"k 	c #932F1D",
"l 	c #834437",
"m 	c #BA4D39",
"n 	c #782618",
"o 	c #4A3531",
"p 	c #848282",
"q 	c #67524F",
"r 	c #8A3425",
"s 	c #BC3F27",
"t 	c #B93922",
"u 	c #C24D37",
"v 	c #94301E",
"w 	c #3E231D",
"x 	c #6C6B6A",
"y 	c #593A34",
"z 	c #A34939",
"A 	c #BF432C",
"B 	c #BA3A23",
"C 	c #B53821",
"D 	c #7D2B1B",
"E 	c #5B4A46",
"F 	c #7F6A66",
"G 	c #964E40",
"H 	c #B94B37",
"I 	c #8C3322",
"J 	c #93311E",
"K 	c #BC3E26",
"L 	c #B93A22",
"M 	c #7A2A1B",
"N 	c #665551",
"O 	c #7C6B67",
"P 	c #8A473B",
"Q 	c #B64A36",
"R 	c #79291B",
"S 	c #4E403F",
"T 	c #503833",
"U 	c #953826",
"V 	c #B93921",
"W 	c #6B605F",
"X 	c #745854",
"Y 	c #995245",
"Z 	c #B64632",
"` 	c #7A2718",
" .	c #533C38",
"..	c #61423C",
"+.	c #973725",
"@.	c #BF3F26",
"#.	c #BC3A22",
"$.	c #763226",
"%.	c #857A78",
"&.	c #9D584B",
"*.	c #BB4631",
"=.	c #7F2919",
"-.	c #4C3430",
";.	c #5A3831",
">.	c #A13C29",
",.	c #C23D25",
"'.	c #9D3420",
").	c #574C4B",
"!.	c #837F7E",
"~.	c #7C3427",
"{.	c #7E2B1C",
"].	c #3B2F2C",
"^.	c #5A3B36",
"/.	c #A2402E",
"(.	c #8B3121",
"_.	c #574B49",
":.	c #7B6B69",
"<.	c #554947",
"[.	c #5F514E",
"}.	c #4A3B38",
"                                                                                                              ",
"  . +                 @                                                                                       ",
"# $ % &             * = - ;                                                                                   ",
"> , ' ) !         ~ { ] ^ /                                                                                   ",
"  ( _ : < [     } | 1 2 3 4     5 5 5 5 5                                                               5 5   ",
"  6 7 8 9 0 a b c d e f g     5 5 5     5 5                                                             5 5   ",
"    h i _ j k l m n o p     5 5 5             5 5 5 5       5 5 5 5 5         5 5 5         5 5 5 5     5 5   ",
"      q r s t u v w x       5 5 5                   5 5     5 5     5 5     5 5     5     5 5     5 5   5 5   ",
"        y z A B C D E       5 5 5               5 5 5 5     5 5     5 5   5 5 5         5 5 5 5 5 5 5   5 5   ",
"      F G H I J K L M N     5 5 5             5 5   5 5     5 5     5 5   5 5 5         5 5 5           5 5   ",
"    O P Q R S T U 9 V D W     5 5 5     5 5   5 5   5 5     5 5     5 5     5 5     5     5 5       5   5 5   ",
"  X Y Z `  .    ..+.@.#.$.      5 5 5 5 5     5 5 5 5 5     5 5     5 5       5 5 5         5 5 5 5 5   5 5   ",
"%.&.*.=.-.        ;.>.,.'.).                                                                                  ",
"!.~.{.].            ^./.(._.                                                                                  ",
"  :.<.                [.}.                                                                                    ",
"                                                                                                              "};
