/* XPM */
static char * cancel_xpm[] = {
"55 16 7 1",
"       c None",
".      c #FF0000",
"+      c #000000",
"@      c #FF0016",
"#      c #FF0008",
"$      c #ED0000",
"%      c #F30000",
"                                                       ",
" ..      .                                             ",
" ...     ..                                         ++ ",
"  ...    ..                                         ++ ",
"   @..  ..                                          ++ ",
"     .....     ++++   ++++   +++++    ++++   ++++   ++ ",
"     #...     ++  ++ ++  ++  ++  ++  ++  ++ ++  ++  ++ ",
"      $$.     ++       ++++  ++  ++  ++     ++++++  ++ ",
"     .%%.     ++      ++ ++  ++  ++  ++     ++      ++ ",
"     ....$    ++     ++  ++  ++  ++  ++     ++      ++ ",
"    ..  ..    ++  ++ ++  ++  ++  ++  ++  ++ ++  +   ++ ",
"    ..   ..    ++++   +++++  ++  ++   ++++   ++++   ++ ",
"   ..    ..                                            ",
"   ..                                                  ",
"                                                       ",
"                                                       "};
