/* XPM */
static const char * const delsub_xpm[] = {
"16 16 3 1",
" 	c None",
".	c #CD0909",
"+	c #000000",
"                ",
"                ",
".              .",
" ..          .. ",
" ++. +   + +.+  ",
"+   ..   + .  + ",
"+    +.  ..+  + ",
" ++  + ..+ +++  ",
"   + + . . +  + ",
"   + ..  +..  + ",
"+++ . +++  +.+  ",
"   .         .. ",
" ..            .",
".               ",
"                ",
"                "};
