/* XPM */
static const char * const dir_xpm[] = {
"16 16 129 2",
"  	c None",
". 	c #B5C7C7",
"+ 	c #B5C6C7",
"@ 	c #B5C6C8",
"# 	c #BDC9D3",
"$ 	c #D6DFE3",
"% 	c #CBD8DA",
"& 	c #B2C3CA",
"* 	c #94AFBC",
"= 	c #739AB4",
"- 	c #7FA4B9",
"; 	c #82A3BD",
"> 	c #4380B1",
", 	c #437FAE",
"' 	c #4381AE",
") 	c #7FA3BA",
"! 	c #2D7088",
"~ 	c #265E70",
"{ 	c #255264",
"] 	c #1D4C60",
"^ 	c #A8D7F2",
"/ 	c #C5E4FF",
"( 	c #CAE7FC",
"_ 	c #B1D9F2",
": 	c #B1DCF0",
"< 	c #71B6E4",
"[ 	c #8EAEC8",
"} 	c #DEECF3",
"| 	c #DAEAF4",
"1 	c #D5ECF0",
"2 	c #E9F3F6",
"3 	c #FCFDFF",
"4 	c #FFFEFF",
"5 	c #FFFFFF",
"6 	c #FAFCFF",
"7 	c #D0E6F2",
"8 	c #C8E3F2",
"9 	c #75B3E4",
"0 	c #7BA5BD",
"a 	c #FAFEFA",
"b 	c #FDFDFD",
"c 	c #FBFDFB",
"d 	c #F8FCF8",
"e 	c #FBFCFB",
"f 	c #F9FBFE",
"g 	c #BDDFF4",
"h 	c #BADDF0",
"i 	c #63ABDC",
"j 	c #7CA2BE",
"k 	c #F8FFF8",
"l 	c #F9FEFF",
"m 	c #FDFCFD",
"n 	c #F7FBFE",
"o 	c #F7FBF7",
"p 	c #F3F7F7",
"q 	c #F7F7FA",
"r 	c #F2F7F7",
"s 	c #AED7F0",
"t 	c #AED6EF",
"u 	c #559DDB",
"v 	c #80A4C2",
"w 	c #F7FBFB",
"x 	c #F7F9FA",
"y 	c #F2F9FA",
"z 	c #EFF4F3",
"A 	c #EBF3F3",
"B 	c #EFF4F7",
"C 	c #E5F2F6",
"D 	c #A1CDE7",
"E 	c #9DCBE8",
"F 	c #4694D4",
"G 	c #84A2BE",
"H 	c #EDF3F6",
"I 	c #E8F2F0",
"J 	c #E6EFF1",
"K 	c #E1EEEF",
"L 	c #DEECEC",
"M 	c #DEEBEB",
"N 	c #DEECEF",
"O 	c #D8E8EC",
"P 	c #89BBDD",
"Q 	c #89BAE4",
"R 	c #3488CC",
"S 	c #7BA3BD",
"T 	c #D1E2E6",
"U 	c #CCE4E1",
"V 	c #D1E4E3",
"W 	c #D1E3E5",
"X 	c #D1E3E4",
"Y 	c #CFE3E3",
"Z 	c #D3E4E3",
"` 	c #C8DDE6",
" .	c #72ADD5",
"..	c #6FAED2",
"+.	c #287AC3",
"@.	c #82A3C4",
"#.	c #B4D6D4",
"$.	c #BBD9D7",
"%.	c #BDD7DC",
"&.	c #BBD9D8",
"*.	c #BCD8D9",
"=.	c #C0DADD",
"-.	c #C5DCDE",
";.	c #B9D3DB",
">.	c #61A1CB",
",.	c #61A1C7",
"'.	c #1C70B9",
").	c #82A2C4",
"!.	c #9EC8C7",
"~.	c #A5C9CD",
"{.	c #A7CCCE",
"].	c #A9CCCE",
"^.	c #AECFCF",
"/.	c #B2D3D3",
"(.	c #B9D6D7",
"_.	c #AACBD6",
":.	c #5399C0",
"<.	c #539ABF",
"[.	c #176DAE",
"}.	c #004577",
"|.	c #00447A",
"1.	c #00437C",
"2.	c #00447B",
"3.	c #004380",
"4.	c #00447F",
"5.	c #00407F",
"6.	c #003B80",
"7.	c #003B82",
"8.	c #003C80",
"                                ",
"                                ",
"      . + @                     ",
"    # $ % & * = - ; > , '       ",
"    ) ! ~ { ] ^ / / ( _ : <     ",
"    [ } | 1 2 3 4 5 6 7 8 9     ",
"    0 a 4 b c d e c f g h i     ",
"    j k l m n o p q r s t u     ",
"    v o w x y z A B C D E F     ",
"    G H I J K L M N O P Q R     ",
"    S T U V W X Y Z `  ...+.    ",
"    @.#.$.%.&.*.=.-.;.>.,.'.    ",
"    ).!.~.{.].^./.(._.:.<.[.    ",
"      }.|.1.2.3.4.4.5.6.7.8.    ",
"                                ",
"                                "};
