/* XPM */
static char * dir_xpm[] = {
"16 16 24 1",
" 	c None",
".	c #4B4B4B",
"+	c #A86A14",
"@	c #A36209",
"#	c #9A6213",
"$	c #925808",
"%	c #955A08",
"&	c #8C5408",
"*	c #A46714",
"=	c #9D5E09",
"-	c #9E5F09",
";	c #9B5D09",
">	c #A5650D",
",	c #A4630A",
"'	c #A9A9A9",
")	c #A4640D",
"!	c #ABABAB",
"~	c #A76813",
"{	c #ACACAC",
"]	c #ADADAD",
"^	c #A8A8A8",
"/	c #A7A7A7",
"(	c #AAAAAA",
"_	c #AEAEAE",
"                ",
"                ",
"                ",
"   ....         ",
"   .+@@.        ",
"   .#$%&.....   ",
"   .*=-;>,@,.'  ",
"   .)@@@@@@@.!  ",
"   .~@@@@@@@.{  ",
"   .,@@@@@@@.'  ",
"   .@@@@@@@@.]  ",
"   ..........^  ",
"    //^(_^!_//  ",
"                ",
"                ",
"                "};
