/* XPM */
static const char * const dolby_xpm[] = {
"16 11 9 1",
" 	c None",
".	c #000000",
"+	c #C3C828",
"@	c #BCBF27",
"#	c #DBE82C",
"$	c #B5B626",
"%	c #CAD229",
"&	c #CDD62A",
"*	c #C6CD29",
"................",
".+@@###..###@@+.",
".$...%#..#%...$.",
".$....#..#....$.",
".$....&..&....$.",
".$....&..&....$.",
".$....&..&....$.",
".$....#..#....$.",
".$...%#..#%...$.",
".+@@*##..##*@@+.",
"................"};
