/* XPM */
static const char * const dvd_xpm[] = {
"16 16 110 2",
"  	c None",
". 	c #CACCD2",
"+ 	c #D3D4D6",
"@ 	c #D2D2D3",
"# 	c #D1D1D2",
"$ 	c #D1D1D3",
"% 	c #B5B8BD",
"& 	c #EDEDEC",
"* 	c #FAFAFA",
"= 	c #FBFBFB",
"- 	c #FCFCFC",
"; 	c #FFFFFF",
"> 	c #D9D9D9",
", 	c #AFB1B5",
"' 	c #C6C6C7",
") 	c #FDFDFD",
"! 	c #F7F7F7",
"~ 	c #F9F9F9",
"{ 	c #F6F6F6",
"] 	c #F8F8F8",
"^ 	c #B8B9BD",
"/ 	c #B2B4BA",
"( 	c #EAE9E9",
"_ 	c #DCDCDC",
": 	c #F3F3F3",
"< 	c #F4F4F4",
"[ 	c #A8AAAF",
"} 	c #CBCBCA",
"| 	c #CCCCCC",
"1 	c #D7D7D7",
"2 	c #E1E1E1",
"3 	c #F5F5F5",
"4 	c #EFEFEF",
"5 	c #CCCDCE",
"6 	c #D2D2D2",
"7 	c #CDCDCD",
"8 	c #D6D6D6",
"9 	c #E0E0E0",
"0 	c #E7E7E7",
"a 	c #E6E6E6",
"b 	c #E5E5E5",
"c 	c #EBEBEB",
"d 	c #E3E3E3",
"e 	c #ECECEC",
"f 	c #9C9DA5",
"g 	c #C4C5C9",
"h 	c #C1C1C1",
"i 	c #CECECE",
"j 	c #E2E2E2",
"k 	c #E8E8E8",
"l 	c #D8D8D8",
"m 	c #E4E4E3",
"n 	c #DBDBDB",
"o 	c #F2F2F2",
"p 	c #DDDDDD",
"q 	c #D4D4D4",
"r 	c #A2A4AA",
"s 	c #C9CACC",
"t 	c #C4C4C4",
"u 	c #CFCFCF",
"v 	c #E4E4E4",
"w 	c #DBDAD9",
"x 	c #727789",
"y 	c #DFDEDD",
"z 	c #C8C8C8",
"A 	c #BCBCBC",
"B 	c #BFBFBF",
"C 	c #9E9FA4",
"D 	c #C6C7C9",
"E 	c #E2E2E1",
"F 	c #999CA6",
"G 	c #C5C5C4",
"H 	c #D3D3D3",
"I 	c #C7C7C7",
"J 	c #BBBBBB",
"K 	c #BABABA",
"L 	c #C4C4C3",
"M 	c #95969A",
"N 	c #C4C5C6",
"O 	c #D8D8D7",
"P 	c #CACACA",
"Q 	c #C6C6C6",
"R 	c #B9B9B9",
"S 	c #CCCCCB",
"T 	c #939395",
"U 	c #A0A2A7",
"V 	c #E5E5E4",
"W 	c #FEFEFE",
"X 	c #C5C5C5",
"Y 	c #C2C2C2",
"Z 	c #B8B8B8",
"` 	c #BCBBBA",
" .	c #A3A6AD",
"..	c #9B9C9F",
"+.	c #F0F0F0",
"@.	c #C0C0C0",
"#.	c #7C7E84",
"$.	c #EAEAEA",
"%.	c #979798",
"&.	c #989BA2",
"*.	c #E9E9E9",
"=.	c #959596",
"-.	c #A6A8AD",
";.	c #B7B7B5",
">.	c #B4B4B3",
",.	c #8B8D92",
"'.	c #9B9DA0",
").	c #B6B6B7",
"!.	c #B0B0B1",
"~.	c #929396",
"          . + @ # $             ",
"      % & * = = = - ; > ,       ",
"    ' ) ! ~ ~ ~ { ] * = ) ^     ",
"  / ( _ : ! ] ! < ! ] ) ) = [   ",
"  } | 1 2 { ] ! : 3 - - 3 4 5   ",
"  6 7 8 9 0 ] a b ) = : c d e f ",
"g h i 1 j k 6 l m n o 0 p q 2 r ",
"s t u n v _ w   x y p 8 z A B C ",
"D 8 l 2 k d E F ^ G H I J K L M ",
"N v j k e = _ O 6 P Q A R K S T ",
"U V k c ; W 3 > ! 6 X Y R Z `  .",
"  ..+.; : : > : : : X X h @.#.  ",
"    1 = : > : : : : $.X I %.    ",
"    &.Q a > : : +.v *.< =.      ",
"        -.;.P j k p >.,.        ",
"            '.).!.~.            "};
