/* XPM */
static const char * const eq_xpm[] = {
"16 16 16 1",
" 	c None",
".	c #000000",
"+	c #FE3700",
"@	c #FE8200",
"#	c #FEB900",
"$	c #FFBA00",
"%	c #FEF100",
"&	c #FFF100",
"*	c #E8FE00",
"=	c #E9FF00",
"-	c #95FE00",
";	c #96FF00",
">	c #48FE00",
",	c #49FF00",
"'	c #23FF00",
")	c #24FF00",
" .............. ",
"................",
".....++.........",
".....@@.@@@.....",
".....@@.@@@.....",
".##$.##.###.....",
".###.##.###.....",
".%%&.%%.%%%.....",
".**=.**.***.**=.",
".***.**.***.***.",
".--;.--.---.--;.",
".---.--.---.---.",
".>>,.>>.>>>.>>,.",
".'').''.'''.'').",
".'''.''.'''.'''.",
"................"};
