/* XPM */
static char * error_xpm[] = {
"43 43 973 2",
"  	c None",
". 	c #AF2616",
"+ 	c #BF2614",
"@ 	c #B02414",
"# 	c #AD2413",
"$ 	c #AD2514",
"% 	c #B22717",
"& 	c #B92918",
"* 	c #C32B1A",
"= 	c #C92D1B",
"- 	c #CC2E1C",
"; 	c #CD2F1C",
"> 	c #CA2D1B",
", 	c #A22112",
"' 	c #961F11",
") 	c #952011",
"! 	c #9F2213",
"~ 	c #A62415",
"{ 	c #A82516",
"] 	c #AA2718",
"^ 	c #AC2719",
"/ 	c #B0291A",
"( 	c #B72B1B",
"_ 	c #BE2C1D",
": 	c #B72A1C",
"< 	c #F93216",
"[ 	c #BB2412",
"} 	c #B22311",
"| 	c #AC2211",
"1 	c #A92211",
"2 	c #A82212",
"3 	c #A82312",
"4 	c #A32112",
"5 	c #9F2112",
"6 	c #9F2212",
"7 	c #A22314",
"8 	c #A42415",
"9 	c #A62516",
"0 	c #A72516",
"a 	c #A62617",
"b 	c #A32518",
"c 	c #A52618",
"d 	c #A72718",
"e 	c #AA281A",
"f 	c #AE2A1C",
"g 	c #B02A1B",
"h 	c #AD291C",
"i 	c #F03017",
"j 	c #AA2111",
"k 	c #A82211",
"l 	c #A72212",
"m 	c #9F2111",
"n 	c #9D2112",
"o 	c #A12213",
"p 	c #A62414",
"q 	c #A72517",
"r 	c #A62517",
"s 	c #A42518",
"t 	c #A52719",
"u 	c #A3271A",
"v 	c #A5281B",
"w 	c #A8291B",
"x 	c #AA2A1C",
"y 	c #A9291D",
"z 	c #F23016",
"A 	c #B82311",
"B 	c #AC2110",
"C 	c #A92111",
"D 	c #A82111",
"E 	c #A62212",
"F 	c #982011",
"G 	c #9B2113",
"H 	c #A42314",
"I 	c #A62719",
"J 	c #A82A1D",
"K 	c #A82B1D",
"L 	c #A6281A",
"M 	c #A42719",
"N 	c #A3271B",
"O 	c #A4281B",
"P 	c #A62A1C",
"Q 	c #A62A1D",
"R 	c #A4291D",
"S 	c #F33116",
"T 	c #B32310",
"U 	c #AA2110",
"V 	c #A82110",
"W 	c #A82313",
"X 	c #A52313",
"Y 	c #9D2113",
"Z 	c #9F2113",
"` 	c #A52414",
" .	c #A7291B",
"..	c #AB3326",
"+.	c #AC3427",
"@.	c #A72D1F",
"#.	c #A5281A",
"$.	c #A5291B",
"%.	c #A2281C",
"&.	c #A2291D",
"*.	c #A42A1D",
"=.	c #A22A1D",
"-.	c #99271C",
";.	c #F03116",
">.	c #B12311",
",.	c #A92210",
"'.	c #A82314",
").	c #A72414",
"!.	c #A72415",
"~.	c #A52415",
"{.	c #A02314",
"].	c #9D2214",
"^.	c #A12416",
"/.	c #A52516",
"(.	c #A62619",
"_.	c #AA3326",
":.	c #AB3529",
"<.	c #A82F22",
"[.	c #A4291C",
"}.	c #9C281C",
"|.	c #9E291D",
"1.	c #A1291E",
"2.	c #9E2A1E",
"3.	c #89241A",
"4.	c #F33217",
"5.	c #B52412",
"6.	c #A82112",
"7.	c #AA291A",
"8.	c #AC2F20",
"9.	c #AA2C1E",
"0.	c #9C2316",
"a.	c #9B2416",
"b.	c #A12617",
"c.	c #A6271A",
"d.	c #A93226",
"e.	c #AA362A",
"f.	c #A83327",
"g.	c #A22A1E",
"h.	c #A3291D",
"i.	c #A02A1F",
"j.	c #A02A20",
"k.	c #99291E",
"l.	c #7A2119",
"m.	c #5D1914",
"n.	c #BD2412",
"o.	c #A92110",
"p.	c #A82414",
"q.	c #AB2B1B",
"r.	c #AA2A1B",
"s.	c #A9291A",
"t.	c #AD3224",
"u.	c #A72617",
"v.	c #A52617",
"w.	c #A12517",
"x.	c #9C2417",
"y.	c #9A2417",
"z.	c #9D2518",
"A.	c #A2271A",
"B.	c #A6281B",
"C.	c #A62C1F",
"D.	c #A62F22",
"E.	c #A73125",
"F.	c #AA372C",
"G.	c #A52D20",
"H.	c #A12B20",
"I.	c #A02B20",
"J.	c #88251C",
"K.	c #772119",
"L.	c #F32E16",
"M.	c #AD2211",
"N.	c #A92212",
"O.	c #A32B1C",
"P.	c #A43021",
"Q.	c #A72B1C",
"R.	c #AB2E20",
"S.	c #AC3224",
"T.	c #A92C1E",
"U.	c #A62618",
"V.	c #A32619",
"W.	c #9C2518",
"X.	c #982417",
"Y.	c #9A2518",
"Z.	c #A1271A",
"`.	c #A42B1E",
" +	c #A73327",
".+	c #A9382D",
"++	c #A73328",
"@+	c #A42D22",
"#+	c #A32B20",
"$+	c #992A20",
"%+	c #89261D",
"&+	c #D42A14",
"*+	c #B52312",
"=+	c #A72211",
"-+	c #A62213",
";+	c #A72313",
">+	c #A92414",
",+	c #A52314",
"'+	c #941E11",
")+	c #9B2A1C",
"!+	c #A73022",
"~+	c #AB2D1F",
"{+	c #A72719",
"]+	c #AB3224",
"^+	c #A92D20",
"/+	c #9D2619",
"(+	c #942417",
"_+	c #952418",
":+	c #9D271B",
"<+	c #A2291C",
"[+	c #A42A1E",
"}+	c #A73429",
"|+	c #A8392E",
"1+	c #A7352A",
"2+	c #A32D22",
"3+	c #A02C20",
"4+	c #A12C21",
"5+	c #9F2C22",
"6+	c #83241C",
"7+	c #5C1A13",
"8+	c #C22614",
"9+	c #A42212",
"0+	c #991F11",
"a+	c #A92415",
"b+	c #9D2314",
"c+	c #A72416",
"d+	c #AB3325",
"e+	c #AB3225",
"f+	c #AB3427",
"g+	c #A83022",
"h+	c #9F271A",
"i+	c #912519",
"j+	c #8F2419",
"k+	c #98261A",
"l+	c #A1291D",
"m+	c #A42B1F",
"n+	c #A32B1F",
"o+	c #A63429",
"p+	c #A93A30",
"q+	c #A7372C",
"r+	c #A22D22",
"s+	c #A12D22",
"t+	c #9F2D22",
"u+	c #90291F",
"v+	c #7B221C",
"w+	c #E12E17",
"x+	c #B62513",
"y+	c #A61D11",
"z+	c #A31911",
"A+	c #A41912",
"B+	c #A11812",
"C+	c #971711",
"D+	c #9E1913",
"E+	c #A41B14",
"F+	c #A31B15",
"G+	c #A11B15",
"H+	c #A21C15",
"I+	c #A21C16",
"J+	c #A21D17",
"K+	c #A4211B",
"L+	c #A72A25",
"M+	c #A72A26",
"N+	c #A9312D",
"O+	c #AA332E",
"P+	c #A52822",
"Q+	c #A1201A",
"R+	c #A1211B",
"S+	c #A0211B",
"T+	c #9B1F1A",
"U+	c #941E19",
"V+	c #8F1D19",
"W+	c #931E1A",
"X+	c #9B211D",
"Y+	c #A0241F",
"Z+	c #A0231F",
"`+	c #9F2520",
" @	c #A12B27",
".@	c #A5332F",
"+@	c #A6382D",
"@@	c #A23124",
"#@	c #A12E22",
"$@	c #9A2C22",
"%@	c #7E251D",
"&@	c #340F0C",
"*@	c #CD2916",
"=@	c #AD2213",
"-@	c #B84B16",
";@	c #C76D1A",
">@	c #CC771B",
",@	c #CB751B",
"'@	c #C7751B",
")@	c #C8751D",
"!@	c #CA761E",
"~@	c #C9761E",
"{@	c #C9751F",
"]@	c #C87621",
"^@	c #C87721",
"/@	c #C77621",
"(@	c #C77522",
"_@	c #C97828",
":@	c #C87928",
"<@	c #CA7F31",
"[@	c #CB843A",
"}@	c #CA803A",
"|@	c #C77A2F",
"1@	c #C47728",
"2@	c #C37527",
"3@	c #C3752A",
"4@	c #C37729",
"5@	c #C07329",
"6@	c #B97029",
"7@	c #B56D28",
"8@	c #B66C28",
"9@	c #BE722B",
"0@	c #C0742E",
"a@	c #C0742D",
"b@	c #C07730",
"c@	c #C07734",
"d@	c #B7602F",
"e@	c #A53724",
"f@	c #A02B22",
"g@	c #9D2E24",
"h@	c #84271F",
"i@	c #3D120E",
"j@	c #BF2616",
"k@	c #A81E13",
"l@	c #CB791B",
"m@	c #E5B421",
"n@	c #E9BB23",
"o@	c #E8B922",
"p@	c #E8B923",
"q@	c #E6B824",
"r@	c #E5B825",
"s@	c #E4B727",
"t@	c #E3B829",
"u@	c #E3B72A",
"v@	c #E2B62A",
"w@	c #E1B22A",
"x@	c #E0B42A",
"y@	c #E0B730",
"z@	c #E1B93A",
"A@	c #E1BC44",
"B@	c #E1BA3D",
"C@	c #DFB738",
"D@	c #DEB434",
"E@	c #DDB333",
"F@	c #DDB434",
"G@	c #DDB135",
"H@	c #DAAF35",
"I@	c #D4AB33",
"J@	c #D0A833",
"K@	c #D5AC35",
"L@	c #D7AF38",
"M@	c #D8AF39",
"N@	c #D8B039",
"O@	c #D5AB39",
"P@	c #CA8E32",
"Q@	c #A93F26",
"R@	c #9E2923",
"S@	c #9E2E25",
"T@	c #8B2921",
"U@	c #4A1611",
"V@	c #B82616",
"W@	c #A61C13",
"X@	c #D2861D",
"Y@	c #E8BA23",
"Z@	c #E3AF22",
"`@	c #E1AF26",
" #	c #E1AE25",
".#	c #E0AD24",
"+#	c #E0AD26",
"@#	c #DFAE28",
"##	c #DEAD29",
"$#	c #DDAC2A",
"%#	c #DDAC2B",
"&#	c #DCAD2D",
"*#	c #DBAC2D",
"=#	c #DAAB30",
"-#	c #D9AD37",
";#	c #D9AD38",
">#	c #DBAD3E",
",#	c #DAAD3A",
"'#	c #D9AB33",
")#	c #D8A633",
"!#	c #D7A734",
"~#	c #D5A635",
"{#	c #D2A436",
"]#	c #D4A637",
"^#	c #D4A638",
"/#	c #D3A639",
"(#	c #D4A83B",
"_#	c #D4AA3A",
":#	c #AB4729",
"<#	c #9E2924",
"[#	c #9F2F25",
"}#	c #8F2A22",
"|#	c #531913",
"1#	c #B22515",
"2#	c #A51D13",
"3#	c #D0851E",
"4#	c #E7B823",
"5#	c #E1AE24",
"6#	c #E2B231",
"7#	c #E1AF2A",
"8#	c #E0AD25",
"9#	c #DDAC29",
"0#	c #DBAD2E",
"a#	c #DBAA2F",
"b#	c #D9A82F",
"c#	c #D4A82E",
"d#	c #D1A22F",
"e#	c #D7A83A",
"f#	c #DAAC40",
"g#	c #D9AB3D",
"h#	c #D6A735",
"i#	c #D5A736",
"j#	c #D3A638",
"k#	c #D2A63B",
"l#	c #D2A63C",
"m#	c #D2A73C",
"n#	c #AB472A",
"o#	c #9E2925",
"p#	c #9F2F26",
"q#	c #912C23",
"r#	c #5D1D16",
"s#	c #150807",
"t#	c #AF2515",
"u#	c #A51D14",
"v#	c #D1851E",
"w#	c #E6B823",
"x#	c #E0B02E",
"y#	c #E0B234",
"z#	c #DFB031",
"A#	c #DEAD28",
"B#	c #DDAD2B",
"C#	c #DBAC2E",
"D#	c #DAAC2E",
"E#	c #DAAC2F",
"F#	c #DAAB2F",
"G#	c #D8A731",
"H#	c #D3A331",
"I#	c #D1A232",
"J#	c #D3A434",
"K#	c #D7A838",
"L#	c #D8AC3F",
"M#	c #D5A838",
"N#	c #D3A536",
"O#	c #D3A637",
"P#	c #CA9F37",
"Q#	c #C79D38",
"R#	c #C69D39",
"S#	c #C69E3A",
"T#	c #C69F3A",
"U#	c #A8452B",
"V#	c #9E2A25",
"W#	c #9D3026",
"X#	c #902C24",
"Y#	c #5F1D17",
"Z#	c #AE2516",
"`#	c #A51E15",
" $	c #D0851F",
".$	c #E5B725",
"+$	c #DFAE27",
"@$	c #DFAD26",
"#$	c #DFAF2A",
"$$	c #DFAF32",
"%$	c #DFAF37",
"&$	c #DFAF31",
"*$	c #DDAD2C",
"=$	c #DCAC2C",
"-$	c #D9AA30",
";$	c #DAAC31",
">$	c #D8A733",
",$	c #D6A633",
"'$	c #D2A332",
")$	c #CFA131",
"!$	c #D0A233",
"~$	c #D5A83A",
"{$	c #D7AC42",
"]$	c #D6AB41",
"^$	c #D4A93F",
"/$	c #D4A93E",
"($	c #CEA23A",
"_$	c #CCA13A",
":$	c #CCA13B",
"<$	c #CCA33C",
"[$	c #CCA33D",
"}$	c #A9472B",
"|$	c #9D2A26",
"1$	c #9D3027",
"2$	c #8D2B24",
"3$	c #591B17",
"4$	c #130706",
"5$	c #AE2517",
"6$	c #D08620",
"7$	c #E5B826",
"8$	c #DFAD27",
"9$	c #DFAE29",
"0$	c #DEAC2C",
"a$	c #DEAD33",
"b$	c #DFB139",
"c$	c #DDAF34",
"d$	c #DBAD2F",
"e$	c #DAAA30",
"f$	c #D9AA32",
"g$	c #D6A832",
"h$	c #D5A632",
"i$	c #D8A734",
"j$	c #D6A634",
"k$	c #D1A334",
"l$	c #CDA033",
"m$	c #CEA134",
"n$	c #D3A73D",
"o$	c #D4A940",
"p$	c #D5AB43",
"q$	c #D5AB44",
"r$	c #D3A73F",
"s$	c #D1A63D",
"t$	c #D1A53C",
"u$	c #D1A73E",
"v$	c #D2A940",
"w$	c #AA482C",
"x$	c #9C3027",
"y$	c #882A23",
"z$	c #4D1814",
"A$	c #100605",
"B$	c #B02618",
"C$	c #A51F16",
"D$	c #CD8020",
"E$	c #E2B527",
"F$	c #E0B129",
"G$	c #E0B028",
"H$	c #DFAF29",
"I$	c #DEAE2A",
"J$	c #DEAF2C",
"K$	c #DFB338",
"L$	c #DEB33C",
"M$	c #DDB035",
"N$	c #DBAE2F",
"O$	c #DAAD30",
"P$	c #DAAB32",
"Q$	c #DBAE33",
"R$	c #D2A531",
"S$	c #CD9F31",
"T$	c #D6A834",
"U$	c #D8A934",
"V$	c #D7A935",
"W$	c #D5A836",
"X$	c #D1A536",
"Y$	c #CBA135",
"Z$	c #CEA336",
"`$	c #D2A638",
" %	c #D4A93D",
".%	c #D4AC45",
"+%	c #D4AC49",
"@%	c #D2A941",
"#%	c #D0A73E",
"$%	c #D0A83F",
"%%	c #CEA33F",
"&%	c #A9472D",
"*%	c #9E2B27",
"=%	c #993028",
"-%	c #802822",
";%	c #401410",
">%	c #0B0403",
",%	c #B42719",
"'%	c #A52217",
")%	c #BF661E",
"!%	c #D79D26",
"~%	c #DEAC29",
"{%	c #DDAB2A",
"]%	c #DCAC2B",
"^%	c #DBAB2E",
"/%	c #DCAE38",
"(%	c #DCB03C",
"_%	c #DBAC38",
":%	c #D9A731",
"<%	c #D9AB32",
"[%	c #D9A833",
"}%	c #D1A132",
"|%	c #C99B31",
"1%	c #CB9D31",
"2%	c #D5A636",
"3%	c #D4A537",
"4%	c #D3A537",
"5%	c #D0A337",
"6%	c #CBA037",
"7%	c #CDA137",
"8%	c #D0A339",
"9%	c #D1A53E",
"0%	c #D2A948",
"a%	c #D2AA49",
"b%	c #D0A642",
"c%	c #CFA63E",
"d%	c #CDA13F",
"e%	c #C28238",
"f%	c #A7412C",
"g%	c #9D2D29",
"h%	c #932E27",
"i%	c #79261F",
"j%	c #2C0D0B",
"k%	c #030202",
"l%	c #BA2919",
"m%	c #B82A1A",
"n%	c #A72618",
"o%	c #A62E19",
"p%	c #AB361A",
"q%	c #AE3A1B",
"r%	c #AD3A1C",
"s%	c #AD3A1D",
"t%	c #AD3B1D",
"u%	c #A93A1D",
"v%	c #A3391D",
"w%	c #A3381D",
"x%	c #AB3B20",
"y%	c #B04329",
"z%	c #B1482F",
"A%	c #AF452C",
"B%	c #AB3D22",
"C%	c #AA3C22",
"D%	c #AA3C23",
"E%	c #A63B23",
"F%	c #A03A21",
"G%	c #A13C23",
"H%	c #A83E25",
"I%	c #A63E25",
"J%	c #A03C24",
"K%	c #A13C25",
"L%	c #A53D26",
"M%	c #A43D26",
"N%	c #A43E26",
"O%	c #A63F29",
"P%	c #A8412C",
"Q%	c #A7412B",
"R%	c #AA4933",
"S%	c #A6402B",
"T%	c #A43C2B",
"U%	c #9F3329",
"V%	c #9C3129",
"W%	c #8E2D26",
"X%	c #67201B",
"Y%	c #150606",
"Z%	c #010202",
"`%	c #BD2B1B",
" &	c #C32D1C",
".&	c #AC281A",
"+&	c #A32418",
"@&	c #A22218",
"#&	c #A32219",
"$&	c #A2221A",
"%&	c #A3231A",
"&&	c #A2231B",
"*&	c #A1231B",
"=&	c #9D231B",
"-&	c #95201A",
";&	c #96211A",
">&	c #9C251E",
",&	c #A32D26",
"'&	c #A6312B",
")&	c #A1261E",
"!&	c #A1261F",
"~&	c #A12720",
"{&	c #A12820",
"]&	c #9C2720",
"^&	c #90251E",
"/&	c #92251F",
"(&	c #9A2821",
"_&	c #9D2922",
":&	c #962722",
"<&	c #9C2924",
"[&	c #9C2A25",
"}&	c #9E2B25",
"|&	c #9E2B26",
"1&	c #9F2F2A",
"2&	c #A1332F",
"3&	c #A13530",
"4&	c #9E2E28",
"5&	c #9E3129",
"6&	c #993129",
"7&	c #822A23",
"8&	c #511A16",
"9&	c #090303",
"0&	c #000202",
"a&	c #C02C1C",
"b&	c #AE291B",
"c&	c #A4271A",
"d&	c #A52A1D",
"e&	c #9D291C",
"f&	c #96271B",
"g&	c #9A271C",
"h&	c #9F2B20",
"i&	c #A13126",
"j&	c #A23025",
"k&	c #A22C21",
"l&	c #A22D23",
"m&	c #982C21",
"n&	c #8C291F",
"o&	c #902A20",
"p&	c #992D22",
"q&	c #982D23",
"r&	c #A02F26",
"s&	c #A03026",
"t&	c #9D2F26",
"u&	c #9E3026",
"v&	c #9F3128",
"w&	c #A03128",
"x&	c #A1352C",
"y&	c #A33B32",
"z&	c #A0382F",
"A&	c #9E332B",
"B&	c #6D231E",
"C&	c #31100D",
"D&	c #A02518",
"E&	c #A9291B",
"F&	c #A3281B",
"G&	c #A5291C",
"H&	c #A52B1E",
"I&	c #9D291D",
"J&	c #9C291E",
"K&	c #9C281E",
"L&	c #9C2A1F",
"M&	c #A2372D",
"N&	c #A03126",
"O&	c #A02D22",
"P&	c #A22E23",
"Q&	c #A42F24",
"R&	c #912A20",
"S&	c #88281F",
"T&	c #8F2B21",
"U&	c #9A2E25",
"V&	c #972D24",
"W&	c #9E2F26",
"X&	c #A13127",
"Y&	c #9F3026",
"Z&	c #9C2F26",
"`&	c #9E3128",
" *	c #A03229",
".*	c #9F3229",
"+*	c #9F342B",
"@*	c #A23F37",
"#*	c #9C362F",
"$*	c #852C25",
"%*	c #501A16",
"&*	c #0E0504",
"**	c #6D1C12",
"=*	c #AD2A1C",
"-*	c #AE2B1D",
";*	c #A6291C",
">*	c #A42C20",
",*	c #9D2B1F",
"'*	c #9C2A1E",
")*	c #A32C22",
"!*	c #A3372D",
"~*	c #A2392F",
"{*	c #9E3127",
"]*	c #9C2B21",
"^*	c #9F2D23",
"/*	c #A12F24",
"(*	c #9C2D23",
"_*	c #9B2D24",
":*	c #9F3025",
"<*	c #A13026",
"[*	c #982D25",
"}*	c #A13128",
"|*	c #9F322A",
"1*	c #9F332A",
"2*	c #9F342C",
"3*	c #9F3E36",
"4*	c #963B35",
"5*	c #6D2823",
"6*	c #30100D",
"7*	c #000000",
"8*	c #020303",
"9*	c #8D2316",
"0*	c #A4291B",
"a*	c #AC2B1D",
"b*	c #A32C20",
"c*	c #992B1F",
"d*	c #9B2B20",
"e*	c #A6392E",
"f*	c #A33329",
"g*	c #9E2B21",
"h*	c #9D2E23",
"i*	c #A02E24",
"j*	c #A02F25",
"k*	c #A03127",
"l*	c #972E26",
"m*	c #9E3229",
"n*	c #9F332B",
"o*	c #9D332B",
"p*	c #93312A",
"q*	c #7B2A24",
"r*	c #3D1512",
"s*	c #0A0404",
"t*	c #A22A1F",
"u*	c #A32C21",
"v*	c #A32D21",
"w*	c #A12D21",
"x*	c #9D2C21",
"y*	c #982B20",
"z*	c #A23026",
"A*	c #A5352B",
"B*	c #A3342A",
"C*	c #A02E23",
"D*	c #A23027",
"E*	c #982F27",
"F*	c #9A3028",
"G*	c #A0332A",
"H*	c #9E332A",
"I*	c #9D322B",
"J*	c #96312A",
"K*	c #812A24",
"L*	c #4D1915",
"M*	c #190807",
"N*	c #000101",
"O*	c #661A12",
"P*	c #842217",
"Q*	c #AA2C1F",
"R*	c #A12A1F",
"S*	c #A12B1F",
"T*	c #A22B20",
"U*	c #9D2D22",
"V*	c #9C2D22",
"W*	c #A02C22",
"X*	c #A5362C",
"Y*	c #A63C32",
"Z*	c #992D24",
"`*	c #9C2E25",
" =	c #9F3027",
".=	c #A03129",
"+=	c #A13229",
"@=	c #973028",
"#=	c #9C312A",
"$=	c #97312A",
"%=	c #842C26",
"&=	c #5B1E1A",
"*=	c #200B09",
"==	c #040202",
"-=	c #030303",
";=	c #571610",
">=	c #8D241A",
",=	c #9F2A1F",
"'=	c #A12B21",
")=	c #A22D21",
"!=	c #A22F24",
"~=	c #A2342A",
"{=	c #A33A30",
"]=	c #9E3A31",
"^=	c #8E2D25",
"/=	c #932C24",
"(=	c #9B3129",
"_=	c #973029",
":=	c #983129",
"<=	c #9C332B",
"[=	c #95302A",
"}=	c #822B25",
"|=	c #5E1F1B",
"1=	c #280E0C",
"2=	c #050202",
"3=	c #40110C",
"4=	c #88241B",
"5=	c #98291E",
"6=	c #9E2B20",
"7=	c #A02C21",
"8=	c #A22E24",
"9=	c #A12F25",
"0=	c #9C2D24",
"a=	c #9A3027",
"b=	c #A13B32",
"c=	c #913730",
"d=	c #953029",
"e=	c #A0322A",
"f=	c #9C332A",
"g=	c #99322A",
"h=	c #8F2F28",
"i=	c #7A2823",
"j=	c #541C18",
"k=	c #260C0A",
"l=	c #280C09",
"m=	c #6A1D15",
"n=	c #92281E",
"o=	c #9F2B21",
"p=	c #9F2C21",
"q=	c #A12D23",
"r=	c #983028",
"s=	c #9B3932",
"t=	c #A23D34",
"u=	c #A2382F",
"v=	c #9F3129",
"w=	c #9E322A",
"x=	c #9D322A",
"y=	c #9A322A",
"z=	c #882E26",
"A=	c #6E2520",
"B=	c #3F1512",
"C=	c #160706",
"D=	c #030101",
"E=	c #020202",
"F=	c #180605",
"G=	c #41120E",
"H=	c #782219",
"I=	c #9C2C22",
"J=	c #9D2D23",
"K=	c #9E2E24",
"L=	c #A02E25",
"M=	c #A13025",
"N=	c #A03027",
"O=	c #A43D35",
"P=	c #A33A31",
"Q=	c #9E322B",
"R=	c #9B322A",
"S=	c #943028",
"T=	c #892D26",
"U=	c #772721",
"V=	c #571D18",
"W=	c #280E0B",
"X=	c #0E0505",
"Y=	c #0E0403",
"Z=	c #2C0D09",
"`=	c #4E1611",
" -	c #681E17",
".-	c #81251D",
"+-	c #902A21",
"@-	c #982D24",
"#-	c #9B2E25",
"$-	c #9D3028",
"%-	c #9D3127",
"&-	c #9C352E",
"*-	c #9A342C",
"=-	c #952F27",
"--	c #8D2D27",
";-	c #6C231E",
">-	c #511B17",
",-	c #36120F",
"'-	c #1E0A09",
")-	c #030201",
"!-	c #070302",
"~-	c #230B09",
"{-	c #42130F",
"]-	c #5C1B15",
"^-	c #6D201A",
"/-	c #76231C",
"(-	c #7C251F",
"_-	c #832821",
":-	c #872922",
"<-	c #872A23",
"[-	c #822923",
"}-	c #7C2721",
"|-	c #752520",
"1-	c #6A221D",
"2-	c #5B1E19",
"3-	c #471714",
"4-	c #30100E",
"5-	c #150806",
"6-	c #010303",
"7-	c #080303",
"8-	c #1A0807",
"9-	c #2A0D0A",
"0-	c #39110E",
"a-	c #441511",
"b-	c #4D1813",
"c-	c #521A15",
"d-	c #511A15",
"e-	c #491714",
"f-	c #3F1411",
"g-	c #010101",
"h-	c #040303",
"i-	c #050303",
"j-	c #060303",
"k-	c #070303",
"l-	c #080403",
"m-	c #070403",
"n-	c #040302",
"                                                                                      ",
"                                                                                      ",
"                              . . . . . . . . . . . . .                               ",
"                        . . . . . + . . @ # # $ . % & * = - ;                         ",
"                    > . . . . . . . . . , ' ) ! ~ { { ] ^ / ( _ :                     ",
"                  < . . [ } | 1 2 3 2 4 5 6 7 8 9 0 a b c d e f g h                   ",
"                i . . . j 1 k 2 l l m n o p { { q 9 r s c t u v w x y                 ",
"              z . A B C D k 2 2 l E F G H { 0 q r I J K L M N v O P Q R               ",
"            S . T U V C k 2 W W W X Y Z ` 9 r a r  ...+.@.#.v $.%.&.*.=.-.            ",
"          ;.> >.U ,.1 2 2 W W '.).!.~.{.].^./.a (.I #._.:.<.#.[.}.|.&.1.2.3.          ",
"        4.> 5.U 1 k 2 3 2 6.7.8.9.!.!./.^.0.a.b.t c.#.P d.e.f.f.g.h.g.i.j.k.l.m.      ",
"      > . n.| o.k 2 2 p.q.r.s.9.t.9.u.9 v.w.x.y.z.A.B.v C.D.E.F.f.G.g.H.I.j.J.K.      ",
"      L.. M.1 1 N.3 3 !.O.P.Q.s.R.S.T.I U.d V.W.X.Y.Z.[.[.O `. +.+++@+#+I.I.$+%+      ",
"    > &+*+D =+l -+;+>+,+'+)+!+~+{+]++.^+I I #.v /+(+_+:+<+*.[+[+}+|+1+2+3+4+5+6+7+    ",
"    > 8+| =+l 9+0+o a+~.b+/.c+w d+e+..f+g+t v $.$.h+i+j+k+l+m+n+n+o+p+q+r+s+t+u+v+    ",
"    w+x+y+z+A+B+C+D+E+F+G+H+I+J+K+L+M+N+O+P+Q+Q+R+S+T+U+V+W+X+Y+Z+`+ @.@+@@@#@$@%@&@  ",
"  > *@=@-@;@>@,@'@)@!@~@{@]@^@/@(@_@:@<@[@}@|@1@2@3@4@5@6@7@8@9@0@a@b@c@d@e@f@g@h@i@  ",
"  > j@k@l@m@n@o@p@q@r@r@s@t@t@u@v@w@x@y@z@A@B@C@D@E@F@G@H@I@J@K@L@M@N@O@P@Q@R@S@T@U@  ",
"  > V@W@X@Y@Z@Z@`@ #.#+#@#@###$#%#$#&#*#=#-#;#>#,#'#)#!#!#!#~#{#]#^#/#(#_#:#<#[#}#|#  ",
"  > 1#2#3#4#Z@5#6#7#8#@#####9#%#&#&#0#a#b#c#d#e#f#g#!#h#h#i#]#j#j#/#k#l#m#n#o#p#q#r#s#",
"  > t#u#v#w#5#8#+#x#y#z#A#9#B#&#&#C#D#E#F#G#H#I#J#K#L#L#M#N#O#j#P#Q#R#S#T#U#V#W#X#Y#s#",
"  > Z#`# $.$8#+$@$#$$$%$&$*$=$C#C#D#-$;$;$>$,$'$)$!$~${$]$^$/$j#($_$:$<$[$}$|$1$2$3$4$",
"  > 5$`#6$7$8$@#9$A#0$a$b$c$d$*#E#e$f$g$h$i$i$j$k$l$m$n$o$p$q$r$s$t$s$u$v$w$|$x$y$z$A$",
"  > B$C$D$E$F$G$H$I$I$J$K$L$M$N$O$P$Q$R$S$T$U$V$W$X$Y$Z$`$ %.%+%@%u$#%$%%%&%*%=%-%;%>%",
"  > ,%'%)%!%H$~%{%{%]%*#^%/%(%_%:%<%[%}%|%1%~#2%3%4%5%6%7%8%9%0%a%b%c%d%e%f%g%h%i%j%k%",
"  l%m%n%o%p%q%r%s%t%u%v%w%x%y%z%A%B%C%D%E%F%G%H%I%J%K%L%M%N%O%P%Q%R%R%S%T%U%V%W%X%Y%Z%",
"  `% &.&+&@&#&$&%&&&*&=&-&;&>&,&'&)&!&~&{&]&^&/&(&_&:&<#R@<&[&}&|&1&2&3&4&5&6&7&8&9&0&",
"    a&b&L c&O v $.[.d&*.e&f&g&h&i&j&k&k&2+l&m&n&o&p&q&g@r&s&t&u&v&w&x&y&z&A&h%B&C&k%0&",
"    D&b&E&F&F&G&[.*.[+[+H&I&J&K&L&M&N&O&s+P&Q&R&S&T&U&V&W&X&Y&Z&`& *.*+*@*#*$*%*&*k%  ",
"    **=*-*;*G&[.*.[+[+`.n+>*,*'*)*!*~*{*]*^*/*(*_*:*<*[*x$}*w&1$5&|*1*2*3*4*5*6*7*8*  ",
"      9*0*a*h.l+[+`.`.n+b*>*,*c*d*P&e*f*g*h*i*j*<*<*k*l*l*x$ *|*m*1*n*o*p*q*r*s*Z%8*  ",
"        [.J *.1.t*n+n+b*u*v*w*x*y*d*z*A*B*C*j&D*X&k*w&`&E*F*G*n*1*H*I*J*K*L*M*N*8*    ",
"        O*P*Q*t*R*S*T*u*u*v*2+s+U*V*W*X*Y*U%Z*`* =w&.=+==%@=#=n*n*o*$=%=&=*===N*-=    ",
"          ;=>=,=i.I.'=u*)=r+P&P&P&!=/*~={=]=^=/=Z&+= * *(=_=:=n*<=[=}=|=1=2=N*-=-=    ",
"            3=4=5=6=I.7=7=P&8=8=/*9=z*0=a=b=c=d=1$+=e=1*n*A&f=g=h=i=j=k=N*N*8*8*      ",
"              l=m=n=o=p=s+q=C*i*9=<*<*<*W#r=s=t=u=v=1*w=x=y=d=z=A=B=C=D=E=8*8*        ",
"                F=G=H=$+I=J=K=L=M=M=s&N= =x$1*O=P=.*Q=R=S=T=U=V=W=X=k%N*8*            ",
"                  Y=Z=`= -.-+-@-#-`*W#1$$-%-x$&-*-=---K*;->-,-'-)-N*Z%-=8*            ",
"                    7*!-~-{-]-^-/-(-_-:-y$<-[-}-|-1-2-3-4-5-N*7*Z%E=E=-=              ",
"                        6-N*7-8-9-0-a-b-c-d-e-f-C&*=X=g-N*Z%E=E=8*                    ",
"                            -=h-i-j-k-l-l-l-m-j-i-n-k%E=E=E=8*                        ",
"                                    0&N*7*N*0&N*N*8*8*                                ",
"                                                                                      "};
