/* XPM */
static const char * const error_xpm[] = {
"48 47 494 2",
"  	c None",
". 	c #A56152",
"+ 	c #8B5447",
"@ 	c #7D4C41",
"# 	c #77493F",
"$ 	c #74473E",
"% 	c #73443A",
"& 	c #714238",
"* 	c #704137",
"= 	c #723F35",
"- 	c #753D32",
"; 	c #793D31",
"> 	c #8D5A4D",
", 	c #734E45",
"' 	c #724C43",
") 	c #915E52",
"! 	c #AF6B5B",
"~ 	c #C97765",
"{ 	c #DD826F",
"] 	c #E37E6A",
"^ 	c #DE7A66",
"/ 	c #D07361",
"( 	c #B76353",
"_ 	c #995244",
": 	c #794035",
"< 	c #64332A",
"[ 	c #643026",
"} 	c #8F5D51",
"| 	c #6E4D45",
"1 	c #865C51",
"2 	c #C07D6C",
"3 	c #E98A75",
"4 	c #E57259",
"5 	c #E05C3F",
"6 	c #DD4D2E",
"7 	c #D94123",
"8 	c #D73B1B",
"9 	c #D5391A",
"0 	c #D4391A",
"a 	c #D43C1F",
"b 	c #D44227",
"c 	c #D54B31",
"d 	c #C74D38",
"e 	c #914031",
"f 	c #672B21",
"g 	c #592219",
"h 	c #A7695A",
"i 	c #6F5048",
"j 	c #7E564C",
"k 	c #C5806F",
"l 	c #EA866E",
"m 	c #E25D3E",
"n 	c #DC411F",
"o 	c #DB3E1C",
"p 	c #D93D1B",
"q 	c #D83B1B",
"r 	c #D73A1A",
"s 	c #D43719",
"t 	c #D23618",
"u 	c #D13518",
"v 	c #D03317",
"w 	c #CE3217",
"x 	c #CD3116",
"y 	c #CB3015",
"z 	c #C3361F",
"A 	c #8A2A1C",
"B 	c #581C12",
"C 	c #551911",
"D 	c #9B6559",
"E 	c #6B4D46",
"F 	c #A67367",
"G 	c #E98A74",
"H 	c #E35D3D",
"I 	c #DD411D",
"J 	c #DC3F1C",
"K 	c #D63A1A",
"L 	c #D53919",
"M 	c #CE3216",
"N 	c #CB2F15",
"O 	c #CA2E15",
"P 	c #C92D14",
"Q 	c #C72B13",
"R 	c #B22914",
"S 	c #65190D",
"T 	c #4E130A",
"U 	c #98655A",
"V 	c #6B4E47",
"W 	c #BD8375",
"X 	c #E7765B",
"Y 	c #DF441F",
"Z 	c #DD401D",
"` 	c #D93C1B",
" .	c #CF3317",
"..	c #C82D14",
"+.	c #C62A13",
"@.	c #C42912",
"#.	c #B82411",
"$.	c #70160A",
"%.	c #480E07",
"&.	c #9B685C",
"*.	c #6B4F47",
"=.	c #C48A7C",
"-.	c #E56547",
";.	c #DF421D",
">.	c #DA3E1C",
",.	c #D53819",
"'.	c #D33719",
").	c #D13418",
"!.	c #CC3116",
"~.	c #C32712",
"{.	c #C12611",
"].	c #B6230F",
"^.	c #731509",
"/.	c #460C05",
"(.	c #A86E60",
"_.	c #6C504A",
":.	c #BE8578",
"<.	c #CC3016",
"[.	c #C82C14",
"}.	c #C52A13",
"|.	c #C02510",
"1.	c #BE2310",
"2.	c #B2200E",
"3.	c #6A1208",
"4.	c #440B05",
"5.	c #725952",
"6.	c #A87B70",
"7.	c #E66C50",
"8.	c #DE411D",
"9.	c #DA3D1C",
"0.	c #D73B1A",
"a.	c #D6391A",
"b.	c #D03417",
"c.	c #C92E14",
"d.	c #C42812",
"e.	c #C22711",
"f.	c #C02410",
"g.	c #BD220F",
"h.	c #BC210E",
"i.	c #A81C0C",
"j.	c #570E06",
"k.	c #93695F",
"l.	c #806059",
"m.	c #E77F67",
"n.	c #DB3F1C",
"o.	c #D43819",
"p.	c #D23518",
"q.	c #CE3116",
"r.	c #BB200E",
"s.	c #BA1F0E",
"t.	c #B91E0D",
"u.	c #94160A",
"v.	c #430904",
"w.	c #6F5853",
"x.	c #C78677",
"y.	c #DE4320",
"z.	c #C62B13",
"A.	c #C52913",
"B.	c #BF2410",
"C.	c #B81E0D",
"D.	c #B71C0D",
"E.	c #AE190B",
"F.	c #6A0F06",
"G.	c #896A63",
"H.	c #E4684B",
"I.	c #DA3D1B",
"J.	c #D83C1B",
"K.	c #CA2F15",
"L.	c #C12511",
"M.	c #BD210F",
"N.	c #B61B0C",
"O.	c #B41A0B",
"P.	c #961409",
"Q.	c #440803",
"R.	c #765F59",
"S.	c #C18173",
"T.	c #DC401D",
"U.	c #D33618",
"V.	c #CF3217",
"W.	c #CC3015",
"X.	c #C52912",
"Y.	c #C32812",
"Z.	c #BE230F",
"`.	c #BC210F",
" +	c #B81D0D",
".+	c #B71C0C",
"++	c #B51B0C",
"@+	c #B4190B",
"#+	c #B3180B",
"$+	c #A71509",
"%+	c #620C05",
"&+	c #AC7063",
"*+	c #755D58",
"=+	c #E26B51",
"-+	c #C72C14",
";+	c #C02511",
">+	c #B91F0E",
",+	c #B1170A",
"'+	c #B01509",
")+	c #850F06",
"!+	c #360602",
"~+	c #91665C",
"{+	c #94716A",
"]+	c #DB4120",
"^+	c #CB3618",
"/+	c #B93015",
"(+	c #BF3115",
"_+	c #BE3015",
":+	c #BE2F15",
"<+	c #BC2D15",
"[+	c #BB2C14",
"}+	c #BA2B13",
"|+	c #B82A13",
"1+	c #B72912",
"2+	c #B52812",
"3+	c #B42611",
"4+	c #B42510",
"5+	c #B22410",
"6+	c #B1220F",
"7+	c #AF210F",
"8+	c #AE200E",
"9+	c #AD1F0D",
"0+	c #AB1E0D",
"a+	c #AA1D0C",
"b+	c #A91B0C",
"c+	c #A81A0B",
"d+	c #A7190A",
"e+	c #A92013",
"f+	c #AF180A",
"g+	c #B2180B",
"h+	c #AE1409",
"i+	c #930F06",
"j+	c #430602",
"k+	c #83615A",
"l+	c #AF6E5F",
"m+	c #C13216",
"n+	c #C1C1C1",
"o+	c #E7E7E7",
"p+	c #E6E6E6",
"q+	c #E5E5E5",
"r+	c #E4E4E4",
"s+	c #E3E3E3",
"t+	c #E2E2E2",
"u+	c #E1E1E1",
"v+	c #E0E0E0",
"w+	c #DFDFDF",
"x+	c #DEDEDE",
"y+	c #DDDDDD",
"z+	c #DCDCDC",
"A+	c #DBDBDB",
"B+	c #B12318",
"C+	c #B1160A",
"D+	c #AF1509",
"E+	c #AD1308",
"F+	c #9C0E06",
"G+	c #540703",
"H+	c #7B5E57",
"I+	c #C4634E",
"J+	c #CB3417",
"K+	c #FBFBFB",
"L+	c #FAFAFA",
"M+	c #F9F9F9",
"N+	c #F8F8F8",
"O+	c #F7F7F7",
"P+	c #F6F6F6",
"Q+	c #F5F5F5",
"R+	c #F4F4F4",
"S+	c #F3F3F3",
"T+	c #F2F2F2",
"U+	c #F1F1F1",
"V+	c #F0F0F0",
"W+	c #EFEFEF",
"X+	c #C34E45",
"Y+	c #AD1208",
"Z+	c #AB1108",
"`+	c #A20E05",
" @	c #630703",
".@	c #775A54",
"+@	c #D2533A",
"@@	c #CA3317",
"#@	c #DADADA",
"$@	c #EEEEEE",
"%@	c #EDEDED",
"&@	c #C65A52",
"*@	c #AC1208",
"=@	c #AB1107",
"-@	c #AA1007",
";@	c #A20D05",
">@	c #6E0803",
",@	c #785C56",
"'@	c #D64628",
")@	c #C83116",
"!@	c #D8D8D8",
"~@	c #ECECEC",
"{@	c #EBEBEB",
"]@	c #C65B54",
"^@	c #A80E06",
"/@	c #9F0C05",
"(@	c #720802",
"_@	c #765851",
":@	c #CF391C",
"<@	c #C73015",
"[@	c #EAEAEA",
"}@	c #C45851",
"|@	c #A90F07",
"1@	c #A50C05",
"2@	c #970B04",
"3@	c #6A0602",
"4@	c #74514A",
"5@	c #C52E15",
"6@	c #D6D6D6",
"7@	c #E9E9E9",
"8@	c #C3574F",
"9@	c #A70D06",
"0@	c #A00A04",
"a@	c #8F0702",
"b@	c #5A0401",
"c@	c #764F47",
"d@	c #AA2D15",
"e@	c #C83921",
"f@	c #BA403A",
"g@	c #A60D05",
"h@	c #A50B05",
"i@	c #9A0903",
"j@	c #830602",
"k@	c #480200",
"l@	c #7A4A41",
"m@	c #8F2A18",
"n@	c #CB351D",
"o@	c #D0523F",
"p@	c #D66857",
"q@	c #DB7A6C",
"r@	c #D9786A",
"s@	c #D87769",
"t@	c #D87669",
"u@	c #D67569",
"v@	c #D6766A",
"w@	c #D47165",
"x@	c #D16B5F",
"y@	c #D16A5F",
"z@	c #CF695E",
"A@	c #CF685E",
"B@	c #CE675D",
"C@	c #CD675D",
"D@	c #CC655D",
"E@	c #CB645B",
"F@	c #C85E55",
"G@	c #C75B54",
"H@	c #C55A52",
"I@	c #C3554E",
"J@	c #C1514B",
"K@	c #B73831",
"L@	c #A80F07",
"M@	c #A60C05",
"N@	c #A30A04",
"O@	c #900803",
"P@	c #790401",
"Q@	c #360100",
"R@	c #7E473D",
"S@	c #73281B",
"T@	c #B0160A",
"U@	c #AF1409",
"V@	c #A10703",
"W@	c #850502",
"X@	c #6C0300",
"Y@	c #230000",
"Z@	c #60281E",
"`@	c #BE2C13",
" #	c #A90F06",
".#	c #A70E06",
"+#	c #A20804",
"@#	c #940602",
"##	c #800300",
"$#	c #560100",
"%#	c #643128",
"&#	c #881F0E",
"*#	c #C22611",
"=#	c #A20803",
"-#	c #A00703",
";#	c #870501",
">#	c #740200",
",#	c #300000",
"'#	c #60160A",
")#	c #BE2A13",
"!#	c #BE220F",
"~#	c #B91E0E",
"{#	c #B51A0C",
"]#	c #A40B05",
"^#	c #A30904",
"/#	c #940401",
"(#	c #800200",
"_#	c #610100",
":#	c #160000",
"<#	c #571F16",
"[#	c #841C0C",
"}#	c #B61C0C",
"|#	c #A80F06",
"1#	c #A10803",
"2#	c #9E0401",
"3#	c #840301",
"4#	c #760100",
"5#	c #2F0000",
"6#	c #541107",
"7#	c #AF2310",
"8#	c #BF2310",
"9#	c #BA200E",
"0#	c #B3190B",
"a#	c #B2180A",
"b#	c #A40A04",
"c#	c #9F0502",
"d#	c #8B0301",
"e#	c #7E0100",
"f#	c #540000",
"g#	c #551B13",
"h#	c #631308",
"i#	c #B5220F",
"j#	c #A00603",
"k#	c #9E0502",
"l#	c #900300",
"m#	c #7E0000",
"n#	c #630000",
"o#	c #1D0000",
"p#	c #4A0E06",
"q#	c #6F1409",
"r#	c #B4200E",
"s#	c #B71D0D",
"t#	c #B2170A",
"u#	c #AE1309",
"v#	c #A91007",
"w#	c #7D0000",
"x#	c #670000",
"y#	c #260000",
"z#	c #470C05",
"A#	c #711308",
"B#	c #AF1D0D",
"C#	c #A20904",
"D#	c #8D0300",
"E#	c #7B0000",
"F#	c #650000",
"G#	c #290000",
"H#	c #450B05",
"I#	c #691107",
"J#	c #A5190B",
"K#	c #9F0602",
"L#	c #9C0401",
"M#	c #860200",
"N#	c #770000",
"O#	c #5D0000",
"P#	c #250000",
"Q#	c #410904",
"R#	c #560C05",
"S#	c #921508",
"T#	c #AB170A",
"U#	c #AB1007",
"V#	c #8F0401",
"W#	c #7C0100",
"X#	c #6B0000",
"Y#	c #4D0000",
"Z#	c #1C0000",
"`#	c #400803",
" $	c #680D05",
".$	c #931208",
"+$	c #A61208",
"@$	c #8F0501",
"#$	c #7D0300",
"$$	c #6A0100",
"%$	c #580000",
"&$	c #2C0000",
"*$	c #0D0000",
"=$	c #3E0602",
"-$	c #5A0903",
";$	c #7E0D05",
">$	c #8E0C05",
",$	c #990C05",
"'$	c #A40B04",
")$	c #980903",
"!$	c #8D0602",
"~$	c #7E0401",
"{$	c #6A0300",
"]$	c #620200",
"^$	c #4F0000",
"/$	c #2D0000",
"($	c #150000",
"_$	c #310401",
":$	c #3A0401",
"<$	c #430502",
"[$	c #4E0401",
"}$	c #570402",
"|$	c #5A0502",
"1$	c #560300",
"2$	c #4D0200",
"3$	c #400200",
"4$	c #1F0000",
"5$	c #030000",
"                                                                                                ",
"                                                                                                ",
"                                                                                                ",
"                                                                                                ",
"                              . + @ # $ % & * = - ;                                             ",
"                          > , ' ) ! ~ { ] ^ / ( _ : < [                                         ",
"                      } | 1 2 3 4 5 6 7 8 9 0 a b c d e f g                                     ",
"                  h i j k l m n o p q r 9 s t u v w x y z A B C                                 ",
"                D E F G H I J o p q K L s t u v M x N O P Q R S T                               ",
"              U V W X Y Z J o ` q K L s t u  .M x N O ..Q +.@.#.$.%.                            ",
"            &.*.=.-.;.Z J >.` q K ,.'.t ). .M !.N O ..Q +.@.~.{.].^./.                          ",
"          (._.:.-.;.Z J >.` q K ,.'.t ). .M <.N O [.Q }.@.~.{.|.1.2.3.4.                        ",
"          5.6.7.8.Z J 9.` 0.a.,.'.t b. .M <.N c.[.Q }.d.e.{.f.1.g.h.i.j.                        ",
"        k.l.m.8.Z n.9.` 0.a.o.'.p.b. .q.<.N c.[.Q }.d.e.{.f.1.g.r.s.t.u.v.                      ",
"        w.x.y.Z n.9.` 0.a.o.'.p.b. .x <.N P [.z.A.d.e.{.B.1.g.r.s.C.D.E.F.                      ",
"      k.G.H.Z o I.J.r a.o.'.u b. .x <.K.P [.z.A.d.e.L.B.1.M.r.s.C.D.N.O.P.Q.                    ",
"      R.S.T.o I.J.r a.o.U.u b.V.x W.K.P [.z.X.Y.e.L.B.Z.`.r.s. +.+++@+#+$+%+                    ",
"    &+*+=+o I.J.r 9 o.U.u b.w x W.O P -++.X.Y.e.;+B.Z.`.r.>+ +.+++@+#+,+'+)+!+                  ",
"    ~+{+]+p q r ^+/+(+_+:+<+[+}+|+1+2+3+4+5+6+7+8+9+0+a+b+c+d+e+f+g+,+'+h+i+j+                  ",
"    k+l+p q r L m+n+o+p+q+q+r+r+s+t+t+u+u+v+w+w+x+x+x+y+y+z+A+r+B+C+D+h+E+F+G+                  ",
"    H+I+q K L s J+z+K+L+L+M+M+N+O+O+P+Q+Q+R+R+S+T+T+U+U+V+W+W+Q+X+D+h+Y+Z+`+ @                  ",
"    .@+@K ,.s t @@#@M+M+N+O+O+P+P+Q+R+R+S+S+T+U+U+V+W+W+$@$@%@R+&@h+*@=@-@;@>@                  ",
"    ,@'@,.'.t ).)@!@N+O+P+P+Q+Q+R+S+S+T+U+U+V+V+W+$@$@%@%@~@{@S+]@*@=@-@^@/@(@                  ",
"    _@:@'.t b. .<@!@P+Q+Q+R+S+S+T+T+U+V+V+W+W+$@%@%@~@{@{@[@[@S+}@=@|@^@1@2@3@                  ",
"    4@m+p.b. .M 5@6@R+R+S+T+T+U+U+V+W+W+$@%@%@~@~@{@[@[@7@7@7@S+8@|@^@9@0@a@b@                  ",
"    c@d@b. .x <.e@t+R+R+R+R+R+R+R+Q+Q+R+S+S+T+T+U+U+U+U+T+T+U+U+f@^@g@h@i@j@k@                  ",
"    l@m@ .x <.N n@o@p@q@r@s@t@u@v@w@x@y@z@A@B@C@D@E@F@G@H@I@J@K@L@M@h@N@O@P@Q@                  ",
"    R@S@x W.K.P [.z.A.Y.e.L.B.1.`.r.s. +D.++O.#+,+T@U@E+*@-@|@^@M@h@N@V@W@X@Y@                  ",
"      Z@`@O P [.z.X.Y.e.L.B.Z.`.r.s. +.+++@+#+,+'+h+E+*@-@ #.#M@h@N@+#@###$#                    ",
"      %#&#P -++.X.Y.*#;+B.Z.`.r.>+ +.+++@+g+,+'+h+E+Z+-@ #9@M@h@N@=#-#;#>#,#                    ",
"        '#)#+.@.Y.*#;+B.!#`.r.~# +.+{#@+g+,+'+h+E+Z+-@ #9@M@]#^#=#-#/#(#_#:#                    ",
"        <#[#@.Y.*#;+B.g.`.r.~# +}#{#@+g+C+D+h+Y+Z+-@|#9@M@]#^#1#-#2#3#4#5#                      ",
"          6#7#{.|.8#g.`.9#t. +}#{#0#a#C+D+h+Y+=@-@^@9@M@b#^#1#-#c#d#e#f#                        ",
"          g#h#i#8#g.`.s.t. +N.{#0#a#C+D+h+*@=@-@^@9@1@b#^#1#j#k#l#m#n#o#                        ",
"            p#q#r#`.s.t.s#N.{#0#t#T@D+u#*@=@v#^@9@1@b#^#1#j#k#l#w#x#y#                          ",
"              z#A#B#t.s#N.{#0#t#T@D+u#*@=@|@^@9@h@b#C#1#j#k#D#E#F#G#                            ",
"                H#I#J#N.O.#+t#T@D+E+*@=@|@^@g@h@b#C#V@K#L#M#N#O#P#                              ",
"                  Q#R#S#T#,+T@U@E+*@U#|@^@g@h@b#C#V@K#V#W#X#Y#Z#                                ",
"                      `# $.$+$E+*@-@|@^@M@h@N@+#K#@$#$$$%$&$*$                                  ",
"                          =$-$;$>$,$;@'$0@)$!$~${$]$^$/$($                                      ",
"                              _$:$<$[$}$|$1$2$3$,#4$5$                                          ",
"                                                                                                ",
"                                                                                                ",
"                                                                                                ",
"                                                                                                ",
"                                                                                                ",
"                                                                                                "};
