/* XPM */
static char * error_xpm[] = {
"47 47 73 1",
" 	c None",
".	c #710202",
"+	c #720404",
"@	c #700000",
"#	c #700101",
"$	c #832222",
"%	c #8A2F2F",
"&	c #7E1A1A",
"*	c #8A3030",
"=	c #770D0D",
"-	c #8F3737",
";	c #750A0A",
">	c #811E1E",
",	c #7B1414",
"'	c #6F0000",
")	c #6E0000",
"!	c #750C0C",
"~	c #791818",
"{	c #822A2A",
"]	c #863030",
"^	c #8B3838",
"/	c #893535",
"(	c #883333",
"_	c #873131",
":	c #7A1919",
"<	c #730909",
"[	c #7D1D1D",
"}	c #8F4343",
"|	c #A87272",
"1	c #B38383",
"2	c #BA8D8D",
"3	c #B98A8A",
"4	c #B88888",
"5	c #B78686",
"6	c #AA7373",
"7	c #924646",
"8	c #852E2E",
"9	c #FFFFFF",
"0	c #A87171",
"a	c #812828",
"b	c #883232",
"c	c #AF8080",
"d	c #802B2B",
"e	c #B18181",
"f	c #812C2C",
"g	c #812424",
"h	c #AE7A7A",
"i	c #842E2E",
"j	c #781212",
"k	c #8B3A3A",
"l	c #A66C6C",
"m	c #B07C7C",
"n	c #BC9090",
"o	c #BE9494",
"p	c #C19898",
"q	c #BF9595",
"r	c #B08080",
"s	c #954E4E",
"t	c #7C1D1D",
"u	c #710808",
"v	c #791A1A",
"w	c #802727",
"x	c #8D3B3B",
"y	c #8F3F3F",
"z	c #914343",
"A	c #8F4040",
"B	c #873535",
"C	c #7C1F1F",
"D	c #730B0B",
"E	c #6D0000",
"F	c #6B0A0A",
"G	c #6C0707",
"H	c #6A0C0C",
"                                               ",
"                      .+.                      ",
"                 @@@@##.##@@@@                 ",
"              @@@@@@@@@@@@@@@@@@@              ",
"            @@@@@@@@@@@@@@@@@@@@@@@            ",
"           @@@@@@@@@@@@@@@@@@@@@@@@@           ",
"         .#@@@@@@@@@@@@@@@@@@@@@@@@@#.         ",
"        .##@@@@@@@@@@@@@@@@@@@@@@@@@##.        ",
"       $@@@@@@@@@@@@@@@@@@@@@@@@@@@@@@@.       ",
"      %&@@@@@@@@@@@@@@@@@@@@@@@@@@@@@@@#.      ",
"     *=#@@@@@@@@@@@@@@@@@@@@@@@@@@@@@@@##      ",
"    -$;@@@@@@@@@@@@@@@@@@@@@@@@@@@@@@@@@@@     ",
"    >,@@@@@@@@@@@@@@@@@@@@@@@@@@@@@@@@@@@@@    ",
"    @@@@@@@@@@@@@@@@@@@@@@@@@@@@@@@@@@@@@@@    ",
"   @@@@@@@@@@@@@@@@@@@@@@@@@@@@@@@@@@@@@@@@@   ",
"   @@@@@@@@@@@@@@@@@@@@@@@@@@@@@@@@@@@@@@@@@   ",
"   @@@@@@@@@@@@@@@@@@@@@@@@@@@@@@@@@@@@@@@@@   ",
"  @@@@@@@@@@@@@@@@@@@@@@@@@@@@@@@@@@@@@@@@@@@  ",
"  @@@@''')''''''@@@@@@@@@@@@@@@@@@@@@@@@@@@@@  ",
"  @@@@!~{]^^^^/(_______________________{:<@@@  ",
"  @@@@[}|12222345555555555555555555555567:@@@  ",
"  #@@@89999999999999999999999999999999990a@@#  ",
" .#@@@b999999999999999999999999999999999cd@@#. ",
" +.@@@_999999999999999999999999999999999cd@@.+ ",
" .#@@@_999999999999999999999999999999999ef@@#. ",
"  #@@@_9999999999999999999999999999999994('@#  ",
"  @@@@g999999999999999999999999999999999hi'@@  ",
"  @@@@jklm5555554322222222222222noppppqrst'@@  ",
"  @@@@'uvw______(/^^^^^^^^^^^^^^xyzzzzABCD'@@  ",
"  @@@@''''@@@@@@''''''''''''''''))))))EE)'@@@  ",
"   @@@@@@@@@@@@@@@@@@@@@@@@@@@@@@@@@@@@@@@@@   ",
"   @@@@@@@@@@@@@@@@@@@@@@@@@@@@@@@@@@@@@@@@@   ",
"   @@@@@@@@@@@@@@@@@@@@@@@@@@@@@@@@@@@@@@@@@   ",
"    @@@@@@@@@@@@@@@@@@@@@@@@@@@@@@@@@@@@@@@    ",
"    @@@@@@@@@@@@@@@@@@@@@@@@@@@@@@@@@@@@@@@    ",
"     @@@@@@@@@@@@@@@@@@@@@@@@@@@@@@@@@@@@@     ",
"      ##@@@@@@@@@@@@@@@@@@@@@@@@@@@@@@@##      ",
"      .#@@@@@@@@@@@@@@@@@@@@@@@@@@@@@@@#.      ",
"       .@@@@@@@@@@@@@@@@@@@@@@@@@@@@@@@#       ",
"        .##@@@@@@@@@@@@@@@@@@@@@@@@@###        ",
"         .#@@@@@@@@@@@@@@@@@@@@@@@@@#.         ",
"           @@@@@@@@@@@@@@@@@@@@@@@@@           ",
"            FGG@@@@@@@@@@@@@@@@@@@@            ",
"             HF@@@@@@@@@@@@@@@@@@              ",
"                 @@@@##.##@@@@                 ",
"                      .+.                      ",
"                                               "};
