/* XPM */
static const char * const file2_xpm[] = {
"16 16 8 1",
" 	c None",
".	c #000000",
"+	c #FFFFFF",
"@	c #D5D5D5",
"#	c #ABABAB",
"$	c #808080",
"%	c #555555",
"&	c #2B2B2B",
"                ",
"                ",
" ...        ... ",
" .............. ",
" . .++++++++. . ",
" . .+++++++@. . ",
" ...+++++++@... ",
" . .++++++@#. . ",
" ...+++++@#$... ",
" . .++++@#$%. . ",
" . .++++@#$%. . ",
" ...+++@#$%&... ",
" . .+++@#$%&. . ",
" .............. ",
" ...        ... ",
"                "};
