/* XPM */
static char * file_xpm[] = {
"16 16 4 1",
" 	c None",
".	c #3D3D3D",
"+	c #FDC689",
"@	c #9A9A9A",
"                ",
"                ",
" .............. ",
" .++++++++++++.@",
" .++++++++++++.@",
" .++..++++..++.@",
" .+....++....+.@",
" .+....++....+.@",
" .++..++++..++.@",
" .++++++++++++.@",
" .++++++++++++.@",
" .++++++++++++.@",
" ..............@",
" ..............@",
"  @@@@@@@@@@@@@@",
"                "};
