/* XPM */
static const char * const file_xpm[] = {
"16 16 7 1",
" 	c None",
".	c #9A9A9A",
"+	c #000000",
"@	c #FFFFFF",
"#	c #010101",
"$	c #FEFEFE",
"%	c #9B9B9B",
"                ",
"................",
"++++++++++++++++",
"@++@++@++@++@++@",
"++++#+++++++++++",
"@@@+@@@$@@@@+@@@",
"@@@+@@@@@@@@+@@@",
"@@@+@@@@@@@@+@@@",
"@@@+@@@@@@@@+@@@",
"@@@+@$@@@@@@+@@@",
"@@@+@@@$@@@@+@@@",
"+++++++++++++++#",
"@++@++@++@#+@++@",
"+++++++##++++++#",
"..........%.....",
"                "};
