/* XPM */
static const char * const fs_xpm[] = {
"16 16 90 1",
" 	c None",
".	c #000000",
"+	c #3D3B3B",
"@	c #808F9B",
"#	c #86949F",
"$	c #8C99A4",
"%	c #929EA8",
"&	c #98A3AC",
"*	c #9EA7B0",
"=	c #A4ACB4",
"-	c #AAB1B8",
";	c #B0B6BC",
">	c #B6BBC0",
",	c #BBC0C5",
"'	c #B7C4CD",
")	c #A7B7C9",
"!	c #ACBCCC",
"~	c #B2C0CF",
"{	c #B6C5D2",
"]	c #BCC9D5",
"^	c #C1CDD8",
"/	c #C6D2DA",
"(	c #CDD6DD",
"_	c #BCC1C5",
":	c #B4C0CB",
"<	c #9DB0C4",
"[	c #CED6DE",
"}	c #D2DAE1",
"|	c #B7BCC2",
"1	c #AFBDC8",
"2	c #99ACC1",
"3	c #B2C1D2",
"4	c #90A6BE",
"5	c #95AAC1",
"6	c #9AAEC3",
"7	c #8493A4",
"8	c #8696A8",
"9	c #C9D3DC",
"0	c #CFD7DF",
"a	c #B1B8BD",
"b	c #ACB9C5",
"c	c #94A9C0",
"d	c #BBC8D7",
"e	c #8AA1BA",
"f	c #8FA5BD",
"g	c #C5D0D9",
"h	c #CAD4DC",
"i	c #ACB3BA",
"j	c #90A6BD",
"k	c #B7C5D5",
"l	c #859DB7",
"m	c #8AA0BA",
"n	c #98ACC2",
"o	c #C0CCD7",
"p	c #C6D0DA",
"q	c #A6AFB6",
"r	c #8CA3BB",
"s	c #B2C1D1",
"t	c #7F98B4",
"u	c #849CB7",
"v	c #93A8BF",
"w	c #C2CDD8",
"x	c #A1ABB2",
"y	c #889FB9",
"z	c #D9E0E7",
"A	c #B1C0D1",
"B	c #B4C3D3",
"C	c #B7C5D4",
"D	c #BCC9D7",
"E	c #B3C2D2",
"F	c #B8C6D2",
"G	c #BDCAD5",
"H	c #9BA5AF",
"I	c #839BB6",
"J	c #B3C2D0",
"K	c #B9C6D2",
"L	c #96A1AB",
"M	c #8AA1B9",
"N	c #8FA5BC",
"O	c #94AABF",
"P	c #9AADC2",
"Q	c #9FB1C5",
"R	c #A4B5C9",
"S	c #A9BACB",
"T	c #919DA7",
"U	c #AAB8C4",
"V	c #AEBCC7",
"W	c #B3BFCA",
"X	c #B7C2CD",
"Y	c #C3CDD6",
"                ",
"................",
".+@@#$%&*=-;>,+.",
".'++)!~{]^/(++_.",
".:<<........[}|.",
".122.345678.90a.",
".bcc.defef8.ghi.",
".bjj.klmlmn.opq.",
".3rr.stutuv.]wx.",
".dyy.zABCDE.FGH.",
".kII........JKL.",
".s++uMNOPQRS++T.",
".+AABCDEUUVWXY+.",
"................",
"                ",
"                "};
