/* XPM */
static const char * const loadeaf_xpm[] = {
"16 16 132 2",
"  	c None",
". 	c #5C5C5C",
"+ 	c #656565",
"@ 	c #6A6A6A",
"# 	c #6A6A69",
"$ 	c #6D6D6D",
"% 	c #848484",
"& 	c #818181",
"* 	c #F9F9F9",
"= 	c #FEFEFE",
"- 	c #FFFFFF",
"; 	c #FBFBFB",
"> 	c #F4F4F4",
", 	c #D2D2D1",
"' 	c #E2E2E2",
") 	c #B3B3B3",
"! 	c #888888",
"~ 	c #F8F8F8",
"{ 	c #DCDCDC",
"] 	c #F5F5F5",
"^ 	c #FDFDFD",
"/ 	c #FCFCFC",
"( 	c #FBFBFA",
"_ 	c #F4F4F3",
": 	c #AFAFAE",
"< 	c #707070",
"[ 	c #5E5E5E",
"} 	c #898989",
"| 	c #E7E7E7",
"1 	c #B1B1B1",
"2 	c #ECECEC",
"3 	c #F5F5F4",
"4 	c #EFEFEE",
"5 	c #EEEEED",
"6 	c #EBEBEB",
"7 	c #CDCCCC",
"8 	c #9E9C9B",
"9 	c #7D7B7A",
"0 	c #484745",
"a 	c #FCFCFB",
"b 	c #D3D3D2",
"c 	c #ECECEB",
"d 	c #DADAD9",
"e 	c #BCBCBB",
"f 	c #BCBBBA",
"g 	c #BAB9B8",
"h 	c #C6C5C3",
"i 	c #B8B6B3",
"j 	c #504E4A",
"k 	c #FAFAF9",
"l 	c #EDEDEC",
"m 	c #F3F2F1",
"n 	c #E9E9E8",
"o 	c #DFDFDE",
"p 	c #E0DFDE",
"q 	c #DFDFDD",
"r 	c #DFDEDD",
"s 	c #EBEBE9",
"t 	c #E9E8E6",
"u 	c #CDCAC6",
"v 	c #595651",
"w 	c #F7F7F6",
"x 	c #F4F4F2",
"y 	c #F4F3F2",
"z 	c #F1F1EF",
"A 	c #F0EFED",
"B 	c #F0F0EE",
"C 	c #EAEAE7",
"D 	c #D4D1CC",
"E 	c #625F5A",
"F 	c #F1F0EF",
"G 	c #E1E1DF",
"H 	c #EFEEEC",
"I 	c #EEEDEB",
"J 	c #EAE9E6",
"K 	c #BEBDBB",
"L 	c #B9B9B6",
"M 	c #CCCAC5",
"N 	c #625F59",
"O 	c #B3B2B0",
"P 	c #E4E3E1",
"Q 	c #DBDAD8",
"R 	c #DAD9D7",
"S 	c #D9D8D6",
"T 	c #DEDDDA",
"U 	c #171717",
"V 	c #A6A49F",
"W 	c #615F59",
"X 	c #878787",
"Y 	c #DDDDDC",
"Z 	c #9F9E9D",
"` 	c #000000",
" .	c #C5C4C2",
"..	c #C4C3C0",
"+.	c #D1D0CD",
"@.	c #8A8A88",
"#.	c #B7B5B0",
"$.	c #605D57",
"%.	c #E3E3E0",
"&.	c #C1BFBC",
"*.	c #CDCAC5",
"=.	c #615D57",
"-.	c #808080",
";.	c #E2E1DD",
">.	c #DFDEDA",
",.	c #DEDDD9",
"'.	c #D5D4D1",
").	c #C5C3BF",
"!.	c #CBC8C2",
"~.	c #5F5C56",
"{.	c #CFCCC6",
"].	c #CECCC5",
"^.	c #CECCC6",
"/.	c #CECBC5",
"(.	c #CCC9C3",
"_.	c #ADABA6",
":.	c #8F8D88",
"<.	c #A6A49E",
"[.	c #C4C0BA",
"}.	c #B9B6AE",
"|.	c #55534C",
"1.	c #4F4E4D",
"2.	c #4D4B47",
"3.	c #4E4C47",
"4.	c #4E4C46",
"5.	c #4D4B46",
"6.	c #4D4A46",
"7.	c #4D4A45",
"8.	c #4C4A45",
"9.	c #4B4944",
"0.	c #45433E",
"a.	c #3C3B38",
"      . + @ @ @ @ @ # $ @ %     ",
"      & * = - = = = ; > , ' )   ",
"      ! ~ { ] ^ / / ( _ : < [   ",
"      } | 1 2 3 4 4 5 6 7 8 9 0 ",
"      } a b c d e e f g e h i j ",
"      ! k l m n o p q r s t u v ",
"      ! w x y z z z A B z C D E ",
"      ! F r G H H H I J K L M N ",
"      ! p : O P Q R S T U U V W ",
"      X Y Z ` Z  . ...+.U @.#.$.",
"      X Z ` Z B B %.U U U &.*.=.",
"      -.` Z ;.>.,.'.U U U ).!.~.",
"`     ` Z {.].^./.(._.:.<.[.}.|.",
"` ` ` 1.2.3.4.4.2.5.6.7.8.9.0.a.",
"` ` `                           ",
"` ` ` `                         "};
