/* XPM */
static char * logo_xpm[] = {
"100 83 128 2",
"`` c None",
"`. c #040b9a",
"`# c #040ca9",
"`a c #0611e7",
"`b c #040db8",
"`c c #050fd7",
"`d c #050ec8",
"`e c #6e719b",
"`f c #4c51b4",
"`g c #4349ba",
"`h c #6669a1",
"`i c #23299a",
"`j c #171fbb",
"`k c #dddddd",
"`l c #ffffff",
"`m c #8a8ed5",
"`n c #3a41c1",
"`o c #0914db",
"`p c #1e9fa0",
"`q c #24bfc0",
"`r c #2deff1",
"`s c #31e5e7",
"`t c #80e6e7",
"`u c #f1feff",
"`v c #eff0fe",
"`w c #7377cc",
"`x c #0f18d1",
"`y c #27cfd0",
"`z c #53e1e2",
"`A c #4b51c2",
"`B c #8ff7f8",
"`C c #c0c2ed",
"`D c #0c16cf",
"`E c #abf9fa",
"`F c #1a22cd",
"`G c #2adfe0",
"`H c #dfe0ee",
"`I c #0f18c3",
"`J c #65f4f5",
"`K c #0911ad",
"`L c #e3fdfe",
"`M c #555abd",
"`N c #3aeef0",
"`O c #bbbbbb",
"`P c #81f6f7",
"`Q c #d5fcfd",
"`R c #aaaaaa",
"`S c #73f5f6",
"`T c #9df8f9",
"`U c #c7fbfc",
"`V c #21afb0",
"`W c #389fa0",
"`X c #35b6b7",
"`Y c #34c1c2",
"`Z c #4951ee",
"`0 c #1721e9",
"`1 c #3841ec",
"`2 c #2831eb",
"`3 c #7b81f3",
"`4 c #bdc0f9",
"`5 c #777777",
"`6 c #666666",
"`7 c #444444",
"`8 c #555555",
".` c #9ca0f6",
".. c #000000",
".# c #ced0fb",
".a c #cccccc",
".b c #333333",
".c c #888888",
".d c #dee0fc",
".e c #8b90f4",
".f c #6a71f1",
".g c #acb0f7",
".h c #3ae1e3",
".i c #eeeeee",
".j c #46d3d5",
".k c #222222",
".l c #111111",
".m c #999999",
".n c #5961ef",
".o c #58bec0",
".p c #64b1b2",
".q c #7c9596",
".r c #83cfd0",
".s c #4bbfc0",
".t c #2ce1e3",
".u c #8ccccd",
".v c #32ccce",
".w c #b2b5df",
".x c #78c5c6",
".y c #161fc9",
".z c #e2eeee",
".A c #2bd3d5",
".B c #4148c7",
".C c #3bbbbd",
".D c #484fce",
".E c #1533dd",
".F c #4f55d5",
".G c #2029d4",
".H c #0c16dd",
".I c #797ee1",
".J c #1821da",
".K c #9296ec",
".L c #0d17de",
".M c #1d26d0",
".N c #2931cd",
".O c #5359ca",
".P c #5b61d2",
".Q c #8b8ec6",
".R c #2a33de",
".S c #b7ffbf",
".T c #ea113c",
".U c #40d89c",
".V c #444060",
".W c #884440",
".X c #608844",
".Y c #40ea11",
".Z c #3c40d8",
".0 c #9c4440",
".1 c #608844",
".2 c #406088",
".3 c #44409d",
".4 c #352440",
".5 c #884c27",
".6 c #406888",
".7 c #444088",
".8 c #b7ffbf",
"```````````````````````````````````````````````````````````````````````````````````````````````````````````````````````````````````````````````````````````````.`a`a`a`a`#``````````````````````````````",
"```````````````````````````````````````````````````````````````````````````````````````````````````````````````````````````````````````````````````c`a`a`a`a`a`a`a`a`a`a`a`a`a``````````````````````````",
"`````````````````````````````````````````````````````````````````````````````````````````````````````````````````````````````````````b`a`a`a`a`a`a`a`a`a`a`a`a`a`a`a`a`a`a`a`a`a`a``````````````````````",
"```````````````````````````````````````````````````````````````````````````````````````````````````````````````````````#`a`a`a`a`a`a`a`a`a`a`a`a`a`a`a`a`a`a`a`a`a`a`a`a`a`a`a`a`a`a````````````````````",
"`````````````````````````````````````````````````````````````````````````````````````````````````````````#`a`a`a`a`a`a`a`a`a`a`a`a`a`a`a`a`a`a`a`a`a`a`a`a`a`a`a`a`a`a`a`a`a`a`a`a`a`a``````````````````",
"```````````````````````````````````````````````````````````````````````````````````````````#`a`a`a`a`a`a`a`a`a`a`a`a`a`a`a`a`a`a`a`a`a`a`a`a`a`a`a`a`a`a`a`a`a`a`a`a`a`a`a`a`a`a`a`a`a``````````````````",
"`````````````````````````````````````````````````````````````````````````````.`a`a`a`a`a`a`a`a`a`a`a`a`a`a`a`a`a`a`a`a`a`a`a`a`a`a`a`a`a`a`a`a`a`a`a`a`a`a`a`a`a`a`a`a`a`a`a`a`a`a`a`a`a````````````````",
"`````````````````````````````````````````````````````````````````c`a`a`a`a`a`a`a`a`a`a`a`a`a`a`a`a`a`a`a`a`a`a`a`a`a`a`a`a`a`a`a`a`a`a`a`a`a`a`a`a`a`a`a`a`a`a`a`a`a`a`a`a`a`a`a`a`a`a`a````````````````",
"```````````````````````````````````````````````````b`a`a`a`a`a`a`a`a`a`a`a`a`a`a`a`a`a`a`a`a`a`a`a`a`a`a`a`a`a`a`a`a`a`a`a`a`a`a`a`a`a`a`a`a`a`a`a`a`a`a`a`a`a`a`a`a`a`a`a`a`a`a`a`a`a`a`c``````````````",
"`````````````````````````````````````#`a`a`a`a`a`a`a`a`a`a`a`a`a`a`a`a`a`a`a`a`a`a`a`a`a`a`a`a`a`a`a`a`a`a`a`a`a`a`a`a`a`a`a`a`a`a`a`a`a`a`a`a`a`a`a`a`a`a`a`a`a`a`a`a`a`a`a`a`a`a`a`a`a`a``````````````",
"```````````````````````````l`l`l`l`l`l`l`l`l`l`l`l`l`l`l`l`l`l`l`l`l`l`l`l`l`l`l`l`l`l`l`l`l`l`l`l`l`l`l`l`l`l`l`l`l`l`l`l`l`l`l`l`l`l`l`l`l`l`l`l`l`l`l`l`l`l`l`l`l`l`l`l`l`l`l`n`a`a`a`a``````````````",
"`````````````````r`r`z`l`l`l`l`l`l`l`l`l`l`l`l`l`l`l`l`l`l`l`l`l`l`l`l`l`l`l`l`l`l`l`l`l`l`l`l`l`l`l`l`l`l`l`l`l`l`l`l`l`l`l`l`l`l`l`l`l`l`l`l`l`l`l`l`l`l`l`l`l`l`l`l`l`l`l`l`l`l`l`A`a`a``````````````",
"`````````````r`r`r`E`l`l`l`l`l`l`l`l`l`l`l`l`l`l`l`l`l`l`l`l`l`l`l`l`l`l`l`l`l`l`l`l`l`l`l`l`l`l`l`l`l`l`l`l`l`l`l`l`l`l`l`l`l`l`l`l`l`l`l`l`l`l`l`l`l`l`l`l`l`l`l`l`l`l`l`l`l`l`l`l`l`v`a``````````````",
"`````````G`r`r`r`B`l`l`l`l`l`l`l`l`l`l`l`l`l`l`l`l`l`l`l`l`l`l`l`l`l`l`l`l`l`l`l`l`l`l`l`l`l`l`l`l`l`l`l`l`l`l`l`l`l`l`l`l`l`l`l`l`l`l`l`l`l`l`l`l`l`l`l`l`l`l`l`l`l`l`l`l`l`l`l`l`l`l`l`H``````````````",
"```````r`r`r`r`r`l`l`l`l`l`l`l`l`l`l`l`l`l`l`l`l`l`l`l`l`l`l`l`l`l`l`l`l`l`l`l`l`l`l`l`l`l`l`l`l`l`l`l`l`l`l`l`l`l`l`l`l`l`l`l`l`l`l`l`l`l`l`l`l`l`l`l`l`l`l`l`l`l`l`l`l`l`l`l`l`l`l`l`l`l`M````````````",
"`````y`r`r`r`r`u`l`l`l`l`l`l`l`l`l`l`l`l`l`l`l`l`l`l`l`l`l`l`l`l`l`l`l`l`l`l`l`l`l`l`l`l`l`l`l`l`l`l`l`l`l`l`l`l`l`l`l`l`l`l`l`l`l`l`l`l`l`l`l`l`l`l`l`l`l`l`l`l`l`l`l`l`l`l`l`l`l`l`l`l`l`l````````````",
"`````r`r`r`r`r`l`l`l`l`l`l`l`l`l`l`l`l`l`l`l`l`l`l`l`l`l`l`l`l`l`l`l`l`l`l`l`l`l`l`l`l`l`l`l`l`l`l`l`l`l`l`l`l`l`l`l`l`l`l`l`l`l`l`l`l`l`l`l`l`l`l`l`l`l`l`l`l`l`l`l`l`l`l`l`l`l`l`l`l`l`l`l````````````",
"```r`r`r`r`r`S`l`l`l`l`l`l`l`l`l`l`l`l`l`l`l`l`l`l`l`l`l`l`l`l`l`l`l`l`l`l`l`l`l`l`l`l`l`l`l`l`l`l`l`l`l`l`l`l`l`l`l`l`l`l`l`l`l`l`l`l`l`l`l`l`l`l`l`l`l`l`l`l`l`l`l`l`l`l`l`l`l`l`l`l`l`l`l`l``````````",
"```r`r`r`r`r`T`l`l`l`l`l`l`l`l`l`l`l`l`l`l`l`l`l`l`l`l`l`l`l`l`l`l`l`l`l`l`l`l`l`l`l`l`l`l`l`l`l`l`l`l`l`l`l`l`l`l`l`l`l`l`l`l`l`l`l`l`l`l`l`l`l`l`l`l`l`l`l`l`l`l`l`l`l`l`l`l`l`l`l`l`l`l`l`l``````````",
"```r`r`r`r`r`U`l`l`l`l`l`l`l`l`l`l`l`l`l`l`l`l`l`l`l`l`l`l`l`l`l`l`l`l`l`l`l`l`l`l`l`l`l`l`l`l`l`l`l`l`l`l`l`l`l`l`l`l`l`l`l`l`l`l`l`l`l`l`l`l`l`l`l`l`l`l`l`l`l`l`l`l`l`l`l`l`l`l`l`l`l`l`l`l``````````",
"```r`r`r`r`r`U`l`l`l`l`l`l`l`l`l`l`l`l`l`l`l`l`l`l`l`l`l`l`l`l`l`l`l`l`l`l`l`l`l`l`l`l`l`l`l`l`l`l`l`l`l`l`l`l`l`l`l`l`l`l`l`l`l`l`l`l`l`l`l`l`l`l`l`l`l`l`l`l`l`l`l`l`l`l`l`l`l`l`l`l`l`l`l`l``````````",
"`V`r`r`r`r`r`U`l`l`l`l`l`l`l`l`l`l`l`l`l`l`l`l`l`l`l`l`l`l`l`l`l`l`l`l`l`l`l`l`l`l`l`l`l`l`l`l`l`l`l`l`l`l`l`l`l`l`l`l`l`l`l`l`l`l`l`l`l`l`l`l`l`l`l`l`l`l`l`l`l`l`l`l`l`l`l`l`l`l`l`l`l`l`l`l``````````",
"```r`r`r`r`r`U`l`l`l`l`l`l`l`l`l`l`l`l`l`l`l`l`l`l`l`l`l`l`l`l`l`l`l`l`l`l`l`l`l`l`l`l`l`l`l`l`l`l`l`l`l`l`l`l`l`l`l`l`l`l`l`l`l`l`l`l`l`l`l`l`l`l`l`l`l`l`l`l`l`l`l`l`l`l`l`l`l`l`l`l`l`l`l`l``````````",
"```r`r`r`r`r`U`l`l`l`l`l`l`l`l`l`l`l`l`l`l`l`l`l`l`l`l`l`l`l`l`l`l`l`l`l`l`l`l`l`l`l`l`l`l`l`l`l`l`l`l`l`l`l`l`l`l`l`l`l`l`l`l`l`l`l`l`l`l`l`l`l`l`l`l`l`l`l`l`l`l`l`l`l`l`l`l`l`l`l`l`l`l`l`l``````````",
"```r`r`r`r`r`U`l`l`l`l`l`l`l`l`l`l`l`l`l`l`l`l`l`l`l`l`l`l`l`l`l`l`l`l`l`l`l`l`l`l`l`l`l`l`l`l`l`l`l`l`l`l`l`l`l`l`l`l`l`l`l`l`l`l`l`l`l`l`l`l`l`l`l`l`l`l`l`l`l`l`l`l`l`l`l`l`l`l`l`l`l`l`l`l`V````````",
"```r`r`r`r`r`U`l`l`l`l`l`l`l`l`l`l`l`l`l`l`l`l`l`l`l`l`l`l`l`l`l`l`l`l`l`l`l`l`l`l`l`l`l`l`l`l`l`l`l`l`l`l`l`l`l`l`l`l`l`l`l`l`l`l`l`l`l`l`l`l`l`l`l`l`l`l`l`l`l`l`l`l`l`l`l`l`l`l`l`l`l`l`l`l`r````````",
"```r`r`r`r`r`l`l`l`l`l`l`l`l`l`l`l`l`l`l`l`l`l`l`l`l`l`l`l`l`l`l`l`l`l`l`l`l`l`l`l`l`l`l`l`l`l`l`l`l`l`l`l`l`l`l`l`l`l`l`l`l`l`l`l`l`l`l`l`l`l`l`l`l`l`l`l`l`l`l`l`l`l`l`l`l`l`l`l`l`l`l`l`l`l`r````````",
"```r`r`r`r`r`l`l`l`l`l`l`l`l`l`l`l`l`l`l`l`l`l`l`l`l`l`l`l`l`l`l`l`l`l`l`l`l`l`l`l`l`l`l`l`l`l`l`l`l`l`l`l`l`l`l`l`l`l`l`l`l`l`l`l`l`l`l`l`l`l`l`l`l`l`l`l`l`l`l`l`l`l`l`l`l`l`l`l`l`l`l`l`l`l`r````````",
"```y`r`r`r`r`l`l`l`l`l`l`l`l`l`l`l`l`l`l`l`l`l`l`l`l`l`l`l`l`l`l`l`l`l`l`l`l`l`l`l`l`l`l`l`l`l`l`l`l`l`l`l`l`l`l`l`l`l`l`l`l`l`l`l`l`l`l`l`l`l`l`l`l`l`l`l`l`l`l`l`l`l`l`l`l`l`l`l`l`l`l`l`l`l`r````````",
"`````r`r`r`r`l`l`l`l`l`l`l`l`l`l`l`l`l`l`l`l`l`l`l`l`l`l`l`l`l`l`l`l`l`l`l`l`l`l`l`l`l`l`l`l`l`l`l`l`l`l`l`l`l`l`l`l`l`l`l`l`l`l`l`l`l`l`l`l`l`l`l`l`l`l`l`l`l`l`l`l`l`l`l`l`l`l`l`l`l`l`l`l`l`r````````",
"`````r`r`r`r`l`l`l`l`l`l`l`l`l`l`l`l`l`l`l`l`l`l`l`l`l`l`l`l`l`l`l`l`l`l`l`l`l`l`l`l`l`l`l`l`l`l`l`l`l`l`l`l`l`l`l`l`l`l`l`l`l`l`l`l`l`l`l`l`l`l`l`l`l`l`l`l`l`l`l`l`l`l`l`l`l`l`l`l`l`l`l`l`l`r`p``````",
"`````r`r`r`r`l`l`l`l`l`l`l`l`l`l`l`l`l`l`l`l`l`l`l`l`l`l`l`l`l`l`l`l`l`l`l`l`l`l`l`l`l`l`l`l`l`l`l`l`l`l`l`l`l`l`l`l`l`l`l`l`l`l`l`l`l`l`l`l`l`l`l`l`l`l`l`l`l`l`l`l`l`l`l`l`l`l`l`l`l`l`l`l`l`r`r``````",
"`````r`r`r`r`l`l`l`l`l`l`l`l`l`l`l`l`l`l`l`l`l`l`l`l`l`l`l`l`l`l`l`l`l`l`l`l`l`l`l`l`l`l`l`l`l`l`l`l`l`l`l`l`l`l`l`l`l`l`l`l`l`l`l`l`l`l`l`l`l`l`l`l`l`l`l`l`l`l`l`l`l`l`l`l`l`l`l`l`l`l`l`l`l`r`r``````",
"`````r`r`r`r`l`l`l`l`l`l`l`l`l`a`a`a.``l`l`l`l`a`a`a`a`l`l`l`Z`a`a`a`a`a`a`a`4`l`l`l........`8`l`l`l`l`l`l`l`l`l`l`l`l`l`l`l`l`l`l`l`l`l`l`l`l`l`l`l`l`l`l`l`l`l`l`l`l`l`l`l`l`l`l`l`l`l`l`l`l`r`r``````",
"`````r`r`r`r`l`l`l`l`l`l`l`l`4`a`a`a`a`l`l`l.d`a`a`a`a`l`l`l`Z`a`a`a`a`a`a`a`a`4`l`l`l`5....`O`l`l`l`l`l`l`l`l`l`l`l`l`l`l`l`l`l`l`l`l`l`l`l`l`l`l`l`l`l`l`l`l`l`l`l`l`l`l`l`l`l`l`l`l`l`l`l`l`r`r``````",
"`````V`r`r`r`l`l`l`l`l`l`l`l`3`a`a`a`a`l`l`l`0`a`a`a`a`l`l`l`Z`a`a`a`3`Z`a`a`a`a`l`l`l`7....`l`l`l`l`l`l`l`l`l`l`l`l`l`l`l`l`l`l`l`l`l`l`l`l`l`l`l`l`l`l`l`l`l`l`l`l`l`l`l`l`l`l`l`l`l`l`l`l`l`r`r``````",
"```````r`r`r`l`l`l`l`l`l`l`l`0`a`a`a`a.f`l`l`a`a`a`a`a`l`l`l`Z`a`a`a`l`l`3`a`a`a`l`l`l......`l`l`l`l`l`l`l`l`l`l`l`l`l`l`l`l`l`l`l`l`l`l`l`l`l`l`l`l`l`l`l`l`l`l`l`l`l`l`l`l`l`l`l`l`l`l`l`l`l`r`r``````",
"```````r`r`r`l`l`l`l`l`l`l`l`a`a`a`a`a`a`l.f`a`a`a`a`a`4`l`l`Z`a`a`a`l`l`3`a`a`a`l`l`l.....k`l`l`l`l`6.....l`k`5.k`l`l.m.....m`l`l`l.l....`l`l`l`l`O.l.....k.i`l.i`8...k`l`l.l..`O`l`l`l`l`l`l`r`r`G````",
"```````r`r`r`l`l`l`l`l`l`l`l`a`a`a`a`a`a.#`a`a`a`Z`a`a`3`l`l`Z`a`a`a`3`3`a`a`a`a`l`l`k.....m`l`l`l....`7`l.a......`l`O`R.l....`l`l`l.....b`l`l`l.l..`O`l......`l`5.c.....b.l......`l`l`l`l`l`l`r`r`r````",
"```````r`r`r`l`l`l`l`l`l`l`l`a`a`a`4`a`a`0`a`a`a`3`a`a`Z`l`l`Z`a`a`a`a`a`a`a`a.``l`l`5....`l`l`l......`l`l`l....`5`l`l`l`7....`l`l`k.....m`l`l.l....`l`l......`l`l`l.....l`l.....l`l`l`l`l`l`l`r`r`r````",
"```````r`r`r`l`l`l`l`l`l`l`4`a`a`a`l`a`a`a`a`a`4`4`a`a`a`l`l`Z`a`a`a`a`a`a`a`3`l`l`l......`l`l.a....`5`l`l.c.....i`l`l`l......`l`l`5....`l`l`l....`7`l.i....`k`l`l`k....`R`l`6`7`l`l`l`l`l`l`l`r`r`r````",
"```````r`r`r`l`l`l`l`l`l`l.f`a`a`Z`l.f`a`a`a`a`l`l`a`a`a`l`l`Z`a`a`a`l`l`l`l`l`l`l`l......`l`l`7....`O`l`l.k....`l`l`l`l.....k`l`l......`l`l.m...........c`l`l`l`l`5....`l`l`l`l`l`l`l`l`l`l`l`r`r`r````",
"```````V`r`r`l`l`l`l`l`l`l`a`a`a`3`l`l`a`a`a.f`l`l`a`a`a`l`l`Z`a`a`a`l`l`l`l`l`l`l`l....`5`l`l......`l`l`l......`l`l`l.a....`R`l`l......`l`l`5....`5`l`l`l`l`l`l`l......`l`l`l`l`l`l`l`l`l`l`l`r`r`r````",
"`````````r`r`l`l`l`l`l`l`l`a`a`a`4`l`l`a`a`a`l`l`l`a`a`a`l`l`Z`a`a`a`l`l`l`l`l`l`l`O....`O`l`l`7....`R`l.i....`7`l`l`l`5.....i`l`5....`8`l`l.i.....l`l`l`l`6`8`l`l......`l`l`l`l`l`l`l`l`l`l`l`r`r`r`y``",
"`````````r`r`l`l`l`l`l`l`l`a`a`a`l`l`l`4`a`2`l`l`l`a`a`a.g`l`Z`a`a`a`l`l`l`l`l`l`l`k......`7`k`l.......l.b.........c`l.m.........m.....a`l`l`l.b.......k..`8`l`l`l....`5`l`l`l`l`l`l`l`l`l`l`l`r`r`r`r``",
"`````````r`r`l`l`l`l`l`l`l`4`4`4`l`l`l`l`4`v`l`l`l`4`4`4.d`l.#`4`4`4`l`l`l`l`l`l`l`l`O`7`6.i`l`l`l`5`8`k`l`l`5`5`l`l`l`l.m`8.m`l.b....`l`l`l`l`l`k`8`7`5`l`l`l`l.i`O`O.i`l`l`l`l`l`l`l`l`l`l`l`r`r`r`r``",
"`````````r`r`l`l`l`l`l`l`l`l`l`l`l`l`l`l`l`l`l`l`l`l`l`l`l`l`l`l`l`l`l`l`l`l`l`l`l`l`l`l`l`l`l`l`l`l`l`l`l`l`l`l`l`l`l...l`l`l`l....`5`l`l`l`l`l`l`l`l`l`l`l`l`l`l`l`l`l`l`l`l`l`l`l`l`l`l`l`l`r`r`r`r``",
"`````````r`r`l`l`l`l`l`l`l`l`l`l`l`l`l`l`l`l`l`l`l`l`l`l`l`l`l`l`l`l`l`l`l`l`l`l`l`l`l`l`l`l`l`l`l`l`l`l`l`l`l`l`l`l`l.....k`l.b...b`l`l`l`l`l`l`l`l`l`l`l`l`l`l`l`l`l`l`l`l`l`l`l`l`l`l`l`l`l`r`r`r`r``",
"`````````y`r`l`l`l`l`l`l`l`l`l`l`l`l`l`l`l`l`l`l`l`l`l`l`l`l`l`l`l`l`l`l`l`l`l`l`l`l`l`l`l`l`l`l`l`l`l`l`l`l`l`l`l`l`l`8........`R`l`l`l`l`l`l`l`l`l`l`l`l`l`l`l`l`l`l`l`l`l`l`l`l`l`l`l`l`l`l`r`r`r`r``",
"```````````r`l`l`l`l`l`l`l`l`l`l`l`l`l`l`l`l`l`l`l`l`l`l`l`l`l`l`l`l`l`l`l`l`l`l`l`l`l`l`l`l`l`l`l`l`l`l`l`l`l`l`l`l`l`l`l`l`l`l`l`l`l`l`l`l`l`l`l`l`l`l`l`l`l`l`l`l`l`l`l`l`l`l`l`l`l`l`l`l`l`r`r`r`r`V",
"```````````r`l`l`l`l`l`l`l`l`l`l`l`l`l`l`l`l`l`l`l`l`l`l`l`l`l`l`l`l`l`l`l`l`l`l`l`l`l`l`l`l`l`l`l`l`l`l`l`l`l`l`l`l`l`l`l`l`l`l`l`l`l`l`l`l`l`l`l`l`l`l`l`l`l`l`l`l`l`l`l`l`l`l`l`l`l`l`l`l`l`r`r`r`r`r",
"```````````r`l`l`l`l`l`l`l`l`l`l`l`l`l`l`l`l`l`l`l`l`l`l`l`l`l`l`l`l`l`l`l`l`l`l`l`l`l`l`l`l`l`l`l`l`l`l`l`l`l`l`l`l`l`l`l`l`l`l`l`l`l`l`l`l`l`l`l`l`l`l`l`l`l`l`l`l`l`l`l`l`l`l`l`l`l`l`l`l`l`r`r`r`r`r",
"```````````r`l`l`l`l`l`l`l`l`l`l`l`l`l`l`l`l`l`l`l`l`l`l`l`l`l`l`l`l`l`l`l`l`l`l`l`l`l`l`l`l`l`l`l`l`l`l`l`l`l`l`l`l`l`l`l`l`l`l`l`l`l`l`l`l`l`l`l`l`l`l`l`l`l`l`l`l`l`l`l`l`l`l`l`l`l`l`l`l`l`r`r`r`r`r",
"```````````r`l`l`l`l`l`l`l`l`l`l`l`l`l`l`l`l`l`l`l`l`l`l`l`l`l`l`l`l`l`l`l`l`l`l`l`l`l`l`l`l`l`l`l`l`l`l`l`l`l`l`l`l`l`l`l`l`l`l`l`l`l`l`l`l`l`l`l`l`l`l`l`l`l`l`l`l`l`l`l`l`l`l`l`l`l`l`l`l`l`r`r`r`r`r",
"```````````r`l`l`l`l`l`l`l`l`l`l`l`l`l`l`l`l`l`l`l`l`l`l`l`l`l`l`l`l`l`l`l`l`l`l`l`l`l`l`l`l`l`l`l`l`l`l`l`l`l`l`l`l`l`l`l`l`l`l`l`l`l`l`l`l`l`l`l`l`l`l`l`l`l`l`l`l`l`l`l`l`l`l`l`l`l`l`l`l`l`r`r`r`r`r",
"```````````V`l`l`l`l`l`l`l`l`l`l`l`l`l`l`l`l`l`l`l`l`l`l`l`l`l`l`l`l`l`l`l`l`l`l`l`l`l`l`l`l`l`l`l`l`l`l`l`l`l`l`l`l`l`l`l`l`l`l`l`l`l`l`l`l`l`l`l`l`l`l.``Z`Z`1`Z`3.d`l`l`l`l`l`l`l`l`l`l`l`l`r`r`r`r`r",
"`````````````l`l`l`l`l`l`l`l`l`l`l`l`l`l`l`l`l`l`l`l`l`l`l`l`l`l`l`l`l`l`l`l`l`l`l`l`l`l`l`l`l`l`l`l`l`l`l`l`l`l`l`l`l`l`l`l`l`l`l`l`l`l`l`l`l`l`l`3`a`a`a`a`a`a`a`a`a`a`2`l`l`l`l`l`l`l`l`l`l`r`r`r`r`r",
"`````````````l`l`l`l`l`l`l`l`l`l`l`l`l`l`l`l`l`l`l`l`l`l`l`l`l`l`l`l`l`l`l`l`l`l`l`l`l`l`l`l`l`l`l`l`l`l`l`l`l`l`l`l`l`l`l`l`l`l`l`l`l`l`l`l`l`4`a`a`a`a`a`a`a`a`a`a`a`a`a`a`1`l`l`l`l`l`l`l`l`r`r`r`r`r",
"`````````````l`l`l`l`l`l`l`l`l`l`l`l`l`l`l`l`l`l`l`l`l`l`l`l`l`l`l`l`l`l`l`l`l`l`l`l`l`l`l`l`l`l`l`l`l`l`l`l`l`l`l`l`l`l`l`l`l`l`l`l`l`l`l`l`Z`a`a`a`a`a`3`v`l`l`l`4`1`a`a`a`a`a`v`l`l`l`l`l`l`r`r`r`r`r",
"`````````````l`l`l`l`l`l`l`l`l`l`l`l`l`l`l`l`l`l`l`l`l`l`l`l`l`l`l`l`l`l`l`l`l`l`l`l`l`l`l`l`l`l`l`l`l`l`l`l`l`l`l`l`l`l`l`l`l`l`l`l`l`l`l`0`a`a`a`0`l`l`l`l`l`l`l`l`l`l`3`a`a`a`a`v`l`l`l`l`l`r`r`r`r`G",
"`````````````l`l`l`l`l`l`l`l`l`l`l`l`l`l`l`l`l`l`l`l`l`l`l`l`l`l`l`l`l`l`l`l`l`l`l`l`l`l`l`l`l`l`l`l`l`l`l`l`l`l`l`l`l`l`l`l`l`l`l`l`l`l`Z`a`a`a.``l`l`l`l`l`l`l`l`l`l`l`l`l`a`a`a`a`l`l`l`l`l`r`r`r`r``",
"`````````````l`l`l`l`l`l`l`l`l`l`l`l`l`l`l`l`l`l`l`l`l`l`l`l`l`l`l`l`l`l`l`l`l`l`l`l`l`l`l`l`l`l`l`l`l`l`l`l`l`l`l`l`l`l`l`l`l`l`l`l`l`4`a`a`a.#`l`l`O...i`l`l`l`l`l`l`l`l`l`l`0`a`a`a`l`l`l.r`r`r`r`q``",
"```````````````l`l`l`l`l`l`l`l`l`l`l`l`l`l`l`l`l`l`l`l`l`l`l`l`l`l`l`l`l`l`l`l`l`l`l`l`l`l`l`l`l`l`l`l`l`l`l`l`l`l`l`l`l`l`l`l`l`l`l`l`a`a`a.``l`l`l`O.....k`l`l`l`l`l`l`l`l`l`l`a`a`a.``l`l.t`r`r`r````",
"```````````````l`l`l`l`l`l`l`l`l`l`l`l`l`l`l`l`l`l`l`l`l`l`l`l`l`l`l`l`l`l`l`l`l`l`l`l`l`l`l`l`l`l`l`l`l`l`l`l`l`l`l`l`l`l`l`l`l`l`l.``a`a`0`l`l`l`l`O........`7`l`l`l`l`l`l`l`l.d`a`a`a`l`l`r`r`r``````",
"``````````````.y`l`l`l`l`l`l`l`l`l`l`l`l`l`l`l`l`l`l`l`l`l`l`l`l`l`l`l`l`l`l`l`l`l`l`l`l`l`l`l`l`l`l`l`l`l`l`l`l`l`l`l`l`l`l`l`l`l`l`a`a`a`v`l`l`l`l`O............`6`l`l`l`l`l`l`l`0`a`a.d.A`r`V````````",
"```````````````a.D`l`l`l`l`l`l`l`l`l`l`l`l`l`l`l`l`l`l`l`l`l`l`l`l`l`l`l`l`l`l`l`l`l`l`l`l`l`l`l`l`l`l`l`l`l`l`l`l`l`l`l`l`l`l`l`l`l`a`a`a`l`l`l`l`l`O.................m`l`l`l`l`l.#`a`a.E`p````````````",
"`````````````````a.G`l`l`l`l`l`l`l`l`l`l`l`l`l`l`l`l`l`l`l`l`l`l`l`l`l`l`l`l`l`l`l`l`l`l`l`l`l`l`l`l`l`l`l`l`l`l`l`l`l`l`l`l`l`l`l.g`a`a`3`l`l`l`l`l`O....................`O`l`l`l`l`a`a`a``````````````",
"`````````````````a`a`a.K`l`l`l`l`l`l`l`l`l`l`l`l`l`l`l`l`l`l`l`l`l`l`l`l`l`l`l`l`l`l`l`l`l`l`l`l`l`l`l`l`l`l`l`l`l`l`l`l`l`l`l`l`l.n`a`a.d`l`l`l`l`l`O.........................i`l`l`a`a`a``````````````",
"`````````````````a`a`a`a`a`a.N.O.P.P.P.P.P.P.P.P.P.P.P.P.P.P.P.P.P.P.P.Q.Q.Q.Q.Q.Q.Q.Q.Q.Q.Q.Q.Q.Q.Q.Q.Q.Q.Q.Q.Q.Q.Q.Q.Q.Q.Q.Q.Q.Q.R`a`a`l`l`l`l`l`l`O...........................m`l`a`a`a``````````````",
"`````````````````a`a`a`a`a`a`a`a`a`a`a`a`a`a`a`a`a`a`a`a`a`a`a`a`a`a`a`a`a`a`a`a`a`a`a`a`a`a`a`a`a`a`a`a`a`a`a`a`a`a`a`a`a`a`a`a`a`a`a`a`l`l`l`l`l`l`O......................`7`l`l`l`a`a`a``````````````",
"```````````````````a`a`a`a`a`a`a`a`a`a`a`a`a`a`a`a`a`a`a`a`a`a`a`a`a`a`a`a`a`a`a`a`a`a`a`a`a`a`a`a`a`a`a`a`a`a`a`a`a`a`#```````````#`a`a`l`l`l`l`l`l`O...................l`l`l`l`l`l`a`a`a``````````````",
"```````````````````a`a`a`a`a`a`a`a`a`a`a`a`a`a`a`a`a`a`a`a`a`a`a`a`a`a`a`a`a`a`a`a`a`a`a`a`a`a`a`a`a`a`a`d```````````````````````````a`a.g`l`l`l`l`l`O................`O`l`l`l`l`l`l`a`a`a``````````````",
"`````````````````````a`a`a`a`a`a`a`a`a`a`a`a`a`a`a`a`a`a`a`a`a`a`a`a`a`a`a`a`a`a`a`a`a`a`a`a`#```````````````````````````````````````a`a`2`l`l`l`l`l`O............`5`l`l`l`l`l`l`l`l`a`a`a``````````````",
"```````````````````````a`a`a`a`a`a`a`a`a`a`a`a`a`a`a`a`a`a`a`a`a`a`a`a`a`a`a`a`#`````````````````````````````````````````````````````a`a`a`l`l`l`l`l`O.........b`l`l`l`l`l`l`l`l`l.f`a`a````````````````",
"`````````````````````````a`a`a`a`a`a`a`a`a`a`a`a`a`a`a`a`a`a`a`a`d```````````````````````````````````````````````````````````````````b`a`a`3`l`l`l`l`O.......i`l`l`l`l`l`l`l`l`l`l`a`a`a````````````````",
"`````````````````````````````a`a`a`a`a`a`a`a`a`a`a`a`#`````````````````````````````````````````````````````````````````````````````````a`a`a`l`l`l`l`O..`R`l`l`l`l`l`l`l`l`l`l`l`1`a`a`#````````````````",
"```````````````````````````````````#`#`#```````````````````````````````````````````````````````````````````````````````````````````````#`a`a`a`l`l`l`k`l`l`l`l`l`l`l`l`l`l`l`l.``a`a`a``````````````````",
"`````````````````````````````````````````````````````````````````````````````````````````````````````````````````````````````````````````a`a`a`a`l`l`l`l`l`l`l`l`l`l`l`l`l`l.``a`a`a````````````````````",
"```````````````````````````````````````````````````````````````````````````````````````````````````````````````````````````````````````````a`a`a`a.#`l`l`l`l`l`l`l`l`l`l`l`1`a`a`a``````````````````````",
"`````````````````````````````````````````````````````````````````````````````````````````````````````````````````````````````````````````````a`a`a`a`a.g`l`l`l`l`l`l`l.n`a`a`a`a````````````````````````",
"```````````````````````````````````````````````````````````````````````````````````````````````````````````````````````````````````````````````c`a`a`a`a`a`a`a`a`a`a`a`a`a`a`a``````````````````````````",
"```````````````````````````````````````````````````````````````````````````````````````````````````````````````````````````````````````````````````a`a`a`a`a`a`a`a`a`a`a`a`#````````````````````````````",
"```````````````````````````````````````````````````````````````````````````````````````````````````````````````````````````````````````````````````````.`a`a`a`a`a`a`c``````````````````````````````````"
};
