/* XPM */
static const char * const mplayer_desktop_xpm[] = {
"47 39 107 2",
"  	c None",
". 	c #6D619F",
"+ 	c #6F64A0",
"@ 	c #7C72A8",
"# 	c #3D2D7F",
"$ 	c #39297C",
"% 	c #3A2A7D",
"& 	c #948BB8",
"* 	c #413282",
"= 	c #38277B",
"- 	c #4E408A",
"; 	c #36267A",
"> 	c #594C91",
", 	c #342479",
"' 	c #D7F1FB",
") 	c #12B0E8",
"! 	c #FEFEFE",
"~ 	c #FFFFFF",
"{ 	c #54468E",
"] 	c #A5E1F6",
"^ 	c #0AADE7",
"/ 	c #48C2ED",
"( 	c #B0E5F7",
"_ 	c #9DDEF5",
": 	c #FAFDFE",
"< 	c #45C1ED",
"[ 	c #03ABE7",
"} 	c #09ADE7",
"| 	c #0BAEE7",
"1 	c #17B1E9",
"2 	c #F7F7FA",
"3 	c #CECADF",
"4 	c #000000",
"5 	c #95DBF4",
"6 	c #6C619E",
"7 	c #F8F8F8",
"8 	c #5C4F93",
"9 	c #37277B",
"0 	c #332378",
"a 	c #1A1A1A",
"b 	c #020202",
"c 	c #2E2E2E",
"d 	c #E0E0E0",
"e 	c #C9C9C9",
"f 	c #F7F7F7",
"g 	c #202020",
"h 	c #38287B",
"i 	c #352479",
"j 	c #929292",
"k 	c #4E4E4E",
"l 	c #FAFAFA",
"m 	c #EDEDED",
"n 	c #9C9C9C",
"o 	c #6ECEF1",
"p 	c #E1E0EC",
"q 	c #55488F",
"r 	c #E3E3E3",
"s 	c #515151",
"t 	c #666666",
"u 	c #5E5E5E",
"v 	c #676767",
"w 	c #0DAEE8",
"x 	c #2C1B73",
"y 	c #35257A",
"z 	c #C1BCD6",
"A 	c #322177",
"B 	c #F7F6FA",
"C 	c #CFCFCF",
"D 	c #555555",
"E 	c #05ACE7",
"F 	c #DEDEDE",
"G 	c #33BBEB",
"H 	c #9FDFF6",
"I 	c #645799",
"J 	c #3C2D7E",
"K 	c #5A4D92",
"L 	c #13B0E8",
"M 	c #332278",
"N 	c #BAE8F8",
"O 	c #4C3D88",
"P 	c #D4D1E3",
"Q 	c #3E2E7F",
"R 	c #888888",
"S 	c #9389B7",
"T 	c #35BCEB",
"U 	c #978EBA",
"V 	c #E1E1E1",
"W 	c #2E1D75",
"X 	c #3ABDEC",
"Y 	c #403080",
"Z 	c #FCFCFC",
"` 	c #DEDCEA",
" .	c #3E2F80",
"..	c #D8D5E4",
"+.	c #EBEAF2",
"@.	c #F8F8FA",
"#.	c #2F1E75",
"$.	c #695D9C",
"%.	c #FAF9FB",
"&.	c #EFEFEF",
"*.	c #453684",
"=.	c #36257A",
"-.	c #575757",
";.	c #2F1F76",
">.	c #584B91",
",.	c #F9F8FB",
"'.	c #3B2B7E",
"                                                                          . +                 ",
"                                                            @ # $ $ $ $ $ $ $ $ %             ",
"                                              & * = $ $ $ $ $ $ $ $ $ $ $ $ $ $ $ $           ",
"                                @ - ; $ $ $ $ $ $ $ $ $ $ $ $ $ $ $ $ $ $ $ $ $ $ $ $         ",
"                  @ > , $ $ $ $ $ $ $ $ $ $ $ $ $ $ $ $ $ $ $ $ $ $ $ $ $ $ $ $ $ $ $         ",
"      ' ) ! ! ! ! ! ! ! ! ! ! ! ! ! ! ! ! ! ! ! ! ! ! ! ! ! ! ! ! ! ! ! ! ! ! ! ~ { $         ",
"  ] ^ / ! ! ! ! ! ! ! ! ! ! ! ! ! ! ! ! ! ! ! ! ! ! ! ! ! ! ! ! ! ! ! ! ! ! ! ! ! ! ~         ",
"( ^ ^ ! ! ! ! ! ! ! ! ! ! ! ! ! ! ! ! ! ! ! ! ! ! ! ! ! ! ! ! ! ! ! ! ! ! ! ! ! ! ! ! ~       ",
"^ ^ _ ! ! ! ! ! ! ! ! ! ! ! ! ! ! ! ! ! ! ! ! ! ! ! ! ! ! ! ! ! ! ! ! ! ! ! ! ! ! ! ! !       ",
"^ ^ : ! ! ! ! ! ! ! ! ! ! ! ! ! ! ! ! ! ! ! ! ! ! ! ! ! ! ! ! ! ! ! ! ! ! ! ! ! ! ! ! !       ",
"^ ^ ~ ! ! ! ! ! ! ! ! ! ! ! ! ! ! ! ! ! ! ! ! ! ! ! ! ! ! ! ! ! ! ! ! ! ! ! ! ! ! ! ! !       ",
"^ ^ ~ ! ! ! ! ! ! ! ! ! ! ! ! ! ! ! ! ! ! ! ! ! ! ! ! ! ! ! ! ! ! ! ! ! ! ! ! ! ! ! ! !       ",
"^ ^ ~ ! ! ! ! ! ! ! ! ! ! ! ! ! ! ! ! ! ! ! ! ! ! ! ! ! ! ! ! ! ! ! ! ! ! ! ! ! ! ! ! !       ",
"^ ^ ~ ! ! ! ! ! ! ! ! ! ! ! ! ! ! ! ! ! ! ! ! ! ! ! ! ! ! ! ! ! ! ! ! ! ! ! ! ! ! ! ! ! <     ",
"^ ^ ~ ! ! ! ! ! ! ! ! ! ! ! ! ! ! ! ! ! ! ! ! ! ! ! ! ! ! ! ! ! ! ! ! ! ! ! ! ! ! ! ! ! [     ",
"} ^ ~ ! ! ! ~ ~ ! ! ~ ~ ! ~ ~ ~ ~ ! ! ~ ~ ! ! ! ! ! ! ! ! ! ! ! ! ! ! ! ! ! ! ! ! ! ! ! |     ",
"1 ^ ~ ! ! ! $ $ ~ ! $ $ ! 2 $ $ $ 3 ! ~ 4 ! ! ! ! ! ! ! ! ! ! ! ! ! ! ! ! ! ! ! ! ! ! ! ^     ",
"5 ^ ~ ! ! ! $ $ 6 ~ $ $ ! 2 $ 3 ! $ ! 7 4 ! ! ! ! ! ! ! ! ! ! ! ! ! ! ! ! ! ! ! ! ! ! ! ^     ",
"  ^ ~ ! ! ! $ 8 $ 9 0 $ ~ 2 $ 3 ! $ ! a 4 ! b c d 4 ! e 4 ! 4 4 ! 4 4 4 f g g 4 4 ! ! ! ^     ",
"  ^ ~ ! ! ~ $ ~ $ $ ~ $ 3 2 $ h i 3 ! 4 j ~ 4 ! k 4 ! d 4 ! 4 l m 4 ~ 4 ! ~ 4 ! n ! ! ! ^ o   ",
"  ^ ~ ! ! p $ ! = $ ! $ q 2 $ 3 ! ! ! 4 ~ r 4 ! 4 s ! d b ! 4 ~ t 4 u ! ! v 4 ! ! ! ! ! ^ w   ",
"  ^ ~ ! ! x y ! ~ z ! y A B y 3 ! ! ! 4 ! ! 4 4 C 4 ~ D D 4 4 ! ! 4 4 u ! 4 g ! ! ! ! ! ^ ^   ",
"  E ~ ! ! ! ! ! ! ! ! ! ! ! ! ! ! ! ! ! ! ! ! ! ! ! ! 4 ~ 4 F ! ! ! ! ! ! ! ! ! ! ! ! ! ^ ^   ",
"  G ~ ! ! ! ! ! ! ! ! ! ! ! ! ! ! ! ! ! ! ! ! ! ! ! ! ~ 4 ! ! ! ! ! ! ! ! ! ! ! ! ! ! ! ^ ^   ",
"  ' ~ ! ! ! ! ! ! ! ! ! ! ! ! ! ! ! ! ! ! ! ! ! ! ! ! ! ! ! ! ! ! ! ! ! ! ! ! ! ! ! ! ! ^ ^   ",
"    ! ! ! ! ! ! ! ! ! ! ! ! ! ! ! ! ! ! ! ! ! ! ! ! ! ! ! ! ! ! ! ! ! ! ! ! ! ! ! ! ! ! ^ ^ H ",
"    ! ! ! ! ! ! ! ! ! ! ! ! ! ! ! ! ! ! ! ! ! ! ! ! ! ! ! ! ! ! ! ! ~ I J K ~ ! ! ! ! ! ^ ^ L ",
"    ! ! ! ! ! ! ! ! ! ! ! ! ! ! ! ! ! ! ! ! ! ! ! ! ! ! ! ! ! ! ~ % $ % M % $ $ ~ ! ! ! ^ ^ N ",
"    ! ! ! ! ! ! ! ! ! ! ! ! ! ! ! ! ! ! ! ! ! ! ! ! ! ! ! ! ! ~ $ A ! ! ! ! ! O $ P ! ! ^ ^   ",
"      ! ! ! ! ! ! ! ! ! ! ! ! ! ! ! ! ! ! ! ! ! ! ! ! ! ! ! ! $ Q ! a R ! ! ! ! S $ ~ ~ ^ T   ",
"      ! ! ! ! ! ! ! ! ! ! ! ! ! ! ! ! ! ! ! ! ! ! ! ! ! ! ! U $ ! ! a 4 4 V ! ! ! $ W [ X     ",
"      , ! ! ! ! ! ! ! ! ! ! ! ! ! ! ! ! ! ! ! ! ! ! ! ! ! ! $ Y ! ! a 4 4 4 4 Z ! ` $         ",
"      $ $  ...+.+.+.+.+.+.+.~ ~ ~ ~ ~ ~ ~ ~ ~ ~ ~ ~ ~ ~ ~ ~ $ @.! ! a 4 4 4 4 4 4 ~ $         ",
"      #.$ $ $ $ $ $ $ $ $ $ $ $ $ $ $ $ $ $ $ $ $ $ ; $.    $ %.! ! a 4 4 4 4 &.! ~ $         ",
"        $ $ $ $ $ $ $ $ $ $ $ $ $ $ $ = *.@                 $ =.! ! a 4 4 -.! ! ! U $         ",
"          $ $ $ $ $ $ $ $ ;.@                                 $ ! ! a 4 ! ! ! ! ! % >.        ",
"                                                              $ % ! ~ ! ! ! ! ! $ $           ",
"                                                                % $ ,.! ! ! ~ $ $             ",
"                                                                  '.$ $ $ $ $ 9               "};
