/* XPM */
static char * MPlayer_mini_xpm[] = {
"16 16 123 2",
"  	c None",
". 	c #9A95B2",
"+ 	c #77709B",
"@ 	c #5E538D",
"# 	c #392B73",
"$ 	c #44387C",
"% 	c #B8B5C3",
"& 	c #948FAB",
"* 	c #776F9B",
"= 	c #524782",
"- 	c #483B81",
"; 	c #473983",
"> 	c #473A84",
", 	c #473984",
"' 	c #433681",
") 	c #695F93",
"! 	c #A2C7D6",
"~ 	c #8BC4D6",
"{ 	c #FEFEFE",
"] 	c #FFFEFE",
"^ 	c #FFFEFF",
"/ 	c #FEFDFE",
"( 	c #BBB8CB",
"_ 	c #219BC9",
": 	c #E7F7FB",
"< 	c #FFFFFF",
"[ 	c #FBFBFB",
"} 	c #149ACD",
"| 	c #F1FBFD",
"1 	c #FDFEFE",
"2 	c #C8D3D8",
"3 	c #31A3CD",
"4 	c #FEFEFF",
"5 	c #FFFFFE",
"6 	c #FCFEFE",
"7 	c #A7C7D3",
"8 	c #50AED2",
"9 	c #F2FBFD",
"0 	c #A8A2C2",
"a 	c #C2BDD4",
"b 	c #C0BCD2",
"c 	c #847BAB",
"d 	c #CAC7D3",
"e 	c #BDBDBD",
"f 	c #89BED2",
"g 	c #6DB5D1",
"h 	c #F6FDFE",
"i 	c #8077A8",
"j 	c #635795",
"k 	c #938BB2",
"l 	c #685E99",
"m 	c #9B98A8",
"n 	c #878787",
"o 	c #868686",
"p 	c #9B9B9B",
"q 	c #9E9E9E",
"r 	c #9C9C9C",
"s 	c #A0A0A0",
"t 	c #6B6B6B",
"u 	c #F3F6F6",
"v 	c #6DB7D3",
"w 	c #89BDD1",
"x 	c #BBB6CF",
"y 	c #ABA5C3",
"z 	c #CDCADC",
"A 	c #C4C4C4",
"B 	c #9A9A9A",
"C 	c #868687",
"D 	c #D2D2D2",
"E 	c #CFCFCF",
"F 	c #4DAED2",
"G 	c #A6C8D5",
"H 	c #F7FDFE",
"I 	c #D1D1D1",
"J 	c #E4E4E4",
"K 	c #299FCB",
"L 	c #C3D0D5",
"M 	c #FDFFFE",
"N 	c #E3E1EB",
"O 	c #ABA5C5",
"P 	c #DAD7E5",
"Q 	c #FCFEFF",
"R 	c #139CCF",
"S 	c #FAFBFB",
"T 	c #E0DDE9",
"U 	c #857EA4",
"V 	c #D2D0D9",
"W 	c #A49EBF",
"X 	c #C7CBDD",
"Y 	c #37A2CA",
"Z 	c #B8B4C8",
"` 	c #FCFBFD",
" .	c #FDFCFE",
"..	c #A49DBF",
"+.	c #CAC9CB",
"@.	c #171717",
"#.	c #A9A9A9",
"$.	c #767FA8",
"%.	c #726A98",
"&.	c #443682",
"*.	c #473A83",
"=.	c #473A82",
"-.	c #46397F",
";.	c #50467F",
">.	c #736B95",
",.	c #9B96B1",
"'.	c #7B739D",
").	c #CDCDCD",
"!.	c #080808",
"~.	c #8F8F8F",
"{.	c #9089AB",
"].	c #7C759F",
"^.	c #7D75A1",
"/.	c #948FAD",
"(.	c #BAB8C6",
"_.	c #9E99B2",
":.	c #B7B3C5",
"<.	c #D3D3D3",
"[.	c #E2DFEA",
"}.	c #9690AE",
"|.	c #8882A3",
"1.	c #857DA6",
"2.	c #7F789D",
"                  . + @ # $     ",
"      % & * = - ; > > > , ' )   ",
"! ~ { { { ] ^ ^ ^ ^ ^ ^ ^ / (   ",
"_ : < < < < < < < < < < < < [   ",
"} | ^ < < < < < < < < < < < 1 2 ",
"3 | 4 ] ] ^ ^ 5 < < < < < < 6 7 ",
"8 9 0 a b c d e { { { { { < 6 f ",
"g h i j k l m n o p q r s t u v ",
"w h x a y z A B p q C s D E 6 F ",
"G H { { < < 5 < { I J { ^ 5 6 K ",
"L M 5 < < < < < < { { N O P Q R ",
"  S 5 < ^ < ^ ^ ^ ^ T U V W X Y ",
"  Z `  . . . . . . ...+.@.#.$.  ",
"  %.&.*.*.=.-.;.>.,.'.).!.~.{.  ",
"    ].^./.(.        _.:.<.[.}.  ",
"                      |.1.2.    "};
