/* XPM */
static char * MPlayer_mini_xpm[] = {
"16 16 11 1",
" 	c None",
".	c #000000",
"+	c #C6C6C6",
"@	c #FFFFFF",
"#	c #E2E2E2",
"$	c #383838",
"%	c #555555",
"&	c #717171",
"*	c #1C1C1C",
"=	c #AAAAAA",
"-	c #8D8D8D",
"................",
".+@..+@..+@..+@.",
".+@..+@..+@..+@.",
".+@..+@..+@..+@.",
"................",
"......#$.#$.....",
"......++%@$.....",
"......&@%@*.....",
"......&+=#&.....",
".....%&==&#&....",
".....-*&%.-*....",
"................",
".+@..+@..+@..+@.",
".+@..+@..+@..+@.",
".+@..+@..+@..+@.",
"................"};
