/* XPM */
static const char * const normal_xpm[] = {
"16 16 111 2",
"  	c None",
". 	c #000000",
"+ 	c #030304",
"@ 	c #020303",
"# 	c #030303",
"$ 	c #030404",
"% 	c #040404",
"& 	c #A1B0BD",
"* 	c #8898A5",
"= 	c #909FAB",
"- 	c #97A4B0",
"; 	c #9EAAB4",
"> 	c #A4AFB9",
", 	c #ABB4BD",
"' 	c #B2BAC2",
") 	c #B8BFC6",
"! 	c #BFC5CA",
"~ 	c #C8CDD3",
"{ 	c #A4A6A7",
"] 	c #020203",
"^ 	c #BFCDD7",
"/ 	c #A2B5C8",
"( 	c #A9B9CC",
"_ 	c #AFBFCF",
": 	c #B4C3D2",
"< 	c #BAC8D5",
"[ 	c #C0CCD8",
"} 	c #C5D1DB",
"| 	c #CCD6DD",
"1 	c #D2DAE1",
"2 	c #D9E0E6",
"3 	c #C8CDD2",
"4 	c #B8C6D2",
"5 	c #9BAEC3",
"6 	c #A2B4C7",
"7 	c #ADBCCD",
"8 	c #B3C2D0",
"9 	c #B9C7D3",
"0 	c #BFCAD6",
"a 	c #C5CFD9",
"b 	c #CBD4DC",
"c 	c #BEC4CB",
"d 	c #B3C2CE",
"e 	c #96AAC0",
"f 	c #A9B9CA",
"g 	c #AEBECD",
"h 	c #BAC7D3",
"i 	c #C0CCD7",
"j 	c #CED7DF",
"k 	c #B8C0C6",
"l 	c #B0BECC",
"m 	c #91A7BE",
"n 	c #98ACC2",
"o 	c #A4B5C8",
"p 	c #AABACA",
"q 	c #B0BECE",
"r 	c #B6C3D1",
"s 	c #BBC8D4",
"t 	c #C1CDD7",
"u 	c #C9D3DC",
"v 	c #B3C3D3",
"w 	c #8CA3BB",
"x 	c #94A8BF",
"y 	c #9FB2C6",
"z 	c #A5B6C8",
"A 	c #ABBBCB",
"B 	c #B1BFCE",
"C 	c #B6C4D1",
"D 	c #BCC9D5",
"E 	c #C5CFDA",
"F 	c #ACB6BE",
"G 	c #BDCBDD",
"H 	c #879EB8",
"I 	c #8FA5BC",
"J 	c #A1B3C6",
"K 	c #ACBCCC",
"L 	c #B2C0CF",
"M 	c #B8C5D2",
"N 	c #A6B0BA",
"O 	c #BCCBDC",
"P 	c #819AB5",
"Q 	c #8BA2BA",
"R 	c #9BAFC3",
"S 	c #A8B8CA",
"T 	c #ADBDCD",
"U 	c #A0ABB6",
"V 	c #B4C4D6",
"W 	c #7993B0",
"X 	c #839BB6",
"Y 	c #89A0B8",
"Z 	c #8EA5BB",
"` 	c #95AAC0",
" .	c #9CAFC4",
"..	c #A2B3C7",
"+.	c #A7B8CA",
"@.	c #ADBDCC",
"#.	c #B5C4D2",
"$.	c #98A5B0",
"%.	c #E6EFF8",
"&.	c #B3C4D7",
"*.	c #B9C9DB",
"=.	c #BDCCDC",
"-.	c #BECDDE",
";.	c #B4C4D4",
">.	c #B0BFCC",
",.	c #B3C2CF",
"'.	c #B9C6D2",
").	c #BDC9D5",
"!.	c #CBD6E0",
"~.	c #B6BFC8",
"{.	c #050505",
"                                ",
"                                ",
"  . + @ # # # # + + $ % % # # . ",
"  # & * = - ; > , ' ) ! ~ ~ { ] ",
"  + ^ / ( _ : < [ } | 1 2 2 3 # ",
"  # 4 5 6 + 7 8 9 0 a b + 1 c # ",
"  # d e + + f g + h i + + j k # ",
"  # l m n + o p q r s t + u ' # ",
"  # v w x + y z A B C D + E F # ",
"  + G H I + 5 J + K L M + [ N # ",
"  + O P Q + e R 6 S T 8 + s U @ ",
"  + V W X Y Z `  ...+.@.#.#.$.@ ",
"  % %.&.*.=.-.;.>.,.'.).!.!.~.# ",
"  . {.% % % % % $ $ % % % % % . ",
"                                ",
"                                "};
