/* XPM */
static char *ok_xpm[] = {
"28 16 6 1",
"  c None",
". c #000000",
"# c #4b4b4b",
"a c #8e8e8e",
"b c #c69c6d",
"c c #e6e6e6",
"                            ",
" ##c                        ",
" #b#c                ..     ",
" #bb#c               ..     ",
" #bbb#c              ..     ",
" #bbbb#c      ....   ..  .. ",
" #bbbbb#c    ..  ..  .. ..  ",
" #bbbbb#a    ..  ..  ....   ",
" #bbbb#aa    ..  ..  ...    ",
" #bbb#aa     ..  ..  ....   ",
" #bb#aa      ..  ..  .. ..  ",
" #b#aa        ....   ..  .. ",
" ##aa                       ",
" aaa                        ",
"                            ",
"                            "
};
