/* XPM */
static const char * const ok_xpm[] = {
"37 16 5 1",
" 	c None",
".	c #3539EC",
"+	c #6E71EA",
"@	c #000000",
"#	c #1C1E7C",
"                                     ",
"                                     ",
"                                     ",
"         ...                         ",
"         .++.        @@@@@   @@      ",
"  .........++.      @@@ @@@  @@      ",
"  .+++++++...+.     @@   @@@ @@  @@  ",
"  ............+.    @@    @@ @@ @@   ",
"  ...............   @@    @@ @@@@    ",
"  .............#    @@   @@@ @@@@@   ",
"  ............#     @@@ @@@  @@ @@   ",
"  #######....#       @@@@@   @@  @@  ",
"         ...#                        ",
"         ###                         ",
"                                     ",
"                                     "};
