/* XPM */
static const char * const open_xpm[] = {
"16 16 64 1",
" 	c None",
".	c #000000",
"+	c #E4E5DF",
"@	c #D5D6CB",
"#	c #D6D7CA",
"$	c #A3A39D",
"%	c #F5F6F0",
"&	c #8D907B",
"*	c #92957E",
"=	c #90937D",
"-	c #979B84",
";	c #6D705F",
">	c #EAECDB",
",	c #8A8C7D",
"'	c #8E917B",
")	c #91947F",
"!	c #8B8E7A",
"~	c #999B87",
"{	c #919480",
"]	c #989B86",
"^	c #B1B4A2",
"/	c #A2A394",
"(	c #F7F7F7",
"_	c #878A75",
":	c #666858",
"<	c #4B4D3F",
"[	c #4D4F40",
"}	c #404135",
"|	c #424337",
"1	c #434437",
"2	c #404236",
"3	c #3C3D32",
"4	c #48493C",
"5	c #1A1A16",
"6	c #C6C6BE",
"7	c #848672",
"8	c #25261F",
"9	c #F1F2E9",
"0	c #DDE0C7",
"a	c #D6DABB",
"b	c #CDD2AC",
"c	c #C7CCA7",
"d	c #989C80",
"e	c #C6C7BE",
"f	c #5F6152",
"g	c #888980",
"h	c #A7AB8C",
"i	c #878A70",
"j	c #9FA19A",
"k	c #EFF0E5",
"l	c #9EA284",
"m	c #80817B",
"n	c #96968D",
"o	c #E3E5D1",
"p	c #83866D",
"q	c #97998D",
"r	c #EDEFE2",
"s	c #A2A688",
"t	c #767671",
"u	c #E7E9DA",
"v	c #D1D3BD",
"w	c #BBBF9D",
"x	c #989B80",
"y	c #6E715C",
"                ",
"                ",
"   ....         ",
"  .+@#$.        ",
" .%&*=-;.....   ",
" .>,')!~{]{^/.  ",
" .(_:<[}||12345 ",
" .67890abbbbbcd.",
" .efg0bbbbbbbhi.",
" .j8kabbbbbbbl. ",
" .mnobbbbbbbbp. ",
" .qrbbbbbbbbs.  ",
" .tuvwwwwwwxy.  ",
"  ...........   ",
"                ",
"                "};
