/* XPM */
static const char * pl_xpm[] = {
"16 16 7 1",
" 	c None",
".	c #000000",
"+	c #FEFEFE",
"@	c #C1C1C1",
"#	c #C2C2C2",
"$	c #A0A0A0",
"%	c #BBBBBB",
"  ..            ",
" .+@. .. ... .. ",
" .#$.           ",
"  ..            ",
"                ",
"                ",
"  ..            ",
" .+@.           ",
" .#$. ..... ... ",
"  ..            ",
"                ",
"                ",
"  ..            ",
" .+%. ..... ... ",
" .#$.           ",
"  ..            "};
