/* XPM */
static const char * const playdvd_xpm[] = {
"16 16 118 2",
"  	c None",
". 	c #CACCD2",
"+ 	c #D3D4D6",
"@ 	c #D2D2D3",
"# 	c #D1D1D2",
"$ 	c #D1D1D3",
"% 	c #B5B8BD",
"& 	c #EDEDEC",
"* 	c #FAFAFA",
"= 	c #FBFBFB",
"- 	c #FCFCFC",
"; 	c #FFFFFF",
"> 	c #D9D9D9",
", 	c #AFB1B5",
"' 	c #C6C6C7",
") 	c #FDFDFD",
"! 	c #F7F7F7",
"~ 	c #F9F9F9",
"{ 	c #F6F6F6",
"] 	c #F8F8F8",
"^ 	c #B8B9BD",
"/ 	c #B2B4BA",
"( 	c #EAE9E9",
"_ 	c #DCDCDC",
": 	c #F3F3F3",
"< 	c #F4F4F4",
"[ 	c #A8AAAF",
"} 	c #CBCBCA",
"| 	c #CCCCCC",
"1 	c #D7D7D7",
"2 	c #E1E1E1",
"3 	c #F5F5F5",
"4 	c #EFEFEF",
"5 	c #CCCDCE",
"6 	c #D2D2D2",
"7 	c #CDCDCD",
"8 	c #D6D6D6",
"9 	c #E0E0E0",
"0 	c #E7E7E7",
"a 	c #E6E6E6",
"b 	c #E5E5E5",
"c 	c #EBEBEB",
"d 	c #E3E3E3",
"e 	c #ECECEC",
"f 	c #9C9DA5",
"g 	c #C4C5C9",
"h 	c #C1C1C1",
"i 	c #CECECE",
"j 	c #E2E2E2",
"k 	c #E8E8E8",
"l 	c #D8D8D8",
"m 	c #E4E4E3",
"n 	c #DBDBDB",
"o 	c #F2F2F2",
"p 	c #404040",
"q 	c #DDDDDD",
"r 	c #D4D4D4",
"s 	c #A2A4AA",
"t 	c #C9CACC",
"u 	c #C4C4C4",
"v 	c #CFCFCF",
"w 	c #E4E4E4",
"x 	c #DBDAD9",
"y 	c #727789",
"z 	c #DFDEDD",
"A 	c #292828",
"B 	c #373737",
"C 	c #BCBCBC",
"D 	c #BFBFBF",
"E 	c #9E9FA4",
"F 	c #C6C7C9",
"G 	c #E2E2E1",
"H 	c #999CA6",
"I 	c #C5C5C4",
"J 	c #D3D3D3",
"K 	c #313131",
"L 	c #747472",
"M 	c #5C5C5C",
"N 	c #C4C4C3",
"O 	c #95969A",
"P 	c #C4C5C6",
"Q 	c #D8D8D7",
"R 	c #CACACA",
"S 	c #C6C6C6",
"T 	c #343333",
"U 	c #A1A09E",
"V 	c #939290",
"W 	c #939395",
"X 	c #A0A2A7",
"Y 	c #E5E5E4",
"Z 	c #FEFEFE",
"` 	c #C5C5C5",
" .	c #363635",
"..	c #A7A6A3",
"+.	c #B8B7B4",
"@.	c #91908E",
"#.	c #9B9C9F",
"$.	c #F0F0F0",
"%.	c #383737",
"&.	c #B0AFAC",
"*.	c #C8C7C4",
"=.	c #5A5A59",
"-.	c #EAEAEA",
";.	c #3E3D3D",
">.	c #BEBCB9",
",.	c #151414",
"'.	c #989BA2",
").	c #E9E9E9",
"!.	c #41403F",
"~.	c #696867",
"{.	c #A6A8AD",
"].	c #B7B7B5",
"^.	c #B4B4B3",
"/.	c #0A0A0A",
"(.	c #9B9DA0",
"_.	c #B6B6B7",
":.	c #B0B0B1",
"<.	c #929396",
"          . + @ # $             ",
"      % & * = = = - ; > ,       ",
"    ' ) ! ~ ~ ~ { ] * = ) ^     ",
"  / ( _ : ! ] ! < ! ] ) ) = [   ",
"  } | 1 2 { ] ! : 3 - - 3 4 5   ",
"  6 7 8 9 0 ] a b ) = : c d e f ",
"g h i 1 j k 6 l m n o p q r 2 s ",
"t u v n w _ x   y z q A B C D E ",
"F 8 l 2 k d G H ^ I J K L M N O ",
"P w j k e = _ Q 6 R S T U V M W ",
"X Y k c ; Z 3 > ! 6 `  ...+.@.M ",
"  #.$.; : : > : : : ` %.&.*.=.  ",
"    1 = : > : : : : -.;.>.,.    ",
"    '.S a > : : $.w ).!.~.Z     ",
"        {.].R j k q ^./.;       ",
"            (._.:.<.  D         "};
