/* XPM */
static const char * const playvcd_xpm[] = {
"16 16 182 2",
"  	c None",
". 	c #CC9665",
"+ 	c #E1C0A3",
"@ 	c #EAD1BD",
"# 	c #E9D2BB",
"$ 	c #D7B597",
"% 	c #9D7C5C",
"& 	c #CE9E71",
"* 	c #F6E9DE",
"= 	c #FEF5EE",
"- 	c #FFFAF6",
"; 	c #FFFBF7",
"> 	c #FDF9F5",
", 	c #F2EBDD",
"' 	c #FBF5E4",
") 	c #F3E6D5",
"! 	c #B19D8A",
"~ 	c #D9AE89",
"{ 	c #FFEFE3",
"] 	c #FFF7F0",
"^ 	c #FFF6EE",
"/ 	c #FFF7EF",
"( 	c #FFF6EB",
"_ 	c #FFF1DD",
": 	c #FFF6E3",
"< 	c #FFFCE9",
"[ 	c #FFFFF9",
"} 	c #FFFFFA",
"| 	c #BEA98F",
"1 	c #C08F68",
"2 	c #FFD5B2",
"3 	c #FFCAA8",
"4 	c #FFE2CC",
"5 	c #FFF3E9",
"6 	c #FFF4E9",
"7 	c #FFF3E1",
"8 	c #FFF0D0",
"9 	c #FFF9D9",
"0 	c #FFFEE7",
"a 	c #FFFFF8",
"b 	c #FFF8DA",
"c 	c #B8A685",
"d 	c #F2B788",
"e 	c #FFB886",
"f 	c #FFBD8B",
"g 	c #FFCA9B",
"h 	c #FFE7CF",
"i 	c #FFF6EA",
"j 	c #FFF4DB",
"k 	c #FFF7CA",
"l 	c #FFFFE1",
"m 	c #FFFFF6",
"n 	c #FFFBEE",
"o 	c #FFF3D4",
"p 	c #FFF3BB",
"q 	c #DDC18E",
"r 	c #805A34",
"s 	c #FDB070",
"t 	c #FFAD6E",
"u 	c #FFBA7D",
"v 	c #FFC78B",
"w 	c #FFDAA3",
"x 	c #FFEAC8",
"y 	c #FFF6C9",
"z 	c #FFF8C4",
"A 	c #FFF8E8",
"B 	c #FFFAEB",
"C 	c #FFF0C7",
"D 	c #FFE8A8",
"E 	c #FFE188",
"F 	c #FFDC86",
"G 	c #B57841",
"H 	c #FFA656",
"I 	c #FFAC5F",
"J 	c #FFBC73",
"K 	c #FFCE89",
"L 	c #FFDA91",
"M 	c #FFE194",
"N 	c #B2A177",
"O 	c #C0B095",
"P 	c #FFE6BB",
"Q 	c #FFE9B3",
"R 	c #473E28",
"S 	c #FFD76C",
"T 	c #FFCC3D",
"U 	c #ECBB2F",
"V 	c #966F30",
"W 	c #BC7D42",
"X 	c #FFAA52",
"Y 	c #FFAF57",
"Z 	c #FFC673",
"` 	c #FFDE8E",
" .	c #FFE58D",
"..	c #FCE5A0",
"+.	c #FFDA8B",
"@.	c #FFD673",
"#.	c #292828",
"$.	c #5C5C5C",
"%.	c #FFBA00",
"&.	c #FEC417",
"*.	c #A77D2E",
"=.	c #A7713B",
"-.	c #FFBF69",
";.	c #FFC570",
">.	c #FFDB87",
",.	c #FFF3A1",
"'.	c #FFF9BF",
").	c #FFE4BA",
"!.	c #DFC19C",
"~.	c #ECC48A",
"{.	c #FFCA5D",
"].	c #FFCC45",
"^.	c #313131",
"/.	c #747472",
"(.	c #FEC21C",
"_.	c #A57927",
":.	c #FFCF7C",
"<.	c #FFDE8B",
"[.	c #FFFFCB",
"}.	c #FFFFF4",
"|.	c #FFECC6",
"1.	c #FFE4AA",
"2.	c #FFE8BA",
"3.	c #FFC21D",
"4.	c #343333",
"5.	c #A1A09E",
"6.	c #939290",
"7.	c #E5BC73",
"8.	c #FFFAA9",
"9.	c #FFFFCD",
"0.	c #FFFEF1",
"a.	c #FFF3D3",
"b.	c #FFE69F",
"c.	c #FFE9AB",
"d.	c #FFF0C5",
"e.	c #FFEBB4",
"f.	c #FFD465",
"g.	c #363635",
"h.	c #A7A6A3",
"i.	c #B8B7B4",
"j.	c #91908E",
"k.	c #A98E59",
"l.	c #FFF1B6",
"m.	c #FFE59F",
"n.	c #FFD86C",
"o.	c #FFE08B",
"p.	c #FFEAB1",
"q.	c #FFE5A3",
"r.	c #FFE7AB",
"s.	c #383737",
"t.	c #B0AFAC",
"u.	c #C8C7C4",
"v.	c #5A5A59",
"w.	c #CCB396",
"x.	c #FFE5B4",
"y.	c #FFECA5",
"z.	c #FFDB70",
"A.	c #FFCB3B",
"B.	c #FFD871",
"C.	c #FFE8AB",
"D.	c #FFE6A4",
"E.	c #FFE9AA",
"F.	c #3E3D3D",
"G.	c #BEBCB9",
"H.	c #C1A46F",
"I.	c #EABC6D",
"J.	c #FFC924",
"K.	c #FFDC6A",
"L.	c #FFEFAD",
"M.	c #FFEAA1",
"N.	c #FFDA8E",
"O.	c #41403F",
"P.	c #696867",
"Q.	c #FEFEFE",
"R.	c #A97B28",
"S.	c #C08D27",
"T.	c #C99C47",
"U.	c #CEA762",
"V.	c #C09A5A",
"W.	c #855F2F",
"X.	c #FFFFFF",
"Y.	c #BFBFBF",
"          . + @ # $ %           ",
"      & * = - ; > , ' ) !       ",
"    ~ { ] ^ / ( _ : < [ } |     ",
"  1 2 3 4 5 6 7 8 9 0 a } b c   ",
"  d e f g h i j k l m n o p q   ",
"r s t u v w x y z A B C D E F   ",
"G H I J K L M N O P Q R S T U V ",
"W X Y Z `  ...    +.@.#.$.%.&.*.",
"=.-.;.>.,.'.).!.~.{.].^./.$.(._.",
"  :.<.,.[.}.|.1.2.<.3.4.5.6.$.  ",
"  7.8.9.0.a.b.c.d.e.f.g.h.i.j.$.",
"  k.l.[ a.m.n.o.p.q.r.s.t.u.v.  ",
"    w.x.y.z.A.B.C.D.E.F.G.v.    ",
"      H.I.].J.K.L.M.N.O.P.Q.    ",
"          R.S.T.U.V.W.O.X.      ",
"                      Y.        "};
