/* XPM */
static const char * const play_xpm[] = {
"16 16 37 1",
" 	c None",
".	c #000000",
"+	c #727170",
"@	c #7B7B7A",
"#	c #6C6B6A",
"$	c #7F7E7D",
"%	c #999996",
"&	c #7D7C7B",
"*	c #828180",
"=	c #9D9C9A",
"-	c #B0AFAC",
";	c #908F8D",
">	c #868583",
",	c #A1A09E",
"'	c #B4B3B1",
")	c #B6B4B2",
"!	c #A5A4A1",
"~	c #898886",
"{	c #B9B7B4",
"]	c #BAB9B6",
"^	c #BCBAB7",
"/	c #C3C2BF",
"(	c #FFFFFF",
"_	c #8C8B89",
":	c #A9A8A5",
"<	c #BDBCB9",
"[	c #C5C3C0",
"}	c #D0CECC",
"|	c #8F8E8C",
"1	c #B5B3B1",
"2	c #C7C6C3",
"3	c #D2D1CE",
"4	c #B9B6B4",
"5	c #D8D7D5",
"6	c #A19F9D",
"7	c #C7C6C4",
"8	c #A7A6A3",
"    .           ",
"    ..          ",
"    .+.         ",
"    .@#.        ",
"    .$%&.       ",
"    .*=-;.      ",
"    .>,')!.     ",
"    .~!{]^/.(   ",
"    ._:<[}.(    ",
"    .|123.(     ",
"    .=45.(      ",
"    .67.(       ",
"    .8.(        ",
"    ..(         ",
"    .(          ",
"    (           "};
