/* XPM */
static const char * const prefs_xpm[] = {
"16 16 50 1",
" 	c None",
".	c #000000",
"+	c #CAC8C1",
"@	c #B7B7B7",
"#	c #EBEBE8",
"$	c #D8D8D8",
"%	c #F9F8F8",
"&	c #D3D1CD",
"*	c #F7F7F7",
"=	c #DEDBD6",
"-	c #D4D3D0",
";	c #E3E2E1",
">	c #DFDEDC",
",	c #DBDAD7",
"'	c #A4A19C",
")	c #686868",
"!	c #292929",
"~	c #1F1F1F",
"{	c #D2D1D0",
"]	c #50504F",
"^	c #121212",
"/	c #414141",
"(	c #494746",
"_	c #363636",
":	c #C8C7C6",
"<	c #6C6967",
"[	c #708295",
"}	c #CFD6DD",
"|	c #7C91A7",
"1	c #D6D5D5",
"2	c #8A8784",
"3	c #7D8C9C",
"4	c #788DA4",
"5	c #7F99B3",
"6	c #1F272F",
"7	c #ECEBEA",
"8	c #72706D",
"9	c #8D99A5",
"0	c #748AA2",
"a	c #849EB9",
"b	c #4D5F73",
"c	c #D5D4D3",
"d	c #6B6A69",
"e	c #7D91A7",
"f	c #849EBA",
"g	c #525252",
"h	c #7E7E7E",
"i	c #515151",
"j	c #66798F",
"k	c #7C7C7C",
"                ",
"     .        . ",
"    .+.      .@.",
"     .#.    .$. ",
"  .  .%.    ..  ",
" .&..*=.   .    ",
"  .-;>,'.)!     ",
"   .~..{].)     ",
"       ^/(.     ",
"    ..._.:<.    ",
"   .[}|. .12.   ",
"  .3}456  .78.  ",
" .9}0ab.   .cd. ",
" .}efb.     .{gh",
" iejb.       ..k",
"  i..           "};
