/* XPM */
static const char * const prev_xpm[] = {
"16 16 58 1",
" 	c None",
".	c #000000",
"+	c #FFFFFF",
"@	c #D9D9D9",
"#	c #737372",
"$	c #888887",
"%	c #7E7E7D",
"&	c #A4A4A3",
"*	c #696867",
"=	c #8E8E8D",
"-	c #B5B4B3",
";	c #5B5A59",
">	c #9C9C9A",
",	c #949392",
"'	c #C0BFBE",
")	c #636261",
"!	c #908F8D",
"~	c #C5C4C3",
"{	c #A4A3A2",
"]	c #CACAC8",
"^	c #6F6E6C",
"/	c #959491",
"(	c #C0BFBD",
"_	c #D3D3D1",
":	c #A1A09F",
"<	c #D0CECD",
"[	c #636260",
"}	c #8D8C8B",
"|	c #B4B3B1",
"1	c #757574",
"2	c #868481",
"3	c #BAB9B6",
"4	c #B9B7B4",
"5	c #C5C4C2",
"6	c #D4D3D1",
"7	c #A2A09F",
"8	c #A6A4A2",
"9	c #BDBCB9",
"0	c #C6C5C3",
"a	c #D4D3D2",
"b	c #AFAEAB",
"c	c #D2D1CF",
"d	c #A3A2A0",
"e	c #B7B6B3",
"f	c #D0CFCD",
"g	c #D4D4D3",
"h	c #B8B8B5",
"i	c #A8A7A5",
"j	c #D5D5D3",
"k	c #DFDFDD",
"l	c #BBBAB7",
"m	c #D7D5D3",
"n	c #C4C4C2",
"o	c #DFDFDE",
"p	c #BBB9B7",
"q	c #D9D8D6",
"r	c #B9B8B5",
"s	c #DEDDDB",
"  ....+       .@",
"  .#$.+      ..+",
"  .%&.+     .*.+",
"  .=-.+    .;>.+",
"  .,'.+   .)!~.+",
"  .{].+  .^/(_.+",
"  .:<.+ .[}|(_.+",
"  .{].+.123456.+",
"  .:<.+ .7890a.+",
"  .bc.+  .defg.+",
"  .ha.+   .ijk.+",
"  .lm.+    .no.+",
"  .pq.+     .6.+",
"  .rs.+      ..+",
"  ....+       .+",
"  ++++          "};
