/* XPM */
static const char * const question_xpm[] = {
"48 48 284 2",
"  	c None",
". 	c #9B4C3A",
"+ 	c #9F4E3C",
"@ 	c #9E4E3B",
"# 	c #A7523E",
"$ 	c #AA5440",
"% 	c #9C4D3A",
"& 	c #9D4E3B",
"* 	c #A4513D",
"= 	c #A5513E",
"- 	c #9D4D3B",
"; 	c #A9533F",
"> 	c #A6523E",
", 	c #A04F3C",
"' 	c #984B39",
") 	c #924836",
"! 	c #914736",
"~ 	c #934837",
"{ 	c #944937",
"] 	c #A7523F",
"^ 	c #A8533F",
"/ 	c #974A38",
"( 	c #AB6F61",
"_ 	c #B27F73",
": 	c #C09D95",
"< 	c #C9AFA9",
"[ 	c #CDB3AC",
"} 	c #D6CECC",
"| 	c #DADADA",
"1 	c #D9D9D9",
"2 	c #CCB1AB",
"3 	c #D2B7B1",
"4 	c #DDC0BA",
"5 	c #C48B7D",
"6 	c #8E4635",
"7 	c #A86D5F",
"8 	c #B4948C",
"9 	c #C2B2AE",
"0 	c #D7D7D7",
"a 	c #E1E1E1",
"b 	c #EEEEEE",
"c 	c #F3F3F3",
"d 	c #F9F9F9",
"e 	c #FAFAFA",
"f 	c #F8F8F8",
"g 	c #F7F7F7",
"h 	c #EEE4E2",
"i 	c #C38A7D",
"j 	c #A14F3C",
"k 	c #98594A",
"l 	c #B1897F",
"m 	c #C9C1BF",
"n 	c #EBEBEB",
"o 	c #F6F6F6",
"p 	c #DCC0B9",
"q 	c #BA7767",
"r 	c #904736",
"s 	c #8D4535",
"t 	c #B3948D",
"u 	c #BDBDBD",
"v 	c #F4F4F4",
"w 	c #F5F5F5",
"x 	c #E3D0CB",
"y 	c #73382A",
"z 	c #A2503C",
"A 	c #B6A7A4",
"B 	c #D4D4D4",
"C 	c #B26553",
"D 	c #A2503D",
"E 	c #823F30",
"F 	c #A86D60",
"G 	c #C1C1C1",
"H 	c #EDEDED",
"I 	c #AAAAAA",
"J 	c #535353",
"K 	c #232323",
"L 	c #1B1B1B",
"M 	c #1A1A1A",
"N 	c #181818",
"O 	c #2D2D2D",
"P 	c #DFDFDF",
"Q 	c #F2F2F2",
"R 	c #C99A8E",
"S 	c #7B3C2D",
"T 	c #B48B81",
"U 	c #DCDCDC",
"V 	c #808080",
"W 	c #1F1F1F",
"X 	c #191919",
"Y 	c #252525",
"Z 	c #363636",
"` 	c #2B2B2B",
" .	c #AFAFAF",
"..	c #F1F1F1",
"+.	c #D9BCB6",
"@.	c #A3503D",
"#.	c #7E3E2F",
"$.	c #C9B0A9",
"%.	c #E0E0E0",
"&.	c #A5A5A5",
"*.	c #373737",
"=.	c #303030",
"-.	c #5C5C5C",
";.	c #757575",
">.	c #646464",
",.	c #3D3D3D",
"'.	c #2A2A2A",
").	c #E3E3E3",
"!.	c #DBC0BA",
"~.	c #793B2D",
"{.	c #964A38",
"].	c #C3A199",
"^.	c #1C1C1C",
"/.	c #656565",
"(.	c #D2D2D2",
"_.	c #3F3F3F",
":.	c #1E1E1E",
"<.	c #F0F0F0",
"[.	c #CC9F95",
"}.	c #72382B",
"|.	c #B07F74",
"1.	c #606060",
"2.	c #1D1D1D",
"3.	c #767676",
"4.	c #616161",
"5.	c #EFEFEF",
"6.	c #C28A7D",
"7.	c #994B39",
"8.	c #73392B",
"9.	c #99594A",
"0.	c #5D5D5D",
"a.	c #383838",
"b.	c #171717",
"c.	c #737373",
"d.	c #623025",
"e.	c #CDC5C3",
"f.	c #4E4E4E",
"g.	c #565656",
"h.	c #CFCFCF",
"i.	c #505050",
"j.	c #818181",
"k.	c #DCC3BE",
"l.	c #894333",
"m.	c #552920",
"n.	c #BD9C94",
"o.	c #E7E7E7",
"p.	c #A3A3A3",
"q.	c #797979",
"r.	c #DBDBDB",
"s.	c #484848",
"t.	c #C5C5C5",
"u.	c #ECECEC",
"v.	c #C18A7D",
"w.	c #7C3D2E",
"x.	c #AA6E5F",
"y.	c #9A9A9A",
"z.	c #4F4F4F",
"A.	c #717171",
"B.	c #6B3428",
"C.	c #954A38",
"D.	c #C8C0BE",
"E.	c #D5D5D5",
"F.	c #585858",
"G.	c #525252",
"H.	c #EAEAEA",
"I.	c #DBC4BF",
"J.	c #874232",
"K.	c #4F271E",
"L.	c #B78D84",
"M.	c #323232",
"N.	c #D6D6D6",
"O.	c #BB7B6C",
"P.	c #6E3629",
"Q.	c #965748",
"R.	c #CACACA",
"S.	c #E9E9E9",
"T.	c #464646",
"U.	c #B0B0B0",
"V.	c #E5D7D4",
"W.	c #643126",
"X.	c #8B4434",
"Y.	c #C19F97",
"Z.	c #777777",
"`.	c #2C2C2C",
" +	c #515151",
".+	c #BBBBBB",
"++	c #E8E8E8",
"@+	c #BB7C6D",
"#+	c #70372A",
"$+	c #411F18",
"%+	c #9A594A",
"&+	c #CBCBCB",
"*+	c #DEDEDE",
"=+	c #7F7F7F",
"-+	c #202020",
";+	c #B8B8B8",
">+	c #E5D9D6",
",+	c #924837",
"'+	c #BD9D95",
")+	c #313131",
"!+	c #C9C9C9",
"~+	c #BA7B6C",
"{+	c #7F3E2F",
"]+	c #401F17",
"^+	c #9A5949",
"/+	c #A0A0A0",
"(+	c #A9A9A9",
"_+	c #E6E6E6",
":+	c #E3D5D2",
"<+	c #9F4E3B",
"[+	c #B38B82",
"}+	c #DDDDDD",
"|+	c #E5E5E5",
"1+	c #B26755",
"2+	c #884333",
"3+	c #3D1E16",
"4+	c #C4BCBB",
"5+	c #4D4D4D",
"6+	c #2F2F2F",
"7+	c #CBA198",
"8+	c #663226",
"9+	c #A0685B",
"0+	c #9F9F9F",
"a+	c #161616",
"b+	c #292929",
"c+	c #686868",
"d+	c #E4E4E4",
"e+	c #E0D2CE",
"f+	c #71382A",
"g+	c #A4513E",
"h+	c #B4948D",
"i+	c #D1D1D1",
"j+	c #9E9E9E",
"k+	c #E6E0DE",
"l+	c #B16654",
"m+	c #552A20",
"n+	c #B59F99",
"o+	c #404040",
"p+	c #919191",
"q+	c #E2E2E2",
"r+	c #BF887C",
"s+	c #8C4534",
"t+	c #9D5A4A",
"u+	c #BEB6B5",
"v+	c #BCBCBC",
"w+	c #C69A90",
"x+	c #6C3528",
"y+	c #9B5949",
"z+	c #BFB7B6",
"A+	c #D2B9B3",
"B+	c #7A3C2D",
"C+	c #50261D",
"D+	c #9C594A",
"E+	c #BBACA8",
"F+	c #BD8578",
"G+	c #7D3D2F",
"H+	c #572A20",
"I+	c #B18E85",
"J+	c #CECECE",
"K+	c #DDD4D3",
"L+	c #B57262",
"M+	c #7A3C2E",
"N+	c #9A4C39",
"O+	c #97584A",
"P+	c #B99A94",
"Q+	c #D3D3D3",
"R+	c #E1DAD8",
"S+	c #C29388",
"T+	c #693327",
"U+	c #AA604E",
"V+	c #BF9287",
"W+	c #D4BCB7",
"X+	c #D2B8B3",
"Y+	c #773A2C",
"Z+	c #643125",
"`+	c #4C251C",
" @	c #864232",
".@	c #401F18",
"+@	c #592C21",
"@@	c #71372A",
"#@	c #813F30",
"$@	c #834031",
"%@	c #6D3528",
"&@	c #4E261D",
"                                                                                                ",
"                                                                                                ",
"                                                                                                ",
"                                                                                                ",
"                              . + @ # $ $ $ $ $ $ $ $ $ % & @                                   ",
"                    % * $ $ $ $ $ $ $ $ $ $ $ $ $ $ $ $ $ $ $ $ $ $ = -                         ",
"                # $ $ $ $ $ $ $ $ $ ; ; ; ; ; ; $ $ $ ; > $ $ $ $ $ $ $ $ $ .                   ",
"          @ $ $ $ $ $ $ ; , ' ) ! ! ~ { { { { { { ' . . = $ $ $ $ $ $ $ $ $ $ $ ,               ",
"        ] $ $ $ $ ^ % / ! ~ % ( _ : < [ } | | | 1 | 2 3 4 5 5 $ $ $ $ $ $ $ $ $ $ $             ",
"      ] $ $ $ ; - 6 { 7 8 9 0 a b c d e e d d d d d f f f f f g h 4 i $ $ $ $ $ $ $ j           ",
"    = $ $ $ * ) k l m n f e e e e d d d d d f f f f f g g g g g o o o o p q $ $ $ $ > r         ",
"    $ $ $ , s t u v e e d d d d d f f f f f g g g g g g o o o o o w w w w w x q $ $ $ ' y       ",
"    $ $ z s A B d d d d d f f f f f g g g g g o o o o o w w w w w v v v v v c c C $ $ D E       ",
"  , $ $ ) F G d f f f f f g g g g g H I J K L M N O P w w v v v v v c c c c c Q R $ $ , S       ",
"  + $ $ { T U f f g g g g g o o o v V W N X Y Z ` N L  .v c c c c c Q Q Q Q Q ..+.$ $ @.#.      ",
"  @ $ $ ~ $.%.g g g o o o o o w w &.*.N =.-.;.>.,.*.L '.).c Q Q Q Q Q ..........!.$ $ * ~.      ",
"  @ $ $ {.].P o o o w w w w w v v >.^.^./.c c c (._.L :./.Q ..........<.<.<.<.v [.$ $ @ }.      ",
"  @ $ $ , |.P w w w w v v v v v c 1.2.N 3.Q Q Q Q 4.L 2.-...<.<.<.<.<.5.5.5.5.v 6.$ $ 7.8.      ",
"  ' $ $ > 9.U v v v v c c c c c Q 0.a.b.0.........c.L ^.>.<.<.5.5.5.5.5.b b <.Q $ $ $ r d.      ",
"    $ $ $ ! e.Q c c c c Q Q Q Q Q u f.M g.<.<.<.h.i.N W j.5.5.5.b b b b b H ..k.$ $ $ l.m.      ",
"    $ $ $ ' n.o.Q Q Q Q ..........<.p.q.r.<.5.5.;.'.N s.t.b b b H H H H H u.Q v.$ $ ^ w.        ",
"    = $ $ % x.1 ........<.<.<.<.<.5.5.5.5.5.5.y.z.N :.A.H H H H H u.u.u.u.b ..$ $ $ % B.        ",
"    C.$ $ * r D.b <.<.<.<.5.5.5.5.5.b b b b E.F.^.N G.n u.u.u.u.u.n n H.n <.I.$ $ $ J.K.        ",
"      $ $ $ ~ L.U 5.5.5.5.5.b b b b b H H ).>.M.b.Z N.u.u.n n n n n H.H.H...O.$ $ ^ P.          ",
"      = $ $ D Q.R.S.b b b b H H H H H u.u.I T.N M U.n n n H.H.H.H.H.S.S.H V.$ $ $ r W.          ",
"      X.$ $ $ {.Y.h.H H H H H u.u.u.u.u.n Z.`.b. +.+H.H.H.S.S.S.S.S.++++5.@+$ ; > #+$+          ",
"        $ $ $ = %+&+*+u.u.u.u.n n n n n H.=+-+X b.;+S.S.S.S.++++++++++H.>+$ $ $ ,+B.            ",
"        ~ $ $ $ ' '+R.n n n n n H.H.H.H.S.*+;.'.)+!+++++++++o.o.o.o.o.5.~+$ $ ; {+]+            ",
"          $ $ $ ; ^+!+U H.H.H.H.S.S.S.S.S.++t./+(+++o.o.o.o.o._+_+_+u.:+$ $ $ <+B.              ",
"          ,+$ $ $ @ [+!+S.S.S.S.++++++++++o.o.!+}+o.o._+_+_+_+_+|+++b 1+$ $ $ 2+3+              ",
"            $ $ $ $ ) 4+}+++++++++o.o.o.o.o.5+6+5+G _+|+|+|+|+|+_+u.7+$ $ $ . 8+                ",
"            2+$ $ $ * 9+R.|+o.o.o.o._+_+_+0+b.a+b+c+|+|+d+d+d+_+n e+$ $ $ ^ f+                  ",
"              g+$ $ $ % h+i+_+_+_+_+|+|+|+j+a+a+M >.d+d+).).).H.k+l+$ $ ; #.m+                  ",
"                $ $ $ $ / n+U |+|+|+|+d+d+d+-.Y o+p+).).).q+S.u.r+$ $ ; s+8+                    ",
"                r $ $ $ $ t+u+r.d+d+d+).).).).t.v+q+q+q+q+++H.w+$ $ $ 7.x+                      ",
"                  / $ $ $ $ y+z+| ).).).q+q+q+q+q+a a ).n u.A+$ $ ^ , B+C+                      ",
"                    * $ $ $ ; D+E+E.a *+r.r.P %.a q+o.H S.F+$ $ ; D G+H+                        ",
"                      * $ $ $ $ { I+J+d+|+).q+).|+S.H.K+L+$ $ $ = M+8+                          ",
"                        @.$ $ $ ^ N+O+P+Q+).++++++R+S+$ $ $ $ > w.T+                            ",
"                          @.$ $ $ $ , ' U+V+W+X+F+$ $ $ $ $ > Y+Z+                              ",
"                            % $ $ $ $ $ $ $ $ $ $ $ $ $ $ % }.`+                                ",
"                              {+$ $ $ $ $ $ $ $ $ $ $ *  @8+.@                                  ",
"                                  2+$ $ $ $ $ $ ^ % s #++@                                      ",
"                                      @@#@{ { $@%@Z+&@                                          ",
"                                                                                                ",
"                                                                                                ",
"                                                                                                ",
"                                                                                                "};
