/* XPM */
static char * question_xpm[] = {
"43 43 396 2",
"  	c None",
". 	c #000000",
"+ 	c #2F2510",
"@ 	c #443618",
"# 	c #493A19",
"$ 	c #503F1C",
"% 	c #3C3016",
"& 	c #3D3016",
"* 	c #3A2D14",
"= 	c #241D0D",
"- 	c #110D04",
"; 	c #433518",
"> 	c #574A31",
", 	c #BA9A5B",
"' 	c #E2BD71",
") 	c #ECC678",
"! 	c #F7CC72",
"~ 	c #C5A45C",
"{ 	c #C7A35A",
"] 	c #C29F59",
"^ 	c #977C45",
"/ 	c #45381D",
"( 	c #342812",
"_ 	c #060402",
": 	c #1D1507",
"< 	c #7E642F",
"[ 	c #FACF77",
"} 	c #FFE4A9",
"| 	c #FEE0A3",
"1 	c #FCE3AE",
"2 	c #FDE4B0",
"3 	c #FAD78F",
"4 	c #E4C27B",
"5 	c #DFBD76",
"6 	c #E1C17E",
"7 	c #DDBC7B",
"8 	c #CAA75F",
"9 	c #C8A04E",
"0 	c #493A1B",
"a 	c #171208",
"b 	c #0F0C05",
"c 	c #070602",
"d 	c #010100",
"e 	c #211909",
"f 	c #937536",
"g 	c #FBD37E",
"h 	c #FDE4B3",
"i 	c #FFE9BC",
"j 	c #FBDEA1",
"k 	c #F8D895",
"l 	c #F7D184",
"m 	c #F7C661",
"n 	c #F7C560",
"o 	c #F7C55E",
"p 	c #F8CB6E",
"q 	c #F1CB80",
"r 	c #DEBE7B",
"s 	c #DCB667",
"t 	c #BA954A",
"u 	c #8C6D32",
"v 	c #58441E",
"w 	c #130F06",
"x 	c #171105",
"y 	c #927436",
"z 	c #F0CE7F",
"A 	c #FFEDAE",
"B 	c #FADFAA",
"C 	c #F9D07F",
"D 	c #D1AC63",
"E 	c #B99854",
"F 	c #B59149",
"G 	c #B78F3E",
"H 	c #C49A44",
"I 	c #EDBA52",
"J 	c #FEC95D",
"K 	c #F8CA6C",
"L 	c #EFCA7F",
"M 	c #DFBC73",
"N 	c #DBB463",
"O 	c #CCA351",
"P 	c #8E6F33",
"Q 	c #221A0B",
"R 	c #504122",
"S 	c #F5CF78",
"T 	c #FFEDAF",
"U 	c #F7DEAE",
"V 	c #F6CC75",
"W 	c #CFA042",
"X 	c #6F551F",
"Y 	c #4B3916",
"Z 	c #483817",
"` 	c #4B3B1B",
" .	c #52411E",
"..	c #AA863E",
"+.	c #E8B651",
"@.	c #FCC75B",
"#.	c #FBCC6E",
"$.	c #EAC270",
"%.	c #E2BB6A",
"&.	c #DDB460",
"*.	c #B79349",
"=.	c #403218",
"-.	c #3E341E",
";.	c #E6C57B",
">.	c #FADEA5",
",.	c #FAE2B1",
"'.	c #F5D188",
").	c #D2A240",
"!.	c #695326",
"~.	c #423518",
"{.	c #AA8740",
"].	c #F4C15A",
"^.	c #F8C358",
"/.	c #FCCC6C",
"(.	c #E6BC65",
"_.	c #DDB661",
":.	c #D7B05E",
"<.	c #A98541",
"[.	c #332711",
"}.	c #504120",
"|.	c #FED683",
"1.	c #FFE9B9",
"2.	c #F9DA9B",
"3.	c #D2AA5A",
"4.	c #6B5424",
"5.	c #4B3E23",
"6.	c #D0A858",
"7.	c #F7C35C",
"8.	c #FBD079",
"9.	c #E6BB63",
"0.	c #DBB055",
"a.	c #D7AE5A",
"b.	c #B89247",
"c.	c #3B2E14",
"d.	c #302A1A",
"e.	c #BAA062",
"f.	c #FDDB97",
"g.	c #FFE5B2",
"h.	c #ECC77C",
"i.	c #8C6D2C",
"j.	c #030302",
"k.	c #3D3423",
"l.	c #BA995A",
"m.	c #F5C25A",
"n.	c #FCCC6D",
"o.	c #E6BC66",
"p.	c #DBB159",
"q.	c #D7AC51",
"r.	c #BA9344",
"s.	c #3D2F16",
"t.	c #4D3F20",
"u.	c #ECC470",
"v.	c #FBD688",
"w.	c #FAD280",
"x.	c #D1A856",
"y.	c #654E1F",
"z.	c #3C3324",
"A.	c #B4975E",
"B.	c #F5C667",
"C.	c #FECD6B",
"D.	c #E7BF6C",
"E.	c #DCB461",
"F.	c #D4A84F",
"G.	c #A9843C",
"H.	c #342813",
"I.	c #58451F",
"J.	c #FFCF6C",
"K.	c #FDD179",
"L.	c #F9C65C",
"M.	c #C39842",
"N.	c #574420",
"O.	c #3C3323",
"P.	c #B5975E",
"Q.	c #F5C768",
"R.	c #F4C76B",
"S.	c #E1BD72",
"T.	c #DFB968",
"U.	c #D4A850",
"V.	c #957634",
"W.	c #29200F",
"X.	c #614D24",
"Y.	c #FFDC74",
"Z.	c #FACF78",
"`.	c #F5C35D",
" +	c #C19743",
".+	c #584520",
"++	c #3D3525",
"@+	c #B89A5B",
"#+	c #F5C35C",
"$+	c #E1BB6B",
"%+	c #D7B671",
"&+	c #DFB866",
"*+	c #CDA34C",
"=+	c #7C602A",
"-+	c #1C160A",
";+	c #5D4C29",
">+	c #FFD674",
",+	c #E7BC64",
"'+	c #D2A64E",
")+	c #A4803A",
"!+	c #4D3C1C",
"~+	c #443B27",
"{+	c #CDAB66",
"]+	c #F9CA6B",
"^+	c #E0BF7B",
"/+	c #DAB467",
"(+	c #D6AA50",
"_+	c #A27F3A",
":+	c #312611",
"<+	c #1B160C",
"[+	c #4E3F23",
"}+	c #44361C",
"|+	c #3C2F16",
"1+	c #2F2410",
"2+	c #161108",
"3+	c #56411A",
"4+	c #856C3A",
"5+	c #D1B06D",
"6+	c #E3C27E",
"7+	c #DAB871",
"8+	c #E0B55C",
"9+	c #CCA149",
"0+	c #83672E",
"a+	c #1E170B",
"b+	c #030201",
"c+	c #040302",
"d+	c #030301",
"e+	c #020201",
"f+	c #745A25",
"g+	c #BF9C53",
"h+	c #E4C480",
"i+	c #DAC18C",
"j+	c #D6B163",
"k+	c #EABA56",
"l+	c #B28C3F",
"m+	c #070603",
"n+	c #8B6D30",
"o+	c #E2BB6B",
"p+	c #EECE8C",
"q+	c #DABC7E",
"r+	c #DEB35A",
"s+	c #C79C46",
"t+	c #695225",
"u+	c #141007",
"v+	c #080703",
"w+	c #795F2A",
"x+	c #DAAE58",
"y+	c #EEC97C",
"z+	c #DDBF80",
"A+	c #D9AF5A",
"B+	c #E9B854",
"C+	c #725928",
"D+	c #191409",
"E+	c #010000",
"F+	c #020100",
"G+	c #D9A948",
"H+	c #FFD67B",
"I+	c #EECB84",
"J+	c #D8B56E",
"K+	c #D9AC52",
"L+	c #CEA34D",
"M+	c #4A3B1C",
"N+	c #443517",
"O+	c #372C14",
"P+	c #67532D",
"Q+	c #E2BD73",
"R+	c #F1CE84",
"S+	c #E0BF7C",
"T+	c #D5B36F",
"U+	c #D1AC65",
"V+	c #7E6637",
"W+	c #211A0D",
"X+	c #483918",
"Y+	c #8A6E36",
"Z+	c #CCA85F",
"`+	c #DBBF89",
" @	c #D8B876",
".@	c #D0AF6D",
"+@	c #CBAC70",
"@@	c #B89B65",
"#@	c #382F1E",
"$@	c #010101",
"%@	c #080603",
"&@	c #463618",
"*@	c #A88746",
"=@	c #DBB871",
"-@	c #D8B776",
";@	c #CFAB62",
">@	c #CEAB65",
",@	c #BD9F68",
"'@	c #7E6A44",
")@	c #16130C",
"!@	c #040301",
"~@	c #B3914D",
"{@	c #D9BA79",
"]@	c #D8B268",
"^@	c #D5AB5A",
"/@	c #D6B069",
"(@	c #A58C5F",
"_@	c #322A1B",
":@	c #050402",
"<@	c #56431D",
"[@	c #C6A055",
"}@	c #DBBC7D",
"|@	c #D8B266",
"1@	c #DDB05C",
"2@	c #D2AB67",
"3@	c #877451",
"4@	c #0C0A08",
"5@	c #060502",
"6@	c #675122",
"7@	c #DFB55E",
"8@	c #D8BC7F",
"9@	c #DFB25C",
"0@	c #C29D58",
"a@	c #725F3E",
"b@	c #0D0B08",
"c@	c #070502",
"d@	c #6E5726",
"e@	c #E8BE66",
"f@	c #D9BF86",
"g@	c #D9B363",
"h@	c #E2B354",
"i@	c #AF8C47",
"j@	c #53442A",
"k@	c #080705",
"l@	c #655229",
"m@	c #DCB768",
"n@	c #DABD7D",
"o@	c #DBB157",
"p@	c #DCAC4D",
"q@	c #7B612D",
"r@	c #120F09",
"s@	c #5B4A28",
"t@	c #C6A35C",
"u@	c #C2A25F",
"v@	c #C59A48",
"w@	c #B98F40",
"x@	c #53401C",
"y@	c #3F341D",
"z@	c #856D3E",
"A@	c #7D6739",
"B@	c #745B2B",
"C@	c #664E23",
"D@	c #060608",
"E@	c #000001",
"F@	c #070604",
"G@	c #675736",
"H@	c #E6C377",
"I@	c #E8C277",
"J@	c #E8C884",
"K@	c #D1A95A",
"L@	c #624C21",
"M@	c #080602",
"N@	c #7D693F",
"O@	c #FFE38E",
"P@	c #FDDC99",
"Q@	c #FFE2A2",
"R@	c #795F29",
"S@	c #0A0803",
"T@	c #080604",
"U@	c #7F6C45",
"V@	c #FFE796",
"W@	c #F9D894",
"X@	c #E9C781",
"Y@	c #E4B85D",
"Z@	c #725927",
"`@	c #0A0703",
" #	c #806F4B",
".#	c #FFE69A",
"+#	c #ECC981",
"@#	c #DBB35E",
"##	c #DAAD51",
"$#	c #6D5527",
"%#	c #090703",
"&#	c #080704",
"*#	c #806D47",
"=#	c #FFE08E",
"-#	c #DFBA6E",
";#	c #DBAF52",
">#	c #D3A64A",
",#	c #675025",
"'#	c #070503",
")#	c #775F2F",
"!#	c #F3C667",
"~#	c #DEB663",
"{#	c #D1A54C",
"]#	c #A6813A",
"^#	c #483819",
"/#	c #241C0B",
"(#	c #5B4820",
"_#	c #584826",
":#	c #4F3F1D",
"<#	c #382A13",
"[#	c #161107",
"}#	c #020101",
"                                                                                      ",
"                                                                                      ",
"                                  . + @ # $ % & * = . .                               ",
"                            . - ; > , ' ) ! ~ { ] ^ / ( _ .                           ",
"                          . : < [ } | 1 2 3 4 5 6 7 8 9 0 a b c                       ",
"                        d e f g h i j k l m n o p q r s t u v w .                     ",
"                        x y z A B C D E F G H I J K L M N O P Q .                     ",
"                        R S T U V W X Y Z `  ...+.@.#.$.%.&.*.=.. .                   ",
"                      -.;.>.,.'.).!.. . . . . ~.{.].^./.(._.:.<.[..                   ",
"                      }.|.1.2.3.4.. .         . 5.6.7.8.9.0.a.b.c..                   ",
"                    d.e.f.g.h.i.j..           . k.l.m.n.o.p.q.r.s..                   ",
"                    t.u.v.w.x.y.. .           . z.A.B.C.D.E.F.G.H..                   ",
"                    I.J.K.L.M.N.. .           . O.P.Q.R.S.T.U.V.W..                   ",
"                    X.Y.Z.`. +.+. .           . ++@+#+$+%+&+*+=+-+.                   ",
"                    ;+>+,+'+)+!+. .           . ~+{+]+^+/+(+_+:+. .                   ",
"                    <+[+}+|+1+2+. .           3+4+5+6+7+8+9+0+a+. .                   ",
"                    b+c+d+b+e+d .           . f+g+h+i+j+k+l+@ m+.                     ",
"                                            . n+o+p+q+r+s+t+u+. .                     ",
"                                          v+w+x+y+z+A+B+C+D+E+.                       ",
"                                        . F+G+H+I+J+K+L+M+d+. .                       ",
"                                      N+O+P+Q+R+S+T+U+V+W+d .                         ",
"                                      X+Y+Z+`+ @.@+@@@#@$@.                           ",
"                                    %@&@*@=@-@;@>@,@'@)@. .                           ",
"                                    !@&@~@{@]@^@/@(@_@e+.                             ",
"                                    :@<@[@}@|@1@2@3@4@.                               ",
"                                    5@6@7@8@|@9@0@a@b@.                               ",
"                                    c@d@e@f@g@h@i@j@k@.                               ",
"                                    5@l@m@n@o@p@q@r@.                                 ",
"                                    :@s@t@u@v@w@x@_ .                                 ",
"                                    c+y@z@A@B@C@1+!@.                                 ",
"                                    $@D@. . E@. . .                                   ",
"                                      . . . . . .                                     ",
"                                                                                      ",
"                                                                                      ",
"                                      . . . . . . .                                   ",
"                                    F@G@H@I@J@K@L@M@.                                 ",
"                                    F@N@O@P@Q@p R@S@.                                 ",
"                                    T@U@V@W@X@Y@Z@`@.                                 ",
"                                    k@ #.#+#@###$#%#.                                 ",
"                                    &#*#=#-#;#>#,#%#.                                 ",
"                                    '#)#!#~#{#]#^#_ .                                 ",
"                                      /#(#_#:#<#[#}#.                                 ",
"                                        . . . . . . .                                 "};
