/* XPM */
static const char * const skin_xpm[] = {
"16 16 162 2",
"  	c None",
". 	c #DBA97F",
"+ 	c #C7A89B",
"@ 	c #E1DFDD",
"# 	c #BE9D76",
"$ 	c #A35019",
"% 	c #A8978C",
"& 	c #D3D2D0",
"* 	c #DAD8D7",
"= 	c #D9D6D4",
"- 	c #BEBCB9",
"; 	c #BCAA95",
"> 	c #D78236",
", 	c #844A36",
"' 	c #DADFE4",
") 	c #E0E8E8",
"! 	c #C8D2D3",
"~ 	c #B5B7B7",
"{ 	c #DCDAD7",
"] 	c #BBB7B0",
"^ 	c #CCCACB",
"/ 	c #D2D0D3",
"( 	c #EDAF6C",
"_ 	c #953600",
": 	c #28257E",
"< 	c #A1B4F3",
"[ 	c #F5B7AC",
"} 	c #F4A296",
"| 	c #E5E7EB",
"1 	c #ABB1B6",
"2 	c #C8C4C0",
"3 	c #CECBC5",
"4 	c #F7F7F9",
"5 	c #53548A",
"6 	c #967265",
"7 	c #DE741B",
"8 	c #6F3937",
"9 	c #4155C2",
"0 	c #A8BAEB",
"a 	c #E65138",
"b 	c #DD0C00",
"c 	c #F1D2D5",
"d 	c #BECFD8",
"e 	c #B5BABE",
"f 	c #C2BEB9",
"g 	c #E9E7E5",
"h 	c #FFFFFF",
"i 	c #F9FBFF",
"j 	c #71667C",
"k 	c #E49146",
"l 	c #9D3501",
"m 	c #BFB7BD",
"n 	c #E5F6FE",
"o 	c #DCF0FF",
"p 	c #D7B2BD",
"q 	c #D18F98",
"r 	c #D0DCF6",
"s 	c #D8E5F1",
"t 	c #9DA4A7",
"u 	c #CECBC6",
"v 	c #EAE8E6",
"w 	c #9F9EA3",
"x 	c #444349",
"y 	c #C3C4C7",
"z 	c #E7BD90",
"A 	c #CD5A0B",
"B 	c #946454",
"C 	c #E7F9FF",
"D 	c #DFF1FF",
"E 	c #D8EAFF",
"F 	c #AFE5E5",
"G 	c #3ACB52",
"H 	c #6BCE85",
"I 	c #DBE7FB",
"J 	c #9DA2A9",
"K 	c #B9B4AF",
"L 	c #636167",
"M 	c #000004",
"N 	c #8B7E74",
"O 	c #EF9853",
"P 	c #913710",
"Q 	c #CDD6DF",
"R 	c #E1F5FF",
"S 	c #D2E9FF",
"T 	c #CFE6FF",
"U 	c #97D6CA",
"V 	c #03B200",
"W 	c #44C54A",
"X 	c #CCDAEF",
"Y 	c #9DA5AF",
"Z 	c #BBB6B1",
"` 	c #E7E7E8",
" .	c #BBC1CC",
"..	c #D3B59C",
"+.	c #AF4E1E",
"@.	c #B1A3A5",
"#.	c #E4FBFF",
"$.	c #D4ECFF",
"%.	c #CAE5FF",
"&.	c #C5E1F2",
"*.	c #B7DAE7",
"=.	c #86CCC7",
"-.	c #B3E3E5",
";.	c #A7B6C5",
">.	c #BAC1C8",
",.	c #BFBBB6",
"'.	c #E6E5E3",
").	c #F5E9CC",
"!.	c #BC9877",
"~.	c #987977",
"{.	c #B3BDC4",
"].	c #A8AEB3",
"^.	c #B0C0D0",
"/.	c #BCDAF3",
"(.	c #DCD443",
"_.	c #E5D620",
":.	c #BFDCF1",
"<.	c #C1D6F7",
"[.	c #A7B0B9",
"}.	c #C7C6C3",
"|.	c #ABA194",
"1.	c #CDA447",
"2.	c #8E4B00",
"3.	c #958685",
"4.	c #D9DADA",
"5.	c #E1E0E0",
"6.	c #A4A5A7",
"7.	c #8FA6BC",
"8.	c #D1CD44",
"9.	c #F3E538",
"0.	c #C6D9DB",
"a.	c #9DABBC",
"b.	c #B0A08A",
"c.	c #9C7A32",
"d.	c #6A380E",
"e.	c #989DA6",
"f.	c #8E9296",
"g.	c #8D9196",
"h.	c #92A7B9",
"i.	c #AFD5FC",
"j.	c #BFDFF2",
"k.	c #B0C3CA",
"l.	c #A1ADB7",
"m.	c #C9C1B8",
"n.	c #8D6841",
"o.	c #6C4C2C",
"p.	c #7E7267",
"q.	c #A1ACB7",
"r.	c #BFD5EA",
"s.	c #BEDBF5",
"t.	c #BEDDFA",
"u.	c #AFC6DA",
"v.	c #97A5B3",
"w.	c #BDC4C9",
"x.	c #D8D5D0",
"y.	c #BDB7AF",
"z.	c #DDDBD8",
"A.	c #BDC2C7",
"B.	c #A0A7AD",
"C.	c #9DA6AD",
"D.	c #A0A9B1",
"E.	c #C2C6CB",
"                                ",
"                  . +           ",
"              @ # $ % & *       ",
"          = - ; > , ' ) ! ~     ",
"      { ] ^ / ( _ : < [ } | 1   ",
"    2 3 4 5 6 7 8 9 0 a b c d e ",
"  f g h i j k l m n o p q r s t ",
"u v w x y z A B C D E F G H I J ",
"K h L M N O P Q R S T U V W X Y ",
"Z h `  ...+.@.#.$.%.&.*.=.-.;.>.",
",.'.h ).!.~.{.].^./.(._.:.<.[.  ",
"  }.|.1.2.3.4.5.6.7.8.9.0.a.    ",
"    b.c.d.e.f.g.h.i.j.k.l.      ",
"  m.n.o.p.q.r.s.t.u.v.w.        ",
"  x.y.z.  A.B.C.D.E.            ",
"                                "};
