/* XPM */
static char * stop_xpm[] = {
"45 45 4 1",
" 	c None",
".	c #00007F",
"+	c #0000FF",
"@	c #FFFFFF",
"                .............                ",
"             ...................             ",
"           .......+++++++++.......           ",
"          .....+++++++++++++++.....          ",
"        .....+++++++++++++++++++.....        ",
"       ....+++++++++++++++++++++++....       ",
"      ....+++++++++++++++++++++++++....      ",
"     ....+++++++++++++++++++++++++++....     ",
"    ....+++++++++++++++++++++++++++++....    ",
"    ...+++++++++++++++++++++++++++++++...    ",
"   ...+++++++@@++++++++++++++++@@++++++...   ",
"  ...+++++++@@@@++++++++++++++@@@@++++++...  ",
"  ...++++++@@@@@@++++++++++++@@@@@@+++++...  ",
" ...++++++@@@@@@@@++++++++++@@@@@@@@+++++... ",
" ...+++++++@@@@@@@@++++++++@@@@@@@@++++++... ",
" ..+++++++++@@@@@@@@++++++@@@@@@@@++++++++.. ",
"...++++++++++@@@@@@@@++++@@@@@@@@+++++++++...",
"...+++++++++++@@@@@@@@++@@@@@@@@++++++++++...",
"..+++++++++++++@@@@@@@@@@@@@@@@++++++++++++..",
"..++++++++++++++@@@@@@@@@@@@@@+++++++++++++..",
"..+++++++++++++++@@@@@@@@@@@@++++++++++++++..",
"..++++++++++++++++@@@@@@@@@@+++++++++++++++..",
"..+++++++++++++++++@@@@@@@@++++++++++++++++..",
"..++++++++++++++++@@@@@@@@@@+++++++++++++++..",
"..+++++++++++++++@@@@@@@@@@@@++++++++++++++..",
"..++++++++++++++@@@@@@@@@@@@@@+++++++++++++..",
"..+++++++++++++@@@@@@@@@@@@@@@@++++++++++++..",
"...+++++++++++@@@@@@@@++@@@@@@@@++++++++++...",
"...++++++++++@@@@@@@@++++@@@@@@@@+++++++++...",
" ..+++++++++@@@@@@@@++++++@@@@@@@@++++++++.. ",
" ...+++++++@@@@@@@@++++++++@@@@@@@@++++++... ",
" ...++++++@@@@@@@@++++++++++@@@@@@@@+++++... ",
"  ...++++++@@@@@@++++++++++++@@@@@@+++++...  ",
"  ...+++++++@@@@++++++++++++++@@@@++++++...  ",
"   ...+++++++@@++++++++++++++++@@++++++...   ",
"    ...+++++++++++++++++++++++++++++++...    ",
"    ....+++++++++++++++++++++++++++++....    ",
"     ....+++++++++++++++++++++++++++....     ",
"      ....+++++++++++++++++++++++++....      ",
"       ....+++++++++++++++++++++++....       ",
"        .....+++++++++++++++++++.....        ",
"          .....+++++++++++++++.....          ",
"           .......+++++++++.......           ",
"             ...................             ",
"                .............                "};
