/* XPM */
static const char * const stop2_xpm[] = {
"16 16 29 1",
" 	c None",
".	c #000000",
"+	c #FFFFFF",
"@	c #737372",
"#	c #848483",
"$	c #888887",
"%	c #7E7E7D",
"&	c #A8A7A6",
"*	c #A4A4A3",
"=	c #A6A5A4",
"-	c #B5B4B3",
";	c #858483",
">	c #AAA9A7",
",	c #C0BFBE",
"'	c #91908E",
")	c #AFAEAC",
"!	c #CACAC8",
"~	c #A6A5A2",
"{	c #BBBAB7",
"]	c #D4D3D2",
"^	c #AEADA9",
"/	c #BFBDBA",
"(	c #D7D5D3",
"_	c #B2B0AD",
":	c #C3C1BE",
"<	c #D9D8D6",
"[	c #B5B3B0",
"}	c #D1CFCC",
"|	c #DEDDDB",
"                ",
"                ",
" .............+ ",
" .@#$$$$$$$$$.+ ",
" .%&*********.+ ",
" .%=---------.+ ",
" .;>,,,,,,,,,.+ ",
" .')!!!!!!!!!.+ ",
" .')!!!!!!!!!.+ ",
" .~{]]]]]]]]].+ ",
" .~{]]]]]]]]].+ ",
" .^/(((((((((.+ ",
" ._:<<<<<<<<<.+ ",
" .[}|||||||||.+ ",
" .............+ ",
" +++++++++++++  "};
