/* XPM */
static const char * const stop_xpm[] = {
"48 48 203 2",
"  	c None",
". 	c #5A5A5A",
"+ 	c #575757",
"@ 	c #545454",
"# 	c #535353",
"$ 	c #565656",
"% 	c #898989",
"& 	c #6B6B6B",
"* 	c #D5D5D5",
"= 	c #FFFFFF",
"- 	c #FEFEFE",
"; 	c #FDFDFD",
"> 	c #E4E4E4",
", 	c #5B5B5B",
"' 	c #7A7A7A",
") 	c #666666",
"! 	c #E6E6E6",
"~ 	c #FCFCFC",
"{ 	c #E3E3E3",
"] 	c #5E5E5E",
"^ 	c #7B7B7B",
"/ 	c #6C6C6C",
"( 	c #F8F8F8",
"_ 	c #F7F7F7",
": 	c #F6F6F6",
"< 	c #FBFBFB",
"[ 	c #EDEDED",
"} 	c #D8D8D8",
"| 	c #D3D3D3",
"1 	c #DADADA",
"2 	c #DEDEDE",
"3 	c #E0E0E0",
"4 	c #EAEAEA",
"5 	c #FAFAFA",
"6 	c #585858",
"7 	c #787878",
"8 	c #F5F5F5",
"9 	c #BC9999",
"0 	c #B40000",
"a 	c #D47E7E",
"b 	c #5C5C5C",
"c 	c #838383",
"d 	c #F4F4F4",
"e 	c #AF8181",
"f 	c #B30000",
"g 	c #D47F7F",
"h 	c #4F4F4F",
"i 	c #686868",
"j 	c #DFDFDF",
"k 	c #AD7D7D",
"l 	c #B10000",
"m 	c #B20000",
"n 	c #D28080",
"o 	c #808080",
"p 	c #6A6A6A",
"q 	c #B18383",
"r 	c #B00000",
"s 	c #D17777",
"t 	c #4E4E4E",
"u 	c #878787",
"v 	c #6F6F6F",
"w 	c #B38585",
"x 	c #AE0000",
"y 	c #AF0000",
"z 	c #D07C7C",
"A 	c #515151",
"B 	c #6E6E6E",
"C 	c #AF7F7F",
"D 	c #AC0000",
"E 	c #AD0000",
"F 	c #CE7B7B",
"G 	c #555555",
"H 	c #717171",
"I 	c #AA0000",
"J 	c #AB0000",
"K 	c #CD7171",
"L 	c #E1E1E1",
"M 	c #D7D7D7",
"N 	c #A80000",
"O 	c #A90000",
"P 	c #CD7878",
"Q 	c #F9F9F9",
"R 	c #353535",
"S 	c #D0D0D0",
"T 	c #B58282",
"U 	c #A70000",
"V 	c #CB7676",
"W 	c #DCDCDC",
"X 	c #3A3A3A",
"Y 	c #A50000",
"Z 	c #A60000",
"` 	c #CB7575",
" .	c #F2F2F2",
"..	c #454545",
"+.	c #D4D4D4",
"@.	c #B48080",
"#.	c #A40000",
"$.	c #CA7B7B",
"%.	c #A10000",
"&.	c #A20000",
"*.	c #A30000",
"=.	c #A00000",
"-.	c #CC7777",
";.	c #DFAAAA",
">.	c #EDD0D0",
",.	c #C46060",
"'.	c #F1F1F1",
").	c #9E0000",
"!.	c #9F0000",
"~.	c #D59191",
"{.	c #9D0000",
"].	c #9B0000",
"^.	c #9C0000",
"/.	c #990000",
"(.	c #BB5757",
"_.	c #9A0000",
":.	c #C97777",
"<.	c #ECD0D0",
"[.	c #980000",
"}.	c #BF6161",
"|.	c #960000",
"1.	c #970000",
"2.	c #F0F0F0",
"3.	c #940000",
"4.	c #950000",
"5.	c #920000",
"6.	c #930000",
"7.	c #C57777",
"8.	c #910000",
"9.	c #DAAAAA",
"0.	c #C47777",
"a.	c #B65757",
"b.	c #B75757",
"c.	c #D9D9D9",
"d.	c #8F0000",
"e.	c #900000",
"f.	c #E9E9E9",
"g.	c #AA4747",
"h.	c #8D0000",
"i.	c #8E0000",
"j.	c #C16C6C",
"k.	c #E2E2E2",
"l.	c #A64444",
"m.	c #8C0000",
"n.	c #BC6363",
"o.	c #EFEFEF",
"p.	c #525252",
"q.	c #DDDDDD",
"r.	c #A54343",
"s.	c #8A0000",
"t.	c #8B0000",
"u.	c #B14B4B",
"v.	c #474747",
"w.	c #444444",
"x.	c #A84242",
"y.	c #890000",
"z.	c #B95E5E",
"A.	c #4C4C4C",
"B.	c #A34040",
"C.	c #870000",
"D.	c #880000",
"E.	c #AF4B4B",
"F.	c #343434",
"G.	c #505050",
"H.	c #A23E3E",
"I.	c #850000",
"J.	c #860000",
"K.	c #AE4C4C",
"L.	c #9F3D3D",
"M.	c #840000",
"N.	c #AD4A4A",
"O.	c #323232",
"P.	c #4D4D4D",
"Q.	c #A23D3D",
"R.	c #820000",
"S.	c #830000",
"T.	c #AC4949",
"U.	c #9F3B3B",
"V.	c #800000",
"W.	c #810000",
"X.	c #D2D2D2",
"Y.	c #393939",
"Z.	c #CACACA",
"`.	c #A13B3B",
" +	c #7F0000",
".+	c #A94545",
"++	c #A43B3B",
"@+	c #7D0000",
"#+	c #A53C3C",
"$+	c #BCBCBC",
"%+	c #333333",
"&+	c #BBBBBB",
"*+	c #C2C2C2",
"=+	c #303030",
"-+	c #A3A3A3",
";+	c #A8A8A8",
">+	c #A7A7A7",
",+	c #AFAFAF",
"'+	c #363636",
")+	c #464646",
"!+	c #272727",
"~+	c #2E2E2E",
"{+	c #2C2C2C",
"                                                                                                ",
"                                                                                                ",
"                            . + @ @ # # # # # # # # # # # # # # $ %                             ",
"                          & * = = - - - - - - - - ; ; ; ; ; ; ; > , '                           ",
"                        ) ! = = - - - - - - - - ; ; ; ; ; ; ; ; ~ { ] ^                         ",
"                      / ! = - - - ( _ _ _ _ : : : < < ; ; ; ; ~ ~ ~ ~ $ ^                       ",
"                    ) = = - - ( [ } | | | 1 2 2 2 2 3 4 4 [ ~ 5 ~ ~ ~ { 6 7                     ",
"                  ) = - - - 8 2 9 0 0 0 0 0 0 0 0 0 0 0 0 0 a ~ ~ ~ ~ ~ < b c                   ",
"                / = - - - d 3 e f f f f 0 0 0 0 0 0 0 0 0 0 0 g ~ ~ ~ < < < h c                 ",
"              i = - - - 8 j k l l l l l m m m m m m m m m m m m n < < < < < < 6 o               ",
"            p - - - - 8 * q r r r r r r r r r r r r r r r r r r l s < < < < < < t u             ",
"          v - - - - d 1 w x x x x x x x x x x x y y y y y y y y y y z < < < < 5 5 A o           ",
"        B - - - - 8 1 C D D D D D D D D E E E E E E E E E E E E E E E F < 5 5 5 5 5 G u         ",
"      H - - - - 8 * C I J J J J J J J J J J J J J J J J D D D D D D D D K 5 5 5 5 5 L t u       ",
"    B - - - - d M w N O O O O O O O O O O O O O O O O O O O O O I I I I I P 5 5 5 5 5 Q h o     ",
"  R - - - - 8 S T U U U U U U N N N N N N N N N N N N N N N N N N N N N N N V 5 5 Q Q Q W X     ",
"  # - - - ( M T Y Y Y Y Y Y Y Y Y Y Y Z Z Z Z Z Z Z Z Z Z Z Z Z Z Z Z U U U U ` Q Q Q Q  ...    ",
"  # - - 5 +.@.#.#.#.#.#.#.#.#.#.#.#.#.#.#.#.#.#.#.#.#.#.#.#.#.Y Y Y Y Y Y Y Y Y $.Q Q Q  ...    ",
"  # - - : } %.&.&.&.&.&.&.&.&.&.&.&.&.&.&.&.&.*.*.*.*.*.*.*.*.*.*.*.*.*.*.*.*.#.#.- Q Q  ...    ",
"  # - ; : } =.=.=.=.=.=.-.= = ;.=.= = = = = %.-.= = = -.%.%.= = = >.,.%.%.%.%.&.&.- Q Q '...    ",
"  # ; ; : } ).).).).).!.= !.!.~.!.!.!.= !.!.!.= !.!.!.= =.=.= =.=.-.>.=.=.=.=.=.=.- Q ( '...    ",
"  # ; ; : } {.{.{.{.{.{.= {.{.{.{.{.{.= {.{.{.= {.{.).= ).).= ).).).= ).).).).).).- ( ( '...    ",
"  # ; ; : } ].].].].].].= ].^.^.^.^.^.= ^.^.^.= ^.^.^.= ^.^.= ^.^.^.= ^.^.^.{.{.{.- ( ( '...    ",
"  # ; ; : } /./././././.(.= = (././._.= _._._.= _._._.= _._.= ].].:.<.].].].].].].- ( ( '...    ",
"  # ; ; 8 M [.[.[.[.[.[.[.[.[.= [.[.[.= [.[./.= /././.= /./.= = = <.}././././././.- ( ( '...    ",
"  # ; ~ 8 M |.|.|.|.|.|.|.|.|.= |.|.|.= |.|.1.= 1.1.1.= 1.1.= 1.1.1.[.[.[.[.[.[.[.- ( ( 2...    ",
"  # ~ ~ 8 M 3.3.3.3.3.3.3.3.4.= 4.4.4.= 4.4.4.= 4.4.4.= 4.4.= 4.4.4.4.4.4.4.|.|.|.- ( _ 2...    ",
"  # ~ ~ 8 M 5.5.5.6.6.6.7.6.6.= 6.6.6.= 6.6.6.= 6.6.3.= 3.3.= 3.3.3.3.3.3.3.3.3.3.- _ _ 2...    ",
"  # ~ ~ : M 8.8.8.8.8.8.9.= = 0.8.8.8.= 8.8.8.a.= = = b.5.5.= 5.5.5.5.5.5.5.5.5.5.- _ _ 2...    ",
"  # ~ ~ ~ c.d.d.d.d.d.d.d.e.e.e.e.e.e.e.e.e.e.e.e.e.e.e.e.e.e.e.e.8.8.8.8.8.8.8.8.- _ _ 2...    ",
"  # ~ ~ < f.g.h.h.h.h.h.h.i.i.i.i.i.i.i.i.i.i.i.i.i.i.i.i.d.d.d.d.d.d.d.d.d.d.d.j.- _ _ 2...    ",
"  # ~ < < Q k.l.m.m.m.m.m.m.m.m.m.m.m.m.m.h.h.h.h.h.h.h.h.h.h.h.h.h.h.h.h.h.h.n.~ _ _ _ o...    ",
"  p.< < < < < q.r.s.s.s.s.s.s.s.s.t.t.t.t.t.t.t.t.t.t.t.t.t.t.t.t.m.m.m.m.m.u.; ; _ _ : o.v.    ",
"  w.< < < < < < q.x.y.y.y.y.y.y.y.y.y.y.y.y.y.y.y.y.y.y.y.y.y.y.y.y.y.y.y.z.- ; _ : : : 2...    ",
"    A.< < < < 5 ( W B.C.C.C.C.C.C.C.C.C.D.D.D.D.D.D.D.D.D.D.D.D.D.D.D.D.E.- ; _ : : : | F.      ",
"      G.< 5 5 5 5 5 W H.I.I.I.I.I.I.I.I.I.I.I.I.J.J.J.J.J.J.J.J.J.J.J.K.- ; : : : : 4 X         ",
"        t L 5 5 5 5 5 2 L.M.M.M.M.M.M.M.M.M.M.M.M.M.M.M.M.M.M.M.I.I.N.- ~ : : : : 4 O.          ",
"          P.5 5 5 5 5 Q W Q.R.R.R.R.R.R.R.R.R.R.R.R.R.R.S.S.S.S.S.T.- - : : : : | O.            ",
"            A.L 5 5 Q Q Q 1 U.V.V.V.V.V.W.W.W.W.W.W.W.W.W.W.W.W.g.- - : : : : X.Y.              ",
"              A.Z.Q Q Q Q Q q.`. + + + + + + + + + + + + + + +.+- - : : : : X.O.                ",
"                P.3 Q Q Q Q Q 4 ++@+@+@+@+@+@+@+@+@+@+@+@+@+#+- - : : : : $+%+                  ",
"                  h &+Q Q Q ( ( ( ; ; ; ; ; ; ; ; ; ; ; ; ; ; ~ : : : : *+=+                    ",
"                    t &+( ( ( ( ( ( ( ( _ _ _ _ _ _ _ _ _ : : : : : : *+F.                      ",
"                      G -+( ( ( ( ( ( _ _ _ _ _ _ _ _ : : : : : : : ;+%+                        ",
"                        . >+'.'.'.'.2.2.2.2.2.2.2.2.o.o.o.o.o.o.2.,+'+                          ",
"                          )+=+!+!+!+!+!+!+!+!+!+!+!+!+!+!+!+!+!+~+{+                            ",
"                                                                                                ",
"                                                                                                "};
