/* XPM */
static const char * title_xpm[] = {
"16 16 4 1",
" 	c None",
".	c #000000",
"+	c #CD0909",
"@	c #FFFFFF",
"  ..            ",
" .++.           ",
".++++.          ",
".++++.  .    .  ",
" .++.  .@.  .@. ",
"  ..  .@@@..@@@.",
"       .@.  .@. ",
"        .    .  ",
"  ..            ",
" .++.           ",
".++++.          ",
".++++.  .    .  ",
" .++.  .@.  .@. ",
"  ..  .@@@..@@@.",
"       .@.  .@. ",
"        .    .  "};
