/* XPM */
static const char * const tonguebla_xpm[] = {
"16 16 137 2",
"  	c None",
". 	c #FC151B",
"+ 	c #F31C35",
"@ 	c #FD4344",
"# 	c #FA8C99",
"$ 	c #E9080F",
"% 	c #DDAFA4",
"& 	c #FDD8E0",
"* 	c #F33A41",
"= 	c #F00807",
"- 	c #E6DFE0",
"; 	c #ECF6F4",
"> 	c #E0081D",
", 	c #F10705",
"' 	c #E4080E",
") 	c #EE0512",
"! 	c #F80C0B",
"~ 	c #F70D0A",
"{ 	c #EF1510",
"] 	c #E60F0D",
"^ 	c #DC4248",
"/ 	c #E9383B",
"( 	c #E91E18",
"_ 	c #F48D94",
": 	c #F3E2DA",
"< 	c #E92B32",
"[ 	c #EE0B15",
"} 	c #F1726F",
"| 	c #FC7680",
"1 	c #EE0409",
"2 	c #F10306",
"3 	c #DE5154",
"4 	c #7F0401",
"5 	c #170009",
"6 	c #535455",
"7 	c #DCD4D3",
"8 	c #F4F9F7",
"9 	c #EBEBEA",
"0 	c #EFFEFF",
"a 	c #FEF1FA",
"b 	c #F5CBCB",
"c 	c #F4090A",
"d 	c #E91F21",
"e 	c #FEA7AB",
"f 	c #EA0314",
"g 	c #0A0203",
"h 	c #430002",
"i 	c #CC090F",
"j 	c #F30407",
"k 	c #390414",
"l 	c #110501",
"m 	c #4D3F3F",
"n 	c #D60D16",
"o 	c #E74746",
"p 	c #850702",
"q 	c #E60304",
"r 	c #DC090B",
"s 	c #E91B29",
"t 	c #BD070E",
"u 	c #FA0202",
"v 	c #F76364",
"w 	c #B90601",
"x 	c #DA0307",
"y 	c #FE060E",
"z 	c #F30F09",
"A 	c #F12F34",
"B 	c #F80409",
"C 	c #A90405",
"D 	c #FD020B",
"E 	c #FABDB8",
"F 	c #E90700",
"G 	c #F6A9A6",
"H 	c #C71C09",
"I 	c #CA0819",
"J 	c #F80C06",
"K 	c #EF0A13",
"L 	c #FA8786",
"M 	c #E62B35",
"N 	c #C20502",
"O 	c #FA0C12",
"P 	c #E50100",
"Q 	c #E8323C",
"R 	c #F4B3A8",
"S 	c #7F0C03",
"T 	c #EF0908",
"U 	c #F50111",
"V 	c #F7192A",
"W 	c #F8AAA5",
"X 	c #DB0F11",
"Y 	c #F71514",
"Z 	c #DA6D61",
"` 	c #EF887F",
" .	c #EE0704",
"..	c #EDFCF3",
"+.	c #F60212",
"@.	c #EB0307",
"#.	c #E9070B",
"$.	c #E70E0B",
"%.	c #F9DDD9",
"&.	c #F6060E",
"*.	c #B10A0E",
"=.	c #F00A09",
"-.	c #DE0600",
";.	c #F31113",
">.	c #FDDFE2",
",.	c #DC0909",
"'.	c #F10B12",
").	c #F90306",
"!.	c #F9181F",
"~.	c #FCD0D1",
"{.	c #A9040F",
"].	c #EA4754",
"^.	c #FA0908",
"/.	c #F41821",
"(.	c #000000",
"_.	c #EE090F",
":.	c #ED0D06",
"<.	c #F76869",
"[.	c #850405",
"}.	c #F80A07",
"|.	c #EC0000",
"1.	c #F6090B",
"2.	c #EE080A",
"3.	c #E82322",
"4.	c #E10B0B",
"5.	c #D80507",
"6.	c #E58874",
"7.	c #E94149",
"8.	c #ED0A04",
"9.	c #F50A0E",
"0.	c #DD423D",
"a.	c #7C302B",
"b.	c #E41D24",
"c.	c #EE0A0E",
"d.	c #FA050E",
"e.	c #F40517",
"f.	c #B6787D",
"            . +     @ #         ",
"          $ % & * = - ;         ",
"        > , ' ) ! ~ { ] ^       ",
"      / ( _ : < [ } | 1 2       ",
"    3 4 5 6 7 8 9 0 a b c d     ",
"  e f g h i j k l m n o p q r   ",
"    s t u v w x y z A B C D     ",
"    E F G H I J K L M N O       ",
"    P Q R S T U V W X Y Z       ",
"  `  ...+.@.#.$.%.&.*.=.        ",
"  -.;.>.,.'.).!.~.{.&.].        ",
"  ^./.(.(._.:.(.<.[.}.  (.      ",
"  |.1.(.2.(.3.(.4.5.6.(.  (.    ",
"  7.8.(.(.9.0.(.a.    (.  (.    ",
"    b.(.c.(.d.(.      (.(.(.    ",
"      (.(.e.f.(.(.(.  (.  (.    "};
