/* XPM */
static const char * const up_xpm[] = {
"16 16 93 2",
"  	c None",
". 	c #000000",
"+ 	c #BDCCCD",
"@ 	c #B6C6C8",
"# 	c #8F9DA8",
"$ 	c #9FB6C5",
"% 	c #90AEB9",
"& 	c #83A0A9",
"* 	c #6E8E9D",
"= 	c #83ABC2",
"- 	c #99BBD4",
"; 	c #8EB5D3",
"> 	c #75A6CC",
", 	c #6FA5C9",
"' 	c #86A9BE",
") 	c #87ACBB",
"! 	c #82A4B0",
"~ 	c #89A6B2",
"{ 	c #BFD7E5",
"] 	c #DDEDFB",
"^ 	c #DEEEFC",
"/ 	c #CCE5F5",
"( 	c #B4D9ED",
"_ 	c #84BEE6",
": 	c #9DBBCD",
"< 	c #E6F0F3",
"[ 	c #EEF5F9",
"} 	c #F1F7F8",
"| 	c #F8FAF9",
"1 	c #FBFBFB",
"2 	c #FAFBFC",
"3 	c #DDEDF7",
"4 	c #B8DAEF",
"5 	c #7DB8E2",
"6 	c #9AB9CB",
"7 	c #EEF6F5",
"8 	c #FAFCFD",
"9 	c #F8FBFB",
"0 	c #F5F9F7",
"a 	c #F4F7F7",
"b 	c #F3F7F8",
"c 	c #D0E6F3",
"d 	c #A7D1EC",
"e 	c #6BACDE",
"f 	c #9CB8CC",
"g 	c #EBF2F2",
"h 	c #F3F7F7",
"i 	c #EFF5F6",
"j 	c #ECF3F2",
"k 	c #E9F1F2",
"l 	c #E7F1F4",
"m 	c #BFDCEC",
"n 	c #94C4E5",
"o 	c #599ED6",
"p 	c #98B4CA",
"q 	c #D9E6E9",
"r 	c #DEEBEB",
"s 	c #DCEAEB",
"t 	c #DAE8E9",
"u 	c #D8E8E8",
"v 	c #D7E6EA",
"w 	c #A9CDE2",
"x 	c #7AB2D9",
"y 	c #448ECC",
"z 	c #8EB0C6",
"A 	c #BCD7DA",
"B 	c #C4DDDC",
"C 	c #C5DDDE",
"D 	c #C5DDDD",
"E 	c #C7DEDF",
"F 	c #C6DCE0",
"G 	c #94BFD7",
"H 	c #62A3CB",
"I 	c #3381C0",
"J 	c #8AABC4",
"K 	c #99BFC6",
"L 	c #A0C4CA",
"M 	c #A2C5CB",
"N 	c #A4C7CC",
"O 	c #A9CAD0",
"P 	c #A9C8D1",
"Q 	c #7AACC7",
"R 	c #4D91BC",
"S 	c #2573B1",
"T 	c #2B688D",
"U 	c #29648E",
"V 	c #2A6590",
"W 	c #2B6592",
"X 	c #2C6893",
"Y 	c #2D6594",
"Z 	c #205A91",
"` 	c #145190",
" .	c #084A8D",
"                          .     ",
"                          . .   ",
"                    . . . . . . ",
"                  .       . .   ",
"                .         .     ",
"      + @       # #             ",
"    $ % & * = - ; > ,           ",
"    ' ) ! ~ { ] ^ / ( _         ",
"    : < [ } | 1 2 3 4 5         ",
"    6 7 8 9 0 a b c d e         ",
"    f g h i j k l m n o         ",
"    p q r s t u v w x y         ",
"    z A B C D E F G H I         ",
"    J K L M N O P Q R S         ",
"      T U V W X Y Z `  .        ",
"                                "};
