/* XPM */
static const char * const vcd_xpm[] = {
"16 16 160 2",
"  	c None",
". 	c #CC9665",
"+ 	c #E1C0A3",
"@ 	c #EAD1BD",
"# 	c #E9D2BB",
"$ 	c #D7B597",
"% 	c #9D7C5C",
"& 	c #CE9E71",
"* 	c #F6E9DE",
"= 	c #FEF5EE",
"- 	c #FFFAF6",
"; 	c #FFFBF7",
"> 	c #FDF9F5",
", 	c #F2EBDD",
"' 	c #FBF5E4",
") 	c #F3E6D5",
"! 	c #B19D8A",
"~ 	c #D9AE89",
"{ 	c #FFEFE3",
"] 	c #FFF7F0",
"^ 	c #FFF6EE",
"/ 	c #FFF7EF",
"( 	c #FFF6EB",
"_ 	c #FFF1DD",
": 	c #FFF6E3",
"< 	c #FFFCE9",
"[ 	c #FFFFF9",
"} 	c #FFFFFA",
"| 	c #BEA98F",
"1 	c #C08F68",
"2 	c #FFD5B2",
"3 	c #FFCAA8",
"4 	c #FFE2CC",
"5 	c #FFF3E9",
"6 	c #FFF4E9",
"7 	c #FFF3E1",
"8 	c #FFF0D0",
"9 	c #FFF9D9",
"0 	c #FFFEE7",
"a 	c #FFFFF8",
"b 	c #FFF8DA",
"c 	c #B8A685",
"d 	c #F2B788",
"e 	c #FFB886",
"f 	c #FFBD8B",
"g 	c #FFCA9B",
"h 	c #FFE7CF",
"i 	c #FFF6EA",
"j 	c #FFF4DB",
"k 	c #FFF7CA",
"l 	c #FFFFE1",
"m 	c #FFFFF6",
"n 	c #FFFBEE",
"o 	c #FFF3D4",
"p 	c #FFF3BB",
"q 	c #DDC18E",
"r 	c #805A34",
"s 	c #FDB070",
"t 	c #FFAD6E",
"u 	c #FFBA7D",
"v 	c #FFC78B",
"w 	c #FFDAA3",
"x 	c #FFEAC8",
"y 	c #FFF6C9",
"z 	c #FFF8C4",
"A 	c #FFF8E8",
"B 	c #FFFAEB",
"C 	c #FFF0C7",
"D 	c #FFE8A8",
"E 	c #FFE188",
"F 	c #FFDC86",
"G 	c #B57841",
"H 	c #FFA656",
"I 	c #FFAC5F",
"J 	c #FFBC73",
"K 	c #FFCE89",
"L 	c #FFDA91",
"M 	c #FFE194",
"N 	c #B2A177",
"O 	c #C0B095",
"P 	c #FFE6BB",
"Q 	c #FFE9B3",
"R 	c #FFD76C",
"S 	c #FFCC3D",
"T 	c #ECBB2F",
"U 	c #966F30",
"V 	c #BC7D42",
"W 	c #FFAA52",
"X 	c #FFAF57",
"Y 	c #FFC673",
"Z 	c #FFDE8E",
"` 	c #FFE58D",
" .	c #FCE5A0",
"..	c #FFDA8B",
"+.	c #FFD673",
"@.	c #FFBA00",
"#.	c #FEC417",
"$.	c #A77D2E",
"%.	c #A7713B",
"&.	c #FFBF69",
"*.	c #FFC570",
"=.	c #FFDB87",
"-.	c #FFF3A1",
";.	c #FFF9BF",
">.	c #FFE4BA",
",.	c #DFC19C",
"'.	c #ECC48A",
").	c #FFCA5D",
"!.	c #FFCC45",
"~.	c #FEC21C",
"{.	c #A57927",
"].	c #FFCF7C",
"^.	c #FFDE8B",
"/.	c #FFFFCB",
"(.	c #FFFFF4",
"_.	c #FFECC6",
":.	c #FFE4AA",
"<.	c #FFE8BA",
"[.	c #FFC21D",
"}.	c #B58726",
"|.	c #E5BC73",
"1.	c #FFFAA9",
"2.	c #FFFFCD",
"3.	c #FFFEF1",
"4.	c #FFF3D3",
"5.	c #FFE69F",
"6.	c #FFE9AB",
"7.	c #FFF0C5",
"8.	c #FFEBB4",
"9.	c #FFD465",
"0.	c #A98E59",
"a.	c #FFF1B6",
"b.	c #FFE59F",
"c.	c #FFD86C",
"d.	c #FFE08B",
"e.	c #FFEAB1",
"f.	c #FFE5A3",
"g.	c #FFE7AB",
"h.	c #CCB396",
"i.	c #FFE5B4",
"j.	c #FFECA5",
"k.	c #FFDB70",
"l.	c #FFCB3B",
"m.	c #FFD871",
"n.	c #FFE8AB",
"o.	c #FFE6A4",
"p.	c #FFE9AA",
"q.	c #C1A46F",
"r.	c #EABC6D",
"s.	c #FFC924",
"t.	c #FFDC6A",
"u.	c #FFEFAD",
"v.	c #FFEAA1",
"w.	c #FFDA8E",
"x.	c #A97B28",
"y.	c #C08D27",
"z.	c #C99C47",
"A.	c #CEA762",
"B.	c #C09A5A",
"C.	c #855F2F",
"          . + @ # $ %           ",
"      & * = - ; > , ' ) !       ",
"    ~ { ] ^ / ( _ : < [ } |     ",
"  1 2 3 4 5 6 7 8 9 0 a } b c   ",
"  d e f g h i j k l m n o p q   ",
"r s t u v w x y z A B C D E F   ",
"G H I J K L M N O P Q D R S T U ",
"V W X Y Z `  .    ..+.R @.@.#.$.",
"%.&.*.=.-.;.>.,.'.).!.!.R ~.~.{.",
"  ].^.-./.(._.:.<.^.[.!.!.R }.  ",
"  |.1.2.3.4.5.6.7.8.9.).!.!.R   ",
"  0.a.[ 4.b.c.d.e.f.g.9.).!.    ",
"    h.i.j.k.l.m.n.o.p.p.9.      ",
"      q.r.!.s.t.u.v.w.p.p.      ",
"          x.y.z.A.B.C.          ",
"                                "};
