/* XPM */
static const char * const warning_xpm[] = {
"48 48 263 2",
"  	c None",
". 	c #6D0000",
"+ 	c #700000",
"@ 	c #6F0000",
"# 	c #6C0000",
"$ 	c #610000",
"% 	c #4F0000",
"& 	c #660000",
"* 	c #5C0000",
"= 	c #6E0000",
"- 	c #6B0000",
"; 	c #650000",
"> 	c #6A0000",
", 	c #5D0000",
"' 	c #680000",
") 	c #5E0000",
"! 	c #681414",
"~ 	c #834F4F",
"{ 	c #987979",
"] 	c #A28181",
"^ 	c #934949",
"/ 	c #710202",
"( 	c #690000",
"_ 	c #600000",
": 	c #640000",
"< 	c #611212",
"[ 	c #8D6464",
"} 	c #C1C1C1",
"| 	c #D3D3D3",
"1 	c #DFDFDF",
"2 	c #E0E0E0",
"3 	c #D3C6C6",
"4 	c #A76E6E",
"5 	c #811F1F",
"6 	c #750909",
"7 	c #7B4B4B",
"8 	c #D9D9D9",
"9 	c #E1E1E1",
"0 	c #D7CBCB",
"a 	c #994F4F",
"b 	c #7E1919",
"c 	c #5F0000",
"d 	c #9C8888",
"e 	c #CDCDCD",
"f 	c #E2E2E2",
"g 	c #A26060",
"h 	c #812020",
"i 	c #720505",
"j 	c #530000",
"k 	c #641313",
"l 	c #ACA3A3",
"m 	c #DBDBDB",
"n 	c #E3E3E3",
"o 	c #C3A2A2",
"p 	c #7F1B1B",
"q 	c #661414",
"r 	c #ABA1A1",
"s 	c #D4D4D4",
"t 	c #E4E4E4",
"u 	c #AE7878",
"v 	c #791111",
"w 	c #620000",
"x 	c #927575",
"y 	c #E5E5E5",
"z 	c #A76868",
"A 	c #740808",
"B 	c #8C6565",
"C 	c #CCCCCC",
"D 	c #E6E6E6",
"E 	c #7E7E7E",
"F 	c #4C4C4C",
"G 	c #464646",
"H 	c #797979",
"I 	c #E7E7E7",
"J 	c #DBD0D0",
"K 	c #903B3B",
"L 	c #510000",
"M 	c #670000",
"N 	c #722929",
"O 	c #C0C0C0",
"P 	c #757575",
"Q 	c #686868",
"R 	c #505050",
"S 	c #282828",
"T 	c #090909",
"U 	c #676767",
"V 	c #E8E8E8",
"W 	c #D1BBBB",
"X 	c #801E1E",
"Y 	c #700101",
"Z 	c #B3A8A8",
"` 	c #D5D5D5",
" .	c #4D4D4D",
"..	c #545454",
"+.	c #101010",
"@.	c #000000",
"#.	c #E9E9E9",
"$.	c #B07A7A",
"%.	c #7A1313",
"&.	c #875454",
"*.	c #5E5E5E",
"=.	c #323232",
"-.	c #EAEAEA",
";.	c #EBEBEB",
">.	c #8F3939",
",.	c #720404",
"'.	c #691515",
").	c #C8C8C8",
"!.	c #5F5F5F",
"~.	c #2A2A2A",
"{.	c #D1D1D1",
"].	c #D3BDBD",
"^.	c #5B0000",
"/.	c #976C6C",
"(.	c #D2D2D2",
"_.	c #EDEDED",
":.	c #565656",
"<.	c #202020",
"[.	c #ECECEC",
"}.	c #994C4C",
"|.	c #7B1414",
"1.	c #C7C7C7",
"2.	c #5C5C5C",
"3.	c #D3BBBB",
"4.	c #5A0000",
"5.	c #926969",
"6.	c #EEEEEE",
"7.	c #858585",
"8.	c #2C2C2C",
"9.	c #353535",
"0.	c #9C5252",
"a.	c #730707",
"b.	c #681515",
"c.	c #C4C4C4",
"d.	c #EFEFEF",
"e.	c #989898",
"f.	c #4E4E4E",
"g.	c #010101",
"h.	c #6A6A6A",
"i.	c #D6BFBF",
"j.	c #540000",
"k.	c #630000",
"l.	c #895656",
"m.	c #F0F0F0",
"n.	c #C5C5C5",
"o.	c #585858",
"p.	c #191919",
"q.	c #BBBBBB",
"r.	c #9D5353",
"s.	c #B8ADAD",
"t.	c #F1F1F1",
"u.	c #F2F2F2",
"v.	c #1B1B1B",
"w.	c #CAA8A8",
"x.	c #801D1D",
"y.	c #3D0000",
"z.	c #7A2D2D",
"A.	c #CECECE",
"B.	c #292929",
"C.	c #060606",
"D.	c #868686",
"E.	c #842525",
"F.	c #760B0B",
"G.	c #996F6F",
"H.	c #D6D6D6",
"I.	c #F3F3F3",
"J.	c #575757",
"K.	c #535353",
"L.	c #A45F5F",
"M.	c #C3B8B8",
"N.	c #F4F4F4",
"O.	c #F5F5F5",
"P.	c #C8A3A3",
"Q.	c #3C0000",
"R.	c #6A1515",
"S.	c #F6F6F6",
"T.	c #410000",
"U.	c #7F4242",
"V.	c #CFCFCF",
"W.	c #707070",
"X.	c #434343",
"Y.	c #515151",
"Z.	c #F7F7F7",
"`.	c #A56161",
" +	c #7C1717",
".+	c #4E0000",
"++	c #946C6C",
"@+	c #1A1A1A",
"#+	c #0C0C0C",
"$+	c #3B3B3B",
"%+	c #F8F8F8",
"&+	c #B17676",
"*+	c #4C0000",
"=+	c #A58787",
"-+	c #2D2D2D",
";+	c #F9F9F9",
">+	c #CCA9A9",
",+	c #580000",
"'+	c #8A5858",
")+	c #494949",
"!+	c #131313",
"~+	c #FAFAFA",
"{+	c #CDA9A9",
"]+	c #832222",
"^+	c #6C2929",
"/+	c #3C3C3C",
"(+	c #FBFBFB",
"_+	c #822121",
":+	c #560000",
"<+	c #B5A0A0",
"[+	c #FCFCFC",
"}+	c #903A3A",
"|+	c #4A0000",
"1+	c #AA7D7D",
"2+	c #FDFDFD",
"3+	c #DEC7C7",
"4+	c #9F5555",
"5+	c #7D1818",
"6+	c #3E0000",
"7+	c #AE7070",
"8+	c #ECE0E0",
"9+	c #FEFEFE",
"0+	c #CEA9A9",
"a+	c #994949",
"b+	c #862828",
"c+	c #770D0D",
"d+	c #170000",
"e+	c #8F3737",
"f+	c #BE8D8D",
"g+	c #DFC8C8",
"h+	c #FFFFFF",
"i+	c #EEE2E2",
"j+	c #D1AEAE",
"k+	c #A66363",
"l+	c #852626",
"m+	c #310000",
"n+	c #710303",
"o+	c #7C1616",
"p+	c #832323",
"q+	c #9E5353",
"r+	c #AC6D6D",
"s+	c #C59999",
"t+	c #D3B2B2",
"u+	c #D2B1B1",
"v+	c #EFE4E4",
"w+	c #A76464",
"x+	c #A86666",
"y+	c #320000",
"z+	c #520000",
"A+	c #730606",
"B+	c #780F0F",
"C+	c #7B1515",
"D+	c #7A1212",
"E+	c #250000",
"F+	c #450000",
"G+	c #260000",
"H+	c #290000",
"I+	c #340000",
"J+	c #280000",
"K+	c #370000",
"L+	c #590000",
"M+	c #4D0000",
"N+	c #360000",
"                                                                                                ",
"                                                                                                ",
"                                                                                                ",
"                                        . + + + @ #                                             ",
"                                  # + + + + + + + + + $ %                                       ",
"                                + + + + + + + + + + + @ & *                                     ",
"                            = + + + + - ; & # + + + + + + > ,                                   ",
"                          @ + + + + ' ) ! ~ { ] ^ + / + + + ( ) _                               ",
"                        @ + + + @ : < [ } | 1 2 2 3 4 5 6 + + ' ) _                             ",
"                      @ + + + > * 7 } 8 9 9 9 9 9 9 9 0 a b / + ' ) c                           ",
"                    @ + + + > < d e 2 f f f f f f f f f f g h i + ' c j                         ",
"                  # + + + > k l m n n n n n n n n n n n n n o p + + ' _                         ",
"                - + + + # q r s t t t t t t t t t t t t t t t u v + + w c                       ",
"                + + + @ _ x | y y y y y y y y y y y y y y y y y z A + . c w                     ",
"              @ + + + w B C D D D D D D D E F G H D D D D D D I J K i + > ) L                   ",
"              + + + M N O 2 I I I I I I P Q R S T U I I I V V V V W X Y + & w                   ",
"            + + + . , Z ` V V V V V V V  ...+.@.@.@.V #.#.#.#.#.#.#.$.%.+ + _ c                 ",
"          ( + + + _ &.e #.#.#.#.#.#.#.#.*.=.@.@.@.@.-.-.-.-.-.-.-.-.;.>.,.+ M $                 ",
"          + + + ( '.).n -.-.-.-.-.-.-.s !.~.@.@.@.@.{.;.;.;.;.;.;.;.;.].h Y @ _ ^.              ",
"        ( + + + $ /.(.;.;.;.;.;.;.;.;._.:.<.@.@.@.@.[.[.[.[.[.[.[.[.[.[.}.|.+ > c               ",
"        + + + # ! 1.y [.[.[.[.[.[.[.[._.2.<.@.@.@.@._._._._._._._._._._.3.5 + + w 4.            ",
"        + + + ; 5.` _._._._._._._._.6.6.7.8.@.@.@.9.6.6.6.6.6.6.6.6.6.6.6.0.a.+ - )             ",
"      = + + # b.c.#.6.6.6.6.6.6.d.d.d.d.e.f.g.@.@.h.d.d.d.d.d.d.d.d.d.d.d.i.p + + $ j.          ",
"      + + + k.l.{.d.d.d.d.d.m.m.m.m.m.m.n.o.p.@.@.q.m.m.m.m.m.m.m.m.m.m.m.m.r.a.+ - c           ",
"    ' + + . ) s.t m.m.m.t.t.t.t.t.t.t.t.u. .<.@.v.t.t.t.t.t.t.t.t.t.t.t.t.t.w.x.+ + $ y.        ",
"    = + + ' z.A.t.t.t.u.u.u.u.u.u.u.u.u.u.e.B.C.D.u.u.u.u.u.u.u.u.u.u.u.u.u.u.E.F.+ ; j         ",
"    + + + $ G.H.u.I.I.I.I.I.I.I.I.I.I.I.I.I.J.K.I.I.I.I.I.I.I.I.I.I.I.I.I.I.I.L.5 + - _         ",
"    + + . c M.#.N.N.N.N.N.N.N.N.N.N.N.N.N.N.N.N.N.N.N.N.N.N.N.N.N.N.N.N.N.O.O.P.E./ + _ Q.      ",
"  & + + ( R.(.O.O.O.O.O.O.O.O.O.O.O.O.O.O.O.O.O.O.O.O.O.O.O.O.O.O.O.O.S.S.S.S.S.x.%.+ & T.      ",
"  ( + + ; U.1 S.S.S.S.S.S.S.S.S.S.S.S.S.V.W.X.Y.C S.S.S.S.S.S.S.S.Z.Z.Z.Z.Z.Z.Z.`. ++ > .+      ",
"  ' + + ; ++6.Z.Z.Z.Z.Z.Z.Z.Z.Z.Z.Z.Z.Z.U  .@+#+$+Z.Z.Z.Z.Z.Z.%+%+%+%+%+%+%+%+%+&+b + # *+      ",
"  M + + $ =+Z.%+%+%+%+%+%+%+%+%+%+%+%+%+-+p.@.@.@.%+%+%+%+%+;+;+;+;+;+;+;+;+;+;+>+5 + @ ,+      ",
"  & + + $ '+;+;+;+;+;+;+;+;+;+;+;+;+;+;+)+!+@.@.$+;+;+;+~+~+~+~+~+~+~+~+~+~+~+~+{+]++ + $       ",
"  & + + ; ^+O.~+~+~+~+~+~+~+~+~+~+~+~+~+V./+@.$+V.~+(+(+(+(+(+(+(+(+(+(+(+(+(+(+&+_++ + j       ",
"  * + + = :+<+~+(+(+(+(+(+(+(+(+(+(+(+(+(+(+(+(+[+[+[+[+[+[+[+[+[+[+[+[+[+[+[+[+}+%.+ > |+      ",
"    + + + ' j 1+[+[+[+[+[+[+[+[+[+[+[+[+[+[+2+2+2+2+2+2+2+2+2+2+2+2+2+2+2+2+3+4+5++ + w 6+      ",
"    M + + + = = p 7+8+2+2+2+2+2+2+2+2+2+9+9+9+9+9+9+9+9+9+9+9+9+9+9+9+9+0+a+b+c++ + # ) d+      ",
"      > + + + + + + + e+f+g+9+9+9+9+h+h+h+h+h+h+h+h+h+h+h+h+h+h+i+j+k+X l+X 6 + + ' , m+        ",
"        > + + + + + + + n+o+p+q+r+s+t+u+v+h+h+h+h+h+u+u+u+w+x+]+p+_+ +|./ + @ # _ c y+          ",
"          z++ + + + + + + + + + A+B+5+C+C+C+C+C+C+C+C+C+C+ +D+A Y + + + # ; c $ j.E+            ",
"              F+( + + + + + + + + + + + + + + + + + + + + + + @ # ' ; _ $ k.z+G+@.              ",
"                  H+% _ + + + + + + + + + + + + + = # > & ; ; c _ k.c z+I+@.                    ",
"                          J+K+.+% |+L+$ $ $ $ $ $ c $ $ M+M+% y+N+@.@.                          ",
"                                      @.@.@.@.@.@.@.@.@.                                        ",
"                                                                                                ",
"                                                                                                ",
"                                                                                                ",
"                                                                                                "};
