/* XPM */
static char * warning_xpm[] = {
"43 43 704 2",
"  	c None",
". 	c #E42713",
"+ 	c #C52210",
"@ 	c #FC2B15",
"# 	c #61120B",
"$ 	c #F32A14",
"% 	c #DC2612",
"& 	c #B9200F",
"* 	c #81160C",
"= 	c #F72B14",
"- 	c #E12712",
"; 	c #BF2110",
"> 	c #9F1B0E",
", 	c #86170C",
"' 	c #7B150B",
") 	c #F72913",
"! 	c #BC210F",
"~ 	c #A41C0E",
"{ 	c #A01C0E",
"] 	c #981B0E",
"^ 	c #69130A",
"/ 	c #EA2812",
"( 	c #C62210",
"_ 	c #AB1E0E",
": 	c #A11B0E",
"< 	c #A21A0E",
"[ 	c #81170B",
"} 	c #7C160B",
"| 	c #F02913",
"1 	c #CD2410",
"2 	c #AF1E0F",
"3 	c #A3190E",
"4 	c #A51F0E",
"5 	c #A9280F",
"6 	c #A31C0E",
"7 	c #971A0E",
"8 	c #78150B",
"9 	c #EF2913",
"0 	c #DF2712",
"a 	c #B31F0F",
"b 	c #A41B0E",
"c 	c #A4200E",
"d 	c #AE370F",
"e 	c #B34510",
"f 	c #A01C0F",
"g 	c #7A160C",
"h 	c #661109",
"i 	c #E82812",
"j 	c #C1210F",
"k 	c #A2180E",
"l 	c #B24310",
"m 	c #C26E12",
"n 	c #BE6512",
"o 	c #A31C0F",
"p 	c #A11C0F",
"q 	c #971B0E",
"r 	c #911A0E",
"s 	c #F22913",
"t 	c #C82311",
"u 	c #A71D0F",
"v 	c #9D0B0E",
"w 	c #C56C10",
"x 	c #E3B712",
"y 	c #D29212",
"z 	c #A0160F",
"A 	c #A21A0F",
"B 	c #A31E0F",
"C 	c #8E190E",
"D 	c #72140C",
"E 	c #F42A13",
"F 	c #DB2612",
"G 	c #B01F0F",
"H 	c #A11A0E",
"I 	c #A1160E",
"J 	c #C36610",
"K 	c #DBA211",
"L 	c #E4BC12",
"M 	c #DCA812",
"N 	c #C05E12",
"O 	c #A7250F",
"P 	c #A21B0F",
"Q 	c #961B0F",
"R 	c #7C160D",
"S 	c #C32210",
"T 	c #A71C0F",
"U 	c #A41E0E",
"V 	c #AE3610",
"W 	c #DDA612",
"X 	c #E5BC12",
"Y 	c #E0B212",
"Z 	c #DFB112",
"` 	c #DA9F14",
" .	c #A82A10",
"..	c #9E1510",
"+.	c #A01D10",
"@.	c #8A190E",
"#.	c #580F09",
"$.	c #F32A13",
"%.	c #D02310",
"&.	c #A91D0E",
"*.	c #A0170E",
"=.	c #A8260F",
"-.	c #CB7912",
";.	c #DFAC12",
">.	c #DFB312",
",.	c #DEB012",
"'.	c #E2B512",
").	c #DFB212",
"!.	c #AF4011",
"~.	c #A21C10",
"{.	c #A31C10",
"].	c #981C0F",
"^.	c #79160D",
"/.	c #5B1009",
"(.	c #DF2612",
"_.	c #B21F10",
":.	c #A21C0E",
"<.	c #A1150E",
"[.	c #AC2F0E",
"}.	c #E0AC11",
"|.	c #E1B311",
"1.	c #C59C0F",
"2.	c #E0B112",
"3.	c #DEAC13",
"4.	c #D39312",
"5.	c #B14011",
"6.	c #9E1610",
"7.	c #9D1D10",
"8.	c #8E1A0F",
"9.	c #500E08",
"0.	c #EC2814",
"a.	c #C32111",
"b.	c #A91D0F",
"c.	c #A0160E",
"d.	c #B0380F",
"e.	c #CD8111",
"f.	c #CEA410",
"g.	c #413405",
"h.	c #1D1702",
"i.	c #392C04",
"j.	c #775C0A",
"k.	c #DFAC13",
"l.	c #E2B313",
"m.	c #B44811",
"n.	c #9C0F10",
"o.	c #A11E11",
"p.	c #9B1C11",
"q.	c #6E140B",
"r.	c #68130A",
"s.	c #FA2B15",
"t.	c #DA2512",
"u.	c #AC1E0F",
"v.	c #A41D0E",
"w.	c #9D0B0D",
"x.	c #B74710",
"y.	c #D9AB12",
"z.	c #9D7D0C",
"A.	c #110D01",
"B.	c #000000",
"C.	c #040300",
"D.	c #332704",
"E.	c #DFAD13",
"F.	c #E4B513",
"G.	c #C97B12",
"H.	c #AD3A11",
"I.	c #9F1911",
"J.	c #9E1D11",
"K.	c #5E110B",
"L.	c #E62712",
"M.	c #BD2111",
"N.	c #A0140E",
"O.	c #AC300F",
"P.	c #CD7A11",
"Q.	c #D2AD11",
"R.	c #5D4A07",
"S.	c #110C01",
"T.	c #070500",
"U.	c #261E03",
"V.	c #E2AF13",
"W.	c #DCAA14",
"X.	c #BE6413",
"Y.	c #9C1111",
"Z.	c #9F1D11",
"`.	c #9B1D11",
" +	c #67130C",
".+	c #4D0F09",
"++	c #D52513",
"@+	c #AB1E0F",
"#+	c #CC7F11",
"$+	c #EEC814",
"%+	c #C69D10",
"&+	c #282003",
"*+	c #050300",
"=+	c #010000",
"-+	c #3C2F03",
";+	c #E1AE13",
">+	c #E1B615",
",+	c #C67714",
"'+	c #A11D11",
")+	c #A01E12",
"!+	c #83190F",
"~+	c #6F140D",
"{+	c #E02612",
"]+	c #BB2010",
"^+	c #A21B0E",
"/+	c #A31A0E",
"(+	c #C76D13",
"_+	c #DBA413",
":+	c #E8BB13",
"<+	c #261E02",
"[+	c #030200",
"}+	c #090700",
"|+	c #473706",
"1+	c #DFAD15",
"2+	c #DDAE15",
"3+	c #D7A014",
"4+	c #C26D13",
"5+	c #9F1C12",
"6+	c #9E1D12",
"7+	c #971D11",
"8+	c #6D150D",
"9+	c #E92813",
"0+	c #A61D0F",
"a+	c #A2190E",
"b+	c #9F120E",
"c+	c #D28F12",
"d+	c #E1B612",
"e+	c #E7B813",
"f+	c #251D02",
"g+	c #010100",
"h+	c #080601",
"i+	c #1E1702",
"j+	c #594507",
"k+	c #DDAC15",
"l+	c #DEAD15",
"m+	c #DCAB15",
"n+	c #DEB015",
"o+	c #CE8B14",
"p+	c #9C1412",
"q+	c #A01F12",
"r+	c #81180F",
"s+	c #D42513",
"t+	c #B41F10",
"u+	c #9F190E",
"v+	c #A6210E",
"w+	c #B95311",
"x+	c #D9A312",
"y+	c #E1B712",
"z+	c #E6B513",
"A+	c #CA9E11",
"B+	c #403204",
"C+	c #1B1502",
"D+	c #362904",
"E+	c #5F4908",
"F+	c #D69D15",
"G+	c #B55013",
"H+	c #A22312",
"I+	c #A01C12",
"J+	c #911C11",
"K+	c #76160E",
"L+	c #3E0C08",
"M+	c #EA2914",
"N+	c #C22211",
"O+	c #A81D0F",
"P+	c #A0150E",
"Q+	c #D69B13",
"R+	c #DFB012",
"S+	c #E5B513",
"T+	c #CA9C11",
"U+	c #463605",
"V+	c #050400",
"W+	c #211A02",
"X+	c #3C2E04",
"Y+	c #5E4809",
"Z+	c #DCAB16",
"`+	c #DBA916",
" @	c #D29515",
".@	c #A42812",
"+@	c #9D1812",
"@@	c #9B1E13",
"#@	c #801810",
"$@	c #4A0E09",
"%@	c #AE1F10",
"&@	c #AE3810",
"*@	c #E0B412",
"=@	c #E7B613",
"-@	c #C49711",
";@	c #1C1502",
">@	c #120F01",
",@	c #281F03",
"'@	c #5A4508",
")@	c #DBAA16",
"!@	c #DCAD16",
"~@	c #DAA916",
"{@	c #AA3413",
"]@	c #9E1B13",
"^@	c #A01E14",
"/@	c #8D1B11",
"(@	c #60110A",
"_@	c #470D08",
":@	c #E82815",
"<@	c #BC2111",
"[@	c #A81D0E",
"}@	c #9D100E",
"|@	c #B34610",
"1@	c #E0B113",
"2@	c #DEAE13",
"3@	c #E7B314",
"4@	c #C19610",
"5@	c #0C0900",
"6@	c #060500",
"7@	c #0E0C00",
"8@	c #453606",
"9@	c #DEAC16",
"0@	c #DBAB16",
"a@	c #CD8815",
"b@	c #AC3B14",
"c@	c #9C1813",
"d@	c #981D12",
"e@	c #7F180F",
"f@	c #320906",
"g@	c #D62613",
"h@	c #AA1D0F",
"i@	c #A1170E",
"j@	c #B34111",
"k@	c #D08713",
"l@	c #E3BA12",
"m@	c #E8B314",
"n@	c #C19510",
"o@	c #070600",
"p@	c #080700",
"q@	c #0E0B00",
"r@	c #4A3907",
"s@	c #DDAC16",
"t@	c #DAAA17",
"u@	c #DBAC17",
"v@	c #AF4314",
"w@	c #991013",
"x@	c #9E1F13",
"y@	c #911C13",
"z@	c #53100A",
"A@	c #C12211",
"B@	c #9C0E0E",
"C@	c #C16412",
"D@	c #E1B213",
"E@	c #DFAF12",
"F@	c #E8B414",
"G@	c #C09510",
"H@	c #090800",
"I@	c #141001",
"J@	c #5D4808",
"K@	c #DDB117",
"L@	c #C26F15",
"M@	c #A83213",
"N@	c #9D1B14",
"O@	c #991D14",
"P@	c #71160F",
"Q@	c #6E150E",
"R@	c #D72613",
"S@	c #A72710",
"T@	c #CA7E11",
"U@	c #E3BC12",
"V@	c #C19611",
"W@	c #0E0B01",
"X@	c #1C1602",
"Y@	c #0B0900",
"Z@	c #73590A",
"`@	c #DDAB16",
" #	c #DBAB17",
".#	c #D8A516",
"+#	c #BA5E15",
"@#	c #991314",
"##	c #9B1E14",
"$#	c #831911",
"%#	c #68140E",
"&#	c #E42714",
"*#	c #C22212",
"=#	c #C77612",
"-#	c #DCA913",
";#	c #E4B114",
">#	c #C69A13",
",#	c #3F3106",
"'#	c #503F07",
")#	c #292002",
"!#	c #342803",
"~#	c #8A6A0D",
"{#	c #DCAA16",
"]#	c #DDB419",
"^#	c #BF6E17",
"/#	c #9C1714",
"(#	c #9E1E14",
"_#	c #931C13",
":#	c #5C120C",
"<#	c #B01F10",
"[#	c #A11B0F",
"}#	c #9F130F",
"|#	c #D18E11",
"1#	c #E1B613",
"2#	c #DDAC14",
"3#	c #D7A715",
"4#	c #AE8811",
"5#	c #6F560A",
"6#	c #2A2003",
"7#	c #5A4608",
"8#	c #CC9D14",
"9#	c #D8A919",
"0#	c #D9AD19",
"a#	c #D29918",
"b#	c #BC6216",
"c#	c #9D1C14",
"d#	c #9B1E15",
"e#	c #74170F",
"f#	c #63140D",
"g#	c #E52814",
"h#	c #A5230F",
"i#	c #BE6012",
"j#	c #DAA512",
"k#	c #E0B313",
"l#	c #DEAB13",
"m#	c #DDAB14",
"n#	c #D9A815",
"o#	c #CB9D14",
"p#	c #B58C12",
"q#	c #BF9413",
"r#	c #DAAE19",
"s#	c #C98518",
"t#	c #991615",
"u#	c #891C12",
"v#	c #69150D",
"w#	c #B12010",
"x#	c #9C160F",
"y#	c #A6240F",
"z#	c #D79E13",
"A#	c #DFB013",
"B#	c #DFAE13",
"C#	c #A48010",
"D#	c #94730F",
"E#	c #B38B12",
"F#	c #D9AA18",
"G#	c #DBB019",
"H#	c #CF9519",
"I#	c #AA3815",
"J#	c #9D2115",
"K#	c #961D14",
"L#	c #6F160F",
"M#	c #460D09",
"N#	c #E82915",
"O#	c #BF2212",
"P#	c #A21D0F",
"Q#	c #B03D10",
"R#	c #DEAE12",
"S#	c #E0B013",
"T#	c #DEAC15",
"U#	c #B58D11",
"V#	c #2C2204",
"W#	c #4D3B07",
"X#	c #C39813",
"Y#	c #DBAA17",
"Z#	c #D9AC1A",
"`#	c #D49F19",
" $	c #C36E16",
".$	c #A12615",
"+$	c #9C1C16",
"@$	c #7E1912",
"#$	c #5A120D",
"$$	c #D52614",
"%$	c #AD1F10",
"&$	c #9D150F",
"*$	c #AF3C10",
"=$	c #D39512",
"-$	c #DEAD13",
";$	c #E2B016",
">$	c #C89B14",
",$	c #4C3A07",
"'$	c #0B0801",
")$	c #231B03",
"!$	c #81650D",
"~$	c #DCAB17",
"{$	c #D8AA1A",
"]$	c #D5A319",
"^$	c #C78117",
"/$	c #A12815",
"($	c #9B1C16",
"_$	c #901D15",
":$	c #64150F",
"<$	c #280907",
"[$	c #EA2A15",
"}$	c #BF2312",
"|$	c #A71E0F",
"1$	c #9C100E",
"2$	c #B24110",
"3$	c #E3B016",
"4$	c #C59914",
"5$	c #352904",
"6$	c #060400",
"7$	c #231B04",
"8$	c #83660E",
"9$	c #D9A918",
"0$	c #D7A81A",
"a$	c #D39E19",
"b$	c #A02615",
"c$	c #9B1916",
"d$	c #971F16",
"e$	c #751711",
"f$	c #3D0C09",
"g$	c #DE2815",
"h$	c #AC1F10",
"i$	c #A1180F",
"j$	c #AE3A11",
"k$	c #CA7F13",
"l$	c #E6BD14",
"m$	c #E3B713",
"n$	c #E3B613",
"o$	c #E2B614",
"p$	c #E0B515",
"q$	c #DFB115",
"r$	c #E0B016",
"s$	c #D2A515",
"t$	c #8A6B0D",
"u$	c #211A03",
"v$	c #281F04",
"w$	c #735A0B",
"x$	c #BE9514",
"y$	c #D8AB1A",
"z$	c #D6A71A",
"A$	c #B65A16",
"B$	c #A12816",
"C$	c #9A1B16",
"D$	c #841B13",
"E$	c #54100C",
"F$	c #CB2514",
"G$	c #A41D0F",
"H$	c #9F180F",
"I$	c #B04011",
"J$	c #C36F13",
"K$	c #CB7C13",
"L$	c #C97A12",
"M$	c #C97912",
"N$	c #C77913",
"O$	c #C87B14",
"P$	c #D09114",
"Q$	c #D39815",
"R$	c #D59D15",
"S$	c #D6A016",
"T$	c #D8A515",
"U$	c #D4A915",
"V$	c #7F680D",
"W$	c #8C720E",
"X$	c #C39D14",
"Y$	c #E5B718",
"Z$	c #DCB018",
"`$	c #DBAF1A",
" %	c #DAAF1A",
".%	c #D9AB1B",
"+%	c #C98717",
"@%	c #AC4416",
"#%	c #9F2216",
"$%	c #8E1C15",
"%%	c #67140F",
"&%	c #DD2815",
"*%	c #B72111",
"=%	c #A21D10",
"-%	c #A11A10",
";%	c #A01610",
">%	c #9F1410",
",%	c #9E1511",
"'%	c #9D1511",
")%	c #9D1211",
"!%	c #A01B11",
"~%	c #B34D13",
"{%	c #BA5E14",
"]%	c #BF6A14",
"^%	c #C27214",
"/%	c #C77E14",
"(%	c #D49916",
"_%	c #DDA117",
":%	c #DC9F17",
"<%	c #D79C17",
"[%	c #D39917",
"}%	c #D19818",
"|%	c #D29818",
"1%	c #D19819",
"2%	c #D09719",
"3%	c #D19719",
"4%	c #D09819",
"5%	c #D1971A",
"6%	c #D0931B",
"7%	c #C37817",
"8%	c #B15016",
"9%	c #A22D16",
"0%	c #941C16",
"a%	c #761812",
"b%	c #2F0A07",
"c%	c #62130E",
"d%	c #C42312",
"e%	c #A31D0F",
"f%	c #A11D0F",
"g%	c #A31D10",
"h%	c #A11F12",
"i%	c #A12012",
"j%	c #A02113",
"k%	c #9F2114",
"l%	c #9E2215",
"m%	c #9E2216",
"n%	c #9D2216",
"o%	c #9D2116",
"p%	c #9D2016",
"q%	c #9D1F17",
"r%	c #991F17",
"s%	c #861B14",
"t%	c #480F0B",
"u%	c #7E160B",
"v%	c #671209",
"w%	c #7F170D",
"x%	c #83170D",
"y%	c #8A180E",
"z%	c #921A0E",
"A%	c #931B10",
"B%	c #991C11",
"C%	c #A01D11",
"D%	c #A41E12",
"E%	c #A21F12",
"F%	c #A41D12",
"G%	c #A31D12",
"H%	c #A21D12",
"I%	c #A21C13",
"J%	c #A11C13",
"K%	c #A11B13",
"L%	c #A01B13",
"M%	c #9F1B13",
"N%	c #9E1B14",
"O%	c #9E1C15",
"P%	c #9D1C15",
"Q%	c #9D1C16",
"R%	c #9D1D16",
"S%	c #9C1E17",
"T%	c #9E2018",
"U%	c #951E16",
"V%	c #5B120D",
"W%	c #480D07",
"X%	c #1E0604",
"Y%	c #2C0906",
"Z%	c #340A06",
"`%	c #400C07",
" &	c #4D0E08",
".&	c #581009",
"+&	c #64120B",
"@&	c #67130B",
"#&	c #74160C",
"$&	c #7E180E",
"%&	c #80180F",
"&&	c #82180F",
"*&	c #891A0F",
"=&	c #8C1A10",
"-&	c #8C1B11",
";&	c #931C12",
">&	c #961C12",
",&	c #971D13",
"'&	c #961E14",
")&	c #951E14",
"!&	c #951E15",
"~&	c #941E16",
"{&	c #931E16",
"]&	c #5D130E",
"^&	c #210806",
"/&	c #000101",
"(&	c #0B0302",
"_&	c #150503",
":&	c #1B0604",
"<&	c #270805",
"[&	c #280805",
"}&	c #310A06",
"|&	c #3B0C07",
"1&	c #3D0C08",
"2&	c #3F0C08",
"3&	c #4A0F09",
"4&	c #55110A",
"5&	c #59110B",
"6&	c #58110B",
"7&	c #60120C",
"8&	c #74160E",
"9&	c #72160E",
"0&	c #72160F",
"a&	c #72170F",
"b&	c #711710",
"c&	c #701710",
"d&	c #701711",
"e&	c #6E1610",
"f&	c #691510",
"g&	c #5B120E",
"h&	c #430E0B",
"i&	c #1C0604",
"j&	c #1A0604",
"k&	c #190504",
"l&	c #2E0906",
"m&	c #390B07",
"n&	c #350A07",
"o&	c #340A08",
"p&	c #330A08",
"q&	c #340B08",
"r&	c #300A08",
"s&	c #260807",
"t&	c #190605",
"u&	c #050202",
"                                          . +                                         ",
"                                        @ . + #                                       ",
"                                        $ % & * #                                     ",
"                                      = - ; > , '                                     ",
"                                    ) - ! ~ { ] ^ #                                   ",
"                                    / ( _ : < { [ }                                   ",
"                                  | 1 2 3 4 5 6 7 8 #                                 ",
"                                9 0 a b c d e ~ f g h                                 ",
"                                i j ~ k l m n o p q r #                               ",
"                              s t u ~ v w x y z A B C D                               ",
"                            E F G H I J K L M N O P Q R #                             ",
"                            / S T U V W X Y Z `  ...+.@.#.                            ",
"                          $.%.&.*.=.-.;.>.,.'.).!.~.{.].^./.                          ",
"                          (._.:.<.[.}.|.1.1.2.3.4.5.6.7.8.9.                          ",
"                        0.a.b.c.d.e.f.g.h.i.j.k.l.m.n.o.p.q.r.                        ",
"                      s.t.u.v.w.x.y.z.A.B.C.D.E.F.G.H.I.J.@.K.                        ",
"                      L.M.6 N.O.P.Q.R.S.T.B.U.E.V.W.X.Y.Z.`. +.+                      ",
"                    s.++@+~ b #+$+%+&+*+B.=+-+E.;+>+,+'+'+)+!+~+                      ",
"                    {+]+^+/+(+_+:+%+<+[+B.}+|+E.1+2+3+4+5+6+7+8+#                     ",
"                  9+t 0+a+b+c+d+e+%+f+g+h+i+j+k+l+m+n+o+p+5+q+r+#                     ",
"                s.s+t+u+v+w+x+y+z+A+B+C.C+D+E+k+l+m+n+F+G+H+I+J+K+L+                  ",
"                M+N+O+P+=.Q+R+).S+T+U+V+W+X+Y+k+l+m+Z+`+ @.@+@@@#@$@                  ",
"              s.s.%@: < &@,.*@Z =@-@;@B.>@,@'@k+l+)@)@!@~@{@]@^@/@(@_@                ",
"              :@<@[@}@|@1@Z ).2@3@4@5@B.6@7@8@k+9@)@)@0@`+a@b@c@d@e@f@                ",
"            s.g@h@i@j@k@l@).2@3.m@n@T.o@p@q@r@Z+s@)@)@)@t@u@v@w@x@y@z@#               ",
"            s.A@v.B@C@D@).E@3.3.F@G@[+H@6@I@J@Z+s@)@)@t@t@K@L@M@N@O@P@Q@              ",
"          s.R@u.o S@T@U@E@3.3.3.3@V@W@X@Y@i+Z@Z+`@)@t@t@t@ #.#+#@###$#%#              ",
"          &#*#f A =#-#Y 3.3.3.3.;#>#,#'#)#!#~#{#Z+t@t@t@t@t@]#^#/#(#_#:##             ",
"        s.++<#[#}#|#1#3.3.3.3.2#l+3#4#5#6#7#8#)@{#t@t@t@t@9#0#a#b#c#d#e#f#            ",
"        g#A@A h#i#j#k#l#3.3.m#m+m+m+n#o#p#q#`@)@t@t@t@t@t@9#9#r#s#t#d#u#v##           ",
"      s.s+w#x#y#z#A#B#3.3.2#m+m+m+k+l+C#D#E#Z+)@t@t@t@t@F#9#9#G#H#I#J#K#L#M#          ",
"      N#O#0+P#Q#R#S#l#3.3.m+m+m+T#n#U#V#B.W#X#t@Y#t@t@F#9#9#9#Z#`# $.$+$@$#$#         ",
"    s.$$%$&$*$=$l#-$3.3.3.m+m+m+;$>$,$'$B.)$!$ #~$t@F#9#9#9#9#{$]$^$/$($_$:$<$        ",
"    [$}$|$1$2$A#3.3.3.3.m+m+m+m+3$4$5$6$B.7$8$ #~$9$9#9#9#9#0$0${$a$b$c$d$e$f$#       ",
"    g$h$i$j$k$l$m$n$o$>+p$q$n+2+r$s$t$u$v$w$x$t@F#9#9#9#9#0$0$0$y$z$A$B$C$D$E$#       ",
"  s.F$G$H$I$J$K$L$M$N$,+O$P$Q$R$S$T$U$V$W$X$Y$Z$G#G#G#G#`$ % % %`$.%+%@%#%$%%%# #     ",
"  &%*%G$=%-%;%>%>%,%'%)%!%~%{%]%^%/%(%_%:%<%[%}%}%|%|%1%2%3%3%4%5%6%7%8%9%0%a%b%c%    ",
"  d%e%f%=%g%g%=%'+'+'+'+'+q+h%i%i%i%j%j%j%j%j%k%k%k%k%l%l%l%l%m%n%n%o%p%q%r%s%t%c%    ",
"  u%v%g w%x%y%z%A%B%C%D%E%F%G%H%I%J%K%L%M%M%N%N%N%O%P%P%P%P%Q%+$+$+$R%S%q%T%U%V%c%    ",
"  W%X%Y%Z%`% &.&+&@&#&$&%&&&*&=&-&-&-&;&>&,&,&,&,&K#'&'&'&)&!&!&!&!&~&~&{&_$s%]&^&    ",
"        /&(&_&:&<&[&}&|&1&2&3&4&5&6&6&7&Q@8&9&9&9&0&a&a&a&b&b&b&b&c&d&d&e&f&g&h&      ",
"                                i&j&j&k&l&m&n&n&n&n&n&n&n&o&o&o&o&p&p&p&q&r&s&t&      ",
"                                                  u&u&u&u&u&u&u&u&u&u&u&u&            "};
