/* XPM */
static char * mplayer_xpm[] = {
"32 32 204 2",
"  	c None",
". 	c #1D153E",
"+ 	c #251B4F",
"@ 	c #2D2161",
"# 	c #362773",
"$ 	c #3A2A7D",
"% 	c #3A2A7C",
"& 	c #23194C",
"* 	c #2C205E",
"= 	c #342670",
"- 	c #39297B",
"; 	c #787682",
"> 	c #817C94",
", 	c #8982A6",
"' 	c #9087B5",
") 	c #9188B6",
"! 	c #857BAF",
"~ 	c #493B87",
"{ 	c #29AEDE",
"] 	c #E3F6FC",
"^ 	c #FFFFFF",
"/ 	c #F1F0F6",
"( 	c #4A4561",
"_ 	c #0BAEE7",
": 	c #AAE3F7",
"< 	c #D1D1D1",
"[ 	c #077399",
"} 	c #0BAEE8",
"| 	c #D9F2FB",
"1 	c #FEFEFE",
"2 	c #087DA7",
"3 	c #E0F5FC",
"4 	c #07678A",
"5 	c #E1F5FC",
"6 	c #E5F6FD",
"7 	c #E7F7FD",
"8 	c #F5F4F8",
"9 	c #D2CEE1",
"0 	c #E2E0EC",
"a 	c #E4E2ED",
"b 	c #F0EFF5",
"c 	c #CDC9DE",
"d 	c #D1CEE1",
"e 	c #FBFBFC",
"f 	c #DFDFDF",
"g 	c #CBCBCB",
"h 	c #086B8E",
"i 	c #E8F8FD",
"j 	c #C2BDD7",
"k 	c #3B2B7D",
"l 	c #E1DFEB",
"m 	c #5C4E93",
"n 	c #8177AC",
"o 	c #C5C0D9",
"p 	c #4E408A",
"q 	c #655899",
"r 	c #8980B1",
"s 	c #C1C1C1",
"t 	c #535353",
"u 	c #0A87B4",
"v 	c #0BAAE3",
"w 	c #EDF9FD",
"x 	c #A199C1",
"y 	c #6D619E",
"z 	c #4A3B87",
"A 	c #645799",
"B 	c #55478F",
"C 	c #756AA4",
"D 	c #7F74AA",
"E 	c #929292",
"F 	c #8D8D8D",
"G 	c #9A9A9A",
"H 	c #919191",
"I 	c #424242",
"J 	c #DEDEDE",
"K 	c #3E3E3E",
"L 	c #5D5D5D",
"M 	c #CFCFCF",
"N 	c #878787",
"O 	c #494949",
"P 	c #BEBEBE",
"Q 	c #4D4D4D",
"R 	c #3B3B3B",
"S 	c #F3F3F3",
"T 	c #FDFEFF",
"U 	c #0BA3D9",
"V 	c #0993C4",
"W 	c #8075AB",
"X 	c #A59DC3",
"Y 	c #3F2F80",
"Z 	c #A9A2C6",
"` 	c #463785",
" .	c #574A90",
"..	c #B5AFCE",
"+.	c #575757",
"@.	c #C8C8C8",
"#.	c #141414",
"$.	c #E2E2E2",
"%.	c #2A2A2A",
"&.	c #A9A9A9",
"*.	c #767676",
"=.	c #5C5C5C",
"-.	c #848484",
";.	c #ADADAD",
">.	c #C2C2C2",
",.	c #5F5F5F",
"'.	c #DDDDDD",
").	c #FAFDFF",
"!.	c #0879A1",
"~.	c #F3FBFE",
"{.	c #9087B6",
"].	c #DCD9E8",
"^.	c #A098C0",
"/.	c #FAF9FC",
"(.	c #776CA5",
"_.	c #CCC8DE",
":.	c #968DBA",
"<.	c #BBBBBB",
"[.	c #656565",
"}.	c #9B9B9B",
"|.	c #686868",
"1.	c #DADADA",
"2.	c #565656",
"3.	c #B4B4B4",
"4.	c #B2B2B2",
"5.	c #757575",
"6.	c #B5B5B5",
"7.	c #B1B1B1",
"8.	c #B0B0B0",
"9.	c #065F7E",
"0.	c #F4FBFE",
"a.	c #C0C0C0",
"b.	c #7F7F7F",
"c.	c #FDFDFD",
"d.	c #F7FCFE",
"e.	c #066587",
"f.	c #E1DEEB",
"g.	c #FCFBFD",
"h.	c #087FA9",
"i.	c #FAFDFE",
"j.	c #BCB6D3",
"k.	c #665A9A",
"l.	c #6A5E9D",
"m.	c #51438C",
"n.	c #A8A1C6",
"o.	c #FFFEFF",
"p.	c #F1F1F1",
"q.	c #B6B0CF",
"r.	c #625597",
"s.	c #BFBDC8",
"t.	c #EDEDED",
"u.	c #EFEEF5",
"v.	c #7368A3",
"w.	c #9B93BD",
"x.	c #EEF9FD",
"y.	c #9998A1",
"z.	c #F8F8FB",
"A.	c #EBEAF2",
"B.	c #111111",
"C.	c #8A8A8A",
"D.	c #F7F7F7",
"E.	c #F8F7FA",
"F.	c #84C2E3",
"G.	c #065A77",
"H.	c #221A42",
"I.	c #A19AC1",
"J.	c #EBE9F2",
"K.	c #FBFAFC",
"L.	c #CECADF",
"M.	c #7A6FA7",
"N.	c #000000",
"O.	c #1E1E1E",
"P.	c #A1A1A1",
"Q.	c #958DB9",
"R.	c #32246B",
"S.	c #291E58",
"T.	c #201746",
"U.	c #221949",
"V.	c #867CAF",
"W.	c #2F2F2F",
"X.	c #BFBFBF",
"Y.	c #A099C1",
"Z.	c #352671",
"`.	c #56498F",
" +	c #FDFDFE",
".+	c #151515",
"++	c #979797",
"@+	c #FCFCFC",
"#+	c #7065A1",
"$+	c #1E1641",
"%+	c #1D153F",
"&+	c #251B51",
"*+	c #9C94BE",
"=+	c #D8D8D8",
"-+	c #EFEFEF",
";+	c #B8B2D0",
">+	c #2E2162",
",+	c #2A1F5B",
"'+	c #7165A1",
")+	c #B3ADCD",
"!+	c #B7B1D0",
"~+	c #302366",
"{+	c #1F1642",
"]+	c #201744",
"                                                                ",
"                                                                ",
"                                                  .             ",
"                                      + @ # $ $ $ $ $ %         ",
"                        & * = $ $ $ $ $ $ $ $ $ $ $ $ $ -       ",
"          ; > , ' ) ) ) ) ) ) ) ) ) ) ) ) ) ) ) ) ) ) ! ~       ",
"    { ] ^ ^ ^ ^ ^ ^ ^ ^ ^ ^ ^ ^ ^ ^ ^ ^ ^ ^ ^ ^ ^ ^ ^ ^ / (     ",
"  _ : ^ ^ ^ ^ ^ ^ ^ ^ ^ ^ ^ ^ ^ ^ ^ ^ ^ ^ ^ ^ ^ ^ ^ ^ ^ ^ <     ",
"[ } | ^ ^ ^ ^ ^ ^ ^ ^ ^ ^ ^ ^ ^ ^ ^ ^ ^ ^ ^ ^ ^ ^ ^ ^ ^ ^ 1     ",
"2 } 3 ^ ^ ^ ^ ^ ^ ^ ^ ^ ^ ^ ^ ^ ^ ^ ^ ^ ^ ^ ^ ^ ^ ^ ^ ^ ^ ^     ",
"4 } 5 ^ ^ ^ ^ ^ ^ ^ ^ ^ ^ ^ ^ ^ ^ ^ ^ ^ ^ ^ ^ ^ ^ ^ ^ ^ ^ ^     ",
"  } 6 ^ ^ ^ ^ ^ ^ ^ ^ ^ ^ ^ ^ ^ ^ ^ ^ ^ ^ ^ ^ ^ ^ ^ ^ ^ ^ ^     ",
"  } 7 ^ 8 9 ^ 0 a b c d e f g ^ ^ ^ ^ ^ ^ ^ ^ ^ ^ ^ ^ ^ ^ ^ h   ",
"  } i ^ j k l m n o p q r s t ^ ^ ^ ^ ^ ^ ^ ^ ^ ^ ^ ^ ^ ^ ^ u   ",
"  v w ^ x ~ y z A o B C D E F G H I J K J L M N O P Q R S T U   ",
"  V w ^ W X Y Z ` o  ...b +.@.#.$.R S %.&.*.=.-.;.>.,.'.^ ).}   ",
"  !.~.^ {.].^./.(._.:.^ ^ *.<.[.}.|.1.2.O 3.4.5.6.7.8.^ ^ ).}   ",
"  9.0.^ ^ ^ ^ ^ ^ ^ ^ ^ ^ ^ ^ ^ ^ ^ a.*.b.c.^ ^ ^ ^ ^ ^ ^ ).}   ",
"    d.^ ^ ^ ^ ^ ^ ^ ^ ^ ^ ^ ^ ^ ^ ^ ^ ^ ^ ^ ^ ^ ^ ^ ^ ^ ^ ).} e.",
"    ).^ ^ ^ ^ ^ ^ ^ ^ ^ ^ ^ ^ ^ ^ ^ ^ ^ ^ ^ ^ 1 a f.g.^ ^ ).} h.",
"    i.^ ^ ^ ^ ^ ^ ^ ^ ^ ^ ^ ^ ^ ^ ^ ^ ^ ^ ^ j.B k.l.m.n.o.).} !.",
"    p.^ ^ ^ ^ ^ ^ ^ ^ ^ ^ ^ ^ ^ ^ ^ ^ ^ ^ q.r.s.t.^ u.v.w.x.}   ",
"    y.^ ^ ^ ^ ^ ^ ^ ^ ^ ^ ^ ^ ^ ^ ^ ^ ^ z.m.A.}.B.C.D.E.B F.G.  ",
"    H.I.J././././.K.^ ^ ^ ^ ^ ^ ^ ^ ^ ^ L.M.^ }.N.N.O.P.Q.      ",
"      $ $ $ $ $ $ $ $ $ $ $ $ $ - R.S.T.U.V.^ }.N.N.W.X.Y.      ",
"      T.$ $ $ $ $ $ Z.* &                 `. +}..+++@+^ #+      ",
"          $+%+                            &+*+=+-+^ ^ ;+>+      ",
"                                            ,+'+)+!+D ~+        ",
"                                                {+]+            ",
"                                                                ",
"                                                                ",
"                                                                "};
